<?xml version="1.0" encoding="utf-8"?>
<!-- Generator: Adobe Illustrator 22.1.0, SVG Export Plug-In . SVG Version: 6.00 Build 0)  -->
<svg version="1.1" xmlns="http://www.w3.org/2000/svg" xmlns:xlink="http://www.w3.org/1999/xlink" x="0px" y="0px"
	 viewBox="0 0 24 24" style="enable-background:new 0 0 24 24;" xml:space="preserve">
<style type="text/css">
	.st0{opacity:0.2;fill:#FF0000;}
	.st1{fill:#CECED9;}
	.st2{fill:#5757AA;}
	.st3{fill:#9B9BAA;}
	.st4{fill:#5EA343;}
	.st5{fill:#7F7FBB;}
	.st6{opacity:0.2;fill:none;}
	.st7{fill:#E63A3F;}
	.st8{fill:#FFFFFF;}
	.st9{fill:#FAFAFA;}
	.st10{fill:none;stroke:#5757AA;stroke-width:2;stroke-linecap:round;stroke-miterlimit:10;}
	.st11{fill:#CBEBC1;}
	.st12{fill:#82828F;}
	.st13{fill:#EDEDF2;}
	.st14{fill:#38396D;}
	.st15{fill:url(#SVGID_1_);}
	.st16{fill:url(#SVGID_2_);}
	.st17{fill:url(#SVGID_3_);}
	.st18{fill:url(#SVGID_4_);}
	.st19{fill:none;stroke:#5757AA;stroke-width:1.8947;stroke-miterlimit:10;}
	.st20{fill:#CCCCCC;stroke:#CECED9;stroke-miterlimit:10;}
	.st21{fill:none;stroke:#CECED9;stroke-width:1.6733;stroke-linecap:round;stroke-miterlimit:10;}
	.st22{fill:#E1E1E5;}
	.st23{fill:#FF00FF;}
	.st24{fill:#FFFF00;}
	.st25{fill:#39396D;}
	.st26{fill:url(#SVGID_5_);}
	.st27{fill:url(#SVGID_6_);}
	.st28{fill:#2B2B5B;}
</style>
<g id="background">
</g>
<g id="Ebene_1">
	<g>
		<path class="st24" d="M98-7v36H-4V-7H98 M99-8H-5v38H99V-8L99-8z"/>
	</g>
	<path class="st2" d="M18.1,4.1c-0.1,0.2-0.1,0.3-0.2,0.4c-0.4,0.6-0.8,1.2-1.2,1.7c-0.1,0.2-0.1,0.3,0,0.5c0.2,0.3,0.3,0.6,0.4,1
		c0.1,0.1,0.1,0.2,0.3,0.2c0.7,0.1,1.4,0.3,2.1,0.4C19.9,8.3,20,8.5,20,8.9c0,0.7,0,1.5,0,2.2c0,0.4-0.1,0.5-0.5,0.6
		c-0.7,0.1-1.4,0.3-2.1,0.4c-0.2,0-0.2,0.1-0.3,0.2c-0.1,0.4-0.3,0.7-0.4,1.1c0,0.1,0,0.2,0,0.3c0.4,0.6,0.8,1.2,1.2,1.7
		c0.2,0.4,0.2,0.6-0.1,0.9c-0.5,0.5-1,1-1.5,1.5c-0.3,0.3-0.5,0.3-0.9,0.1c-0.6-0.4-1.1-0.8-1.7-1.2c-0.1-0.1-0.2-0.1-0.4,0
		c-0.3,0.2-0.7,0.3-1,0.4c-0.1,0-0.2,0.1-0.2,0.2c-0.1,0.7-0.3,1.4-0.4,2C11.6,19.9,11.5,20,11,20c-0.7,0-1.4,0-2.1,0
		c-0.4,0-0.6-0.1-0.6-0.5c-0.1-0.7-0.3-1.4-0.4-2.1c0-0.1-0.1-0.2-0.2-0.2c-0.3-0.2-0.7-0.3-1-0.4c-0.1-0.1-0.2-0.1-0.4,0
		c-0.6,0.4-1.1,0.8-1.7,1.2c-0.4,0.2-0.6,0.2-0.9-0.1c-0.5-0.5-1-1-1.5-1.5c-0.3-0.3-0.3-0.5-0.1-0.8c0.4-0.6,0.8-1.2,1.2-1.7
		c0.1-0.1,0.1-0.2,0-0.3c-0.2-0.3-0.3-0.7-0.4-1c-0.1-0.1-0.1-0.2-0.3-0.2c-0.7-0.1-1.4-0.3-2.1-0.4C0.2,11.7,0,11.5,0,11.2
		c0-0.8,0-1.6,0-2.3c0-0.3,0.1-0.5,0.5-0.6C1.2,8.1,1.9,8,2.6,7.9c0.2,0,0.2-0.1,0.3-0.2C3,7.3,3.1,7,3.3,6.6c0.1-0.1,0.1-0.2,0-0.3
		C2.9,5.7,2.5,5.1,2.1,4.5C1.8,4.2,1.9,4,2.1,3.7c0.5-0.5,1-1,1.6-1.6C4,1.9,4.2,1.9,4.5,2.1c0.6,0.4,1.2,0.8,1.7,1.2
		c0.1,0.1,0.2,0.1,0.4,0c0.3-0.2,0.7-0.3,1-0.4c0.1,0,0.2-0.1,0.2-0.2C8,1.9,8.1,1.2,8.2,0.5C8.3,0.1,8.5,0,8.8,0c0.7,0,1.5,0,2.2,0
		c0.4,0,0.6,0.1,0.6,0.5c0.1,0.7,0.3,1.3,0.4,2c0,0.2,0.1,0.3,0.3,0.3c0.3,0.1,0.7,0.3,1,0.4c0.1,0.1,0.2,0.1,0.4,0
		c0.6-0.4,1.2-0.8,1.7-1.2c0.3-0.2,0.5-0.2,0.8,0.1c0.5,0.5,1.1,1,1.6,1.6C18,3.8,18,4,18.1,4.1z M10,5.8c-2.3,0-4.2,1.9-4.2,4.2
		c0,2.3,1.9,4.2,4.2,4.2c2.3,0,4.2-1.9,4.2-4.2C14.2,7.7,12.3,5.8,10,5.8z"/>
	<g>
		<rect x="10.5" y="16.5" class="st8" width="13" height="7"/>
		<path class="st2" d="M23,17v6H11v-6H23 M24,16H10v8h14V16L24,16z"/>
	</g>
	<rect x="12" y="19" class="st2" width="2" height="2"/>
	<rect x="16" y="19" class="st2" width="2" height="2"/>
	<rect x="20" y="19" class="st2" width="2" height="2"/>
</g>
</svg>
