<?xml version="1.0" encoding="utf-8"?>
<!-- Generator: Adobe Illustrator 22.1.0, SVG Export Plug-In . SVG Version: 6.00 Build 0)  -->
<svg version="1.1" xmlns="http://www.w3.org/2000/svg" xmlns:xlink="http://www.w3.org/1999/xlink" x="0px" y="0px"
	 viewBox="0 0 16 16" style="enable-background:new 0 0 16 16;" xml:space="preserve">
<style type="text/css">
	.st0{opacity:0.2;fill:#FF0000;}
	.st1{fill:#CECED9;}
	.st2{fill:#BBBBC6;}
	.st3{fill:#9B9BAA;}
	.st4{fill:#5EA343;}
	.st5{fill:#7F7FBB;}
	.st6{opacity:0.2;fill:none;}
	.st7{fill:#E63A3F;}
	.st8{fill:#FFFFFF;}
	.st9{fill:#FAFAFA;}
	.st10{fill:none;stroke:#5757AA;stroke-width:2;stroke-linecap:round;stroke-miterlimit:10;}
	.st11{fill:#CBEBC1;}
	.st12{fill:#38396D;}
	.st13{fill:#EDEDF2;}
	.st14{fill:url(#SVGID_1_);}
	.st15{fill:url(#SVGID_2_);}
	.st16{fill:url(#SVGID_3_);}
	.st17{fill:url(#SVGID_4_);}
	.st18{fill:none;stroke:#5757AA;stroke-width:1.8947;stroke-miterlimit:10;}
	.st19{fill:#CCCCCC;stroke:#CECED9;stroke-miterlimit:10;}
	.st20{fill:none;stroke:#CECED9;stroke-width:1.6733;stroke-linecap:round;stroke-miterlimit:10;}
	.st21{fill:#E1E1E5;}
	.st22{fill:#82828F;}
	.st23{fill:#39396D;}
	.st24{fill:url(#SVGID_5_);}
	.st25{fill:#2B2B5B;}
	.st26{fill:url(#SVGID_6_);}
	.st27{fill:url(#SVGID_7_);}
	.st28{fill:#201F43;}
	.st29{opacity:0.3;fill:#5757AA;}
	.st30{opacity:0.7;fill:#5757AA;}
	.st31{opacity:0.5;fill:#5757AA;}
	.st32{opacity:0.9;fill:#5757AA;}
	.st33{opacity:0.6;fill:#5757AA;}
	.st34{opacity:0.4;fill:#5757AA;}
	.st35{opacity:0.8;fill:#5757AA;}
	.st36{opacity:0.3;fill:#FFFFFF;}
	.st37{opacity:0.7;fill:#FFFFFF;}
	.st38{opacity:0.5;fill:#FFFFFF;}
	.st39{opacity:0.9;fill:#FFFFFF;}
	.st40{opacity:0.6;fill:#FFFFFF;}
	.st41{opacity:0.4;fill:#FFFFFF;}
	.st42{opacity:0.8;fill:#FFFFFF;}
	.st43{fill:#7EB569;}
	.st44{fill:url(#SVGID_8_);}
	.st45{fill:url(#SVGID_9_);}
	.st46{fill:url(#SVGID_10_);}
	.st47{fill:url(#SVGID_11_);}
	.st48{fill:none;stroke:#FFFFFF;stroke-miterlimit:10;}
	.st49{fill:none;stroke:#FF00FF;stroke-miterlimit:10;}
	.st50{fill:none;stroke:#5757AA;stroke-width:2;stroke-miterlimit:10;}
	.st51{fill:none;stroke:#FFFFFF;stroke-width:3;stroke-miterlimit:10;}
	.st52{fill:none;stroke:#BBBBC6;stroke-miterlimit:10;}
	.st53{display:none;}
	.st54{display:inline;}
	.st55{fill:#FFB300;}
	.st56{fill:#4F4FBD;}
	.st57{display:inline;fill:#5757AA;}
	.st58{display:inline;fill:#EDEDF2;}
	.st59{display:inline;fill:#CECED9;}
	.st60{display:inline;fill:#9B9BAA;}
	.st61{display:inline;fill:#16162C;}
	.st62{display:inline;fill:#7F7FBB;}
	.st63{display:inline;fill:#FFFFFF;}
	.st64{fill:none;stroke:#5EA343;stroke-width:6.0526;stroke-miterlimit:10;}
	.st65{fill:#5C5C5C;}
	.st66{fill:#575769;}
	.st67{display:inline;fill:#029B88;}
	.st68{fill:#029B88;}
	.st69{fill:#5D5D5D;}
	.st70{display:inline;fill:#201F43;}
	.st71{fill:#616196;}
	.st72{display:inline;fill:#5C5C5C;}
	.st73{fill:#1E1E21;}
	.st74{fill:#5858BF;}
	.st75{fill:url(#SVGID_12_);}
	.st76{fill:#2F3036;}
	.st77{display:inline;fill:#060708;}
	.st78{fill:#DECA45;}
	.st79{fill:#AA3636;}
	.st80{opacity:0.5;}
	.st81{display:inline;fill:#E63A3F;}
	.st82{display:inline;fill:#5EA343;}
	.st83{display:inline;fill:#1E1E21;}
	.st84{display:inline;fill:#616193;}
	.st85{display:inline;opacity:0.1;fill:#E63A3F;}
	.st86{fill:#B2B2BD;}
	.st87{fill:#DFEDD9;}
	.st88{fill:url(#SVGID_13_);}
	.st89{fill:none;stroke:#5757AA;stroke-width:2;stroke-linecap:square;stroke-miterlimit:10;}
	.st90{display:inline;fill:none;stroke:#FF00FF;stroke-miterlimit:10;}
</style>
<g id="background">
</g>
<g id="Icons">
	<g>
		<g>
			<path class="st2" d="M3.7,6c0.9,0,1.7,0.7,1.7,1.7S4.6,9.3,3.7,9.3C2.7,9.3,2,8.6,2,7.7S2.7,6,3.7,6 M3.7,5C2.2,5,1,6.2,1,7.7
				c0,1.5,1.2,2.7,2.7,2.7s2.7-1.2,2.7-2.7C6.3,6.2,5.1,5,3.7,5L3.7,5z"/>
		</g>
		<g>
			<path class="st2" d="M12.3,2C13.3,2,14,2.7,14,3.7s-0.7,1.7-1.7,1.7c-0.9,0-1.7-0.7-1.7-1.7S11.4,2,12.3,2 M12.3,1
				c-1.5,0-2.7,1.2-2.7,2.7c0,1.5,1.2,2.7,2.7,2.7S15,5.1,15,3.7C15,2.2,13.8,1,12.3,1L12.3,1z"/>
		</g>
		<g>
			<path class="st2" d="M12.3,10.7c0.9,0,1.7,0.7,1.7,1.7S13.3,14,12.3,14c-0.9,0-1.7-0.7-1.7-1.7S11.4,10.7,12.3,10.7 M12.3,9.7
				c-1.5,0-2.7,1.2-2.7,2.7s1.2,2.7,2.7,2.7s2.7-1.2,2.7-2.7S13.8,9.7,12.3,9.7L12.3,9.7z"/>
		</g>
		<g>
			<line class="st52" x1="5.7" y1="7" x2="10.3" y2="4.3"/>
		</g>
		<line class="st52" x1="10.3" y1="11.7" x2="5.7" y2="9"/>
	</g>
</g>
<g id="Linien" class="st53">
	<rect x="-6.5" y="-5.5" class="st90" width="31" height="28"/>
</g>
</svg>
