<?xml version="1.0" encoding="utf-8"?>
<!-- Generator: Adobe Illustrator 22.0.1, SVG Export Plug-In . SVG Version: 6.00 Build 0)  -->
<svg version="1.1" id="Ebene_1" xmlns="http://www.w3.org/2000/svg" xmlns:xlink="http://www.w3.org/1999/xlink" x="0px" y="0px"
	 viewBox="0 0 210 210" style="enable-background:new 0 0 210 210;" xml:space="preserve">
<style type="text/css">
	.st0{fill:#CECED9;}
	.st1{fill:#5757AA;}
	.st2{fill:#9B9BAA;}
	.st3{fill:#5EA343;}
	.st4{fill:#7F7FBB;}
	.st5{opacity:0.2;fill:none;}
	.st6{fill:#E63A3F;}
	.st7{fill:#FFFFFF;}
	.st8{fill:#FAFAFA;}
	.st9{fill:none;stroke:#5757AA;stroke-width:2;stroke-linecap:round;stroke-miterlimit:10;}
	.st10{fill:#CBEBC1;}
	.st11{fill:#EDEDF2;}
	.st12{fill:#38396D;}
	.st13{fill:url(#SVGID_1_);}
	.st14{fill:url(#SVGID_2_);}
	.st15{fill:url(#SVGID_3_);}
	.st16{fill:url(#SVGID_4_);}
	.st17{fill:none;stroke:#5757AA;stroke-width:1.8947;stroke-miterlimit:10;}
	.st18{fill:#CCCCCC;stroke:#CECED9;stroke-miterlimit:10;}
	.st19{fill:none;stroke:#CECED9;stroke-width:1.6733;stroke-linecap:round;stroke-miterlimit:10;}
	.st20{fill:#E1E1E5;}
	.st21{fill:#FF00FF;}
	.st22{fill:#82828F;}
</style>
<g>
	<ellipse class="st1" cx="105" cy="30" rx="81" ry="29.5"/>
	<path class="st1" d="M24,79.2c0,15.7,36.3,28.4,81,28.4s81-12.7,81-28.4V41.9c0,15.7-36.3,28.4-81,28.4S24,57.6,24,41.9V79.2z"/>
	<path class="st1" d="M24,129.2c0,15.7,36.3,28.4,81,28.4s81-12.7,81-28.4V91.8c0,15.7-36.3,28.4-81,28.4s-81-12.7-81-28.4V129.2z"
		/>
	<path class="st1" d="M24,181.1c0,15.7,36.3,28.4,81,28.4s81-12.7,81-28.4v-37.4c0,15.7-36.3,28.4-81,28.4s-81-12.7-81-28.4V181.1z"
		/>
</g>
<g>
	<path class="st21" d="M219-10.5v232h-454v-232H219 M220-11.5h-456v234h456V-11.5L220-11.5z"/>
</g>
</svg>
