<?xml version="1.0" encoding="utf-8"?>
<!-- Generator: Adobe Illustrator 23.0.3, SVG Export Plug-In . SVG Version: 6.00 Build 0)  -->
<svg version="1.1" xmlns="http://www.w3.org/2000/svg" xmlns:xlink="http://www.w3.org/1999/xlink" x="0px" y="0px"
	 viewBox="0 0 210 210" style="enable-background:new 0 0 210 210;" xml:space="preserve">
<style type="text/css">
	.st0{opacity:0.2;fill:#FF0000;}
	.st1{fill:#CECED9;}
	.st2{fill:#5757AA;}
	.st3{fill:#9B9BAA;}
	.st4{fill:#5EA343;}
	.st5{fill:#7F7FBB;}
	.st6{opacity:0.2;fill:none;}
	.st7{fill:#E63A3F;}
	.st8{fill:#FFFFFF;}
	.st9{fill:#FAFAFA;}
	.st10{fill:none;stroke:#5757AA;stroke-width:2;stroke-linecap:round;stroke-miterlimit:10;}
	.st11{fill:#CBEBC1;}
	.st12{fill:#38396D;}
	.st13{fill:#EDEDF2;}
	.st14{fill:url(#SVGID_1_);}
	.st15{fill:url(#SVGID_2_);}
	.st16{fill:url(#SVGID_3_);}
	.st17{fill:url(#SVGID_4_);}
	.st18{fill:none;stroke:#5757AA;stroke-width:1.8947;stroke-miterlimit:10;}
	.st19{fill:#CCCCCC;stroke:#CECED9;stroke-miterlimit:10;}
	.st20{fill:none;stroke:#CECED9;stroke-width:1.6733;stroke-linecap:round;stroke-miterlimit:10;}
	.st21{fill:#E1E1E5;}
	.st22{fill:#82828F;}
	.st23{fill:#39396D;}
	.st24{fill:url(#SVGID_5_);}
	.st25{fill:#2B2B5B;}
	.st26{fill:url(#SVGID_6_);}
	.st27{fill:url(#SVGID_7_);}
	.st28{fill:#201F43;}
	.st29{opacity:0.3;fill:#5757AA;}
	.st30{opacity:0.7;fill:#5757AA;}
	.st31{opacity:0.5;fill:#5757AA;}
	.st32{opacity:0.9;fill:#5757AA;}
	.st33{opacity:0.6;fill:#5757AA;}
	.st34{opacity:0.4;fill:#5757AA;}
	.st35{opacity:0.8;fill:#5757AA;}
	.st36{opacity:0.3;fill:#FFFFFF;}
	.st37{opacity:0.7;fill:#FFFFFF;}
	.st38{opacity:0.5;fill:#FFFFFF;}
	.st39{opacity:0.9;fill:#FFFFFF;}
	.st40{opacity:0.6;fill:#FFFFFF;}
	.st41{opacity:0.4;fill:#FFFFFF;}
	.st42{opacity:0.8;fill:#FFFFFF;}
	.st43{fill:#7EB569;}
	.st44{fill:url(#SVGID_8_);}
	.st45{fill:url(#SVGID_9_);}
	.st46{fill:url(#SVGID_10_);}
	.st47{fill:url(#SVGID_11_);}
	.st48{fill:none;stroke:#FFFFFF;stroke-miterlimit:10;}
	.st49{fill:none;stroke:#FF00FF;stroke-miterlimit:10;}
	.st50{fill:none;stroke:#5757AA;stroke-width:2;stroke-miterlimit:10;}
	.st51{fill:none;stroke:#FFFFFF;stroke-width:3;stroke-miterlimit:10;}
	.st52{fill:#FFB300;}
	.st53{fill:#4F4FBD;}
	.st54{fill:#16162C;}
	.st55{fill:none;stroke:#5EA343;stroke-width:6.0526;stroke-miterlimit:10;}
	.st56{fill:#5C5C5C;}
	.st57{fill:#575769;}
	.st58{fill:#029B88;}
	.st59{fill:#5D5D5D;}
	.st60{fill:#616196;}
	.st61{fill:#1E1E21;}
	.st62{fill:#5858BF;}
	.st63{fill:url(#SVGID_12_);}
	.st64{fill:#2F3036;}
	.st65{fill:#060708;}
	.st66{fill:#DECA45;}
	.st67{fill:#AA3636;}
	.st68{opacity:0.5;}
	.st69{fill:#616193;}
	.st70{opacity:0.1;fill:#E63A3F;}
	.st71{fill:#B2B2BD;}
	.st72{fill:#DFEDD9;}
	.st73{fill:url(#SVGID_13_);}
</style>
<g id="background">
</g>
<g id="Icons">
	<rect x="-7.5" y="-30.5" class="st49" width="240" height="263"/>
	<ellipse class="st2" cx="105" cy="30" rx="81" ry="29.5"/>
	<path class="st2" d="M24,79.2c0,15.7,36.3,28.4,81,28.4s81-12.7,81-28.4V41.9c0,15.7-36.3,28.4-81,28.4S24,57.6,24,41.9V79.2z"/>
	<path class="st2" d="M176,128.7c3.5,0,6.8,0.5,9.9,1.5c0-0.3,0.1-0.7,0.1-1V91.8c0,15.7-36.3,28.4-81,28.4c-44.7,0-81-12.7-81-28.4
		v37.4c0,15.7,36.3,28.4,81,28.4c14,0,27.1-1.2,38.6-3.4C147.2,139.5,160.3,128.7,176,128.7z"/>
	<g>
		<path class="st2" d="M143.4,168.7c-11.4,2.2-24.5,3.4-38.4,3.4c-44.7,0-81-12.7-81-28.4v37.4c0,15.7,36.3,28.4,81,28.4
			c29.9,0,56.1-5.7,70.1-14.2C159.4,194.9,146.4,183.6,143.4,168.7z"/>
	</g>
	<circle class="st2" cx="176" cy="162" r="29.3"/>
	<g>
		<g>
			<path class="st8" d="M160.2,157.2c2.6,0,4.6,2.1,4.6,4.6c0,2.6-2.1,4.6-4.6,4.6s-4.6-2.1-4.6-4.6
				C155.6,159.3,157.7,157.2,160.2,157.2 M160.2,154.2c-4.2,0-7.6,3.4-7.6,7.6c0,4.2,3.4,7.6,7.6,7.6c4.2,0,7.6-3.4,7.6-7.6
				C167.9,157.7,164.5,154.2,160.2,154.2L160.2,154.2z"/>
		</g>
		<g>
			<path class="st8" d="M185.1,145.8c2.6,0,4.6,2.1,4.6,4.6c0,2.6-2.1,4.6-4.6,4.6s-4.6-2.1-4.6-4.6
				C180.4,147.9,182.5,145.8,185.1,145.8 M185.1,142.8c-4.2,0-7.6,3.4-7.6,7.6c0,4.2,3.4,7.6,7.6,7.6c4.2,0,7.6-3.4,7.6-7.6
				C192.7,146.2,189.3,142.8,185.1,142.8L185.1,142.8z"/>
		</g>
		<g>
			<path class="st8" d="M185.1,170.6c2.6,0,4.6,2.1,4.6,4.6c0,2.6-2.1,4.6-4.6,4.6s-4.6-2.1-4.6-4.6
				C180.4,172.7,182.5,170.6,185.1,170.6 M185.1,167.6c-4.2,0-7.6,3.4-7.6,7.6c0,4.2,3.4,7.6,7.6,7.6c4.2,0,7.6-3.4,7.6-7.6
				C192.7,171,189.3,167.6,185.1,167.6L185.1,167.6z"/>
		</g>
		<g>
			<line class="st51" x1="166.4" y1="159.1" x2="178.9" y2="154.1"/>
		</g>
		<line class="st51" x1="179.8" y1="172.4" x2="166" y2="165.7"/>
	</g>
</g>
<g id="Linien">
</g>
</svg>
