<?xml version="1.0" encoding="utf-8"?>
<!-- Generator: Adobe Illustrator 22.0.1, SVG Export Plug-In . SVG Version: 6.00 Build 0)  -->
<svg version="1.1" id="Ebene_1" xmlns="http://www.w3.org/2000/svg" xmlns:xlink="http://www.w3.org/1999/xlink" x="0px" y="0px"
	 viewBox="0 0 16 16" style="enable-background:new 0 0 16 16;" xml:space="preserve">
<style type="text/css">
	.st0{fill:#5757AA;}
	.st1{fill:#9B9BAA;}
	.st2{fill:#5EA343;}
	.st3{fill:#7F7FBB;}
	.st4{opacity:0.2;fill:none;}
	.st5{fill:#E63A3F;}
	.st6{fill:#FFFFFF;}
	.st7{fill:#FAFAFA;}
	.st8{fill:none;stroke:#5757AA;stroke-width:2;stroke-linecap:round;stroke-miterlimit:10;}
	.st9{fill:#CBEBC1;}
	.st10{fill:#CECED9;}
	.st11{fill:#414180;}
	.st12{fill:#EDEDF2;}
	.st13{fill:#38396D;}
	.st14{fill:url(#SVGID_1_);}
	.st15{fill:url(#SVGID_2_);}
	.st16{fill:url(#SVGID_3_);}
	.st17{fill:url(#SVGID_4_);}
</style>
<path class="st0" d="M5,12L2,9.1V8.1l3-3v1.6L2.9,8.6v0L5,10.4V12z"/>
<path class="st0" d="M10,4l-2.9,9H6l2.8-9H10z"/>
<path class="st0" d="M14,9.1l-3,2.9v-1.6l2.1-1.8v0L11,6.6V5l3,3V9.1z"/>
<g>
	<path class="st0" d="M15,3v11H1V3H15 M16,2H0v13h16V2L16,2z"/>
</g>
<g>
	<polygon class="st0" points="16,1 0,1 0,2 16,2 16,1 	"/>
</g>
</svg>
