<?xml version="1.0" encoding="utf-8"?>
<!-- Generator: Adobe Illustrator 22.0.1, SVG Export Plug-In . SVG Version: 6.00 Build 0)  -->
<svg version="1.1" id="Ebene_1" xmlns="http://www.w3.org/2000/svg" xmlns:xlink="http://www.w3.org/1999/xlink" x="0px" y="0px"
	 viewBox="0 0 48 48" style="enable-background:new 0 0 48 48;" xml:space="preserve">
<style type="text/css">
	.st0{fill:#5757AA;}
	.st1{fill:#9B9BAA;}
	.st2{fill:#5EA343;}
	.st3{fill:#7F7FBB;}
	.st4{opacity:0.2;fill:none;}
	.st5{fill:#E63A3F;}
	.st6{fill:#FFFFFF;}
	.st7{fill:#FAFAFA;}
	.st8{fill:none;stroke:#5757AA;stroke-width:2;stroke-linecap:round;stroke-miterlimit:10;}
	.st9{fill:#CBEBC1;}
	.st10{fill:#CECED9;}
	.st11{fill:#414180;}
	.st12{fill:#EDEDF2;}
	.st13{fill:#38396D;}
	.st14{fill:url(#SVGID_1_);}
	.st15{fill:url(#SVGID_2_);}
	.st16{fill:url(#SVGID_3_);}
	.st17{fill:url(#SVGID_4_);}
</style>
<linearGradient id="SVGID_1_" gradientUnits="userSpaceOnUse" x1="-817.7573" y1="245.4104" x2="-817.7573" y2="240.4104" gradientTransform="matrix(1 0 0 1 841.7573 -203.41)">
	<stop  offset="0" style="stop-color:#616193"/>
	<stop  offset="0.4839" style="stop-color:#8181A9"/>
	<stop  offset="1" style="stop-color:#616193"/>
</linearGradient>
<polygon class="st14" points="33.5,37 31.6,42 16.4,42 14.5,37 "/>
<linearGradient id="SVGID_2_" gradientUnits="userSpaceOnUse" x1="-1252.1996" y1="-393.0698" x2="-1252.1996" y2="-398.0698" gradientTransform="matrix(4.489700e-11 1 -1 4.489700e-11 -393.0698 1276.2)">
	<stop  offset="0" style="stop-color:#616193"/>
	<stop  offset="0.4839" style="stop-color:#8181A9"/>
	<stop  offset="1" style="stop-color:#616193"/>
</linearGradient>
<polygon class="st15" points="5,34.1 0,32 0,16 5,13.9 "/>
<linearGradient id="SVGID_3_" gradientUnits="userSpaceOnUse" x1="-1252.1996" y1="-1171.0698" x2="-1252.1996" y2="-1176.0698" gradientTransform="matrix(-4.489700e-11 1 1 4.489700e-11 1219.0698 1276.2)">
	<stop  offset="0" style="stop-color:#616193"/>
	<stop  offset="0.4839" style="stop-color:#8181A9"/>
	<stop  offset="1" style="stop-color:#616193"/>
</linearGradient>
<polygon class="st16" points="43,34.1 48,32 48,16 43,13.9 "/>
<g>
	<linearGradient id="SVGID_4_" gradientUnits="userSpaceOnUse" x1="3.3686" y1="16.4912" x2="44.6314" y2="31.5096">
		<stop  offset="0.3333" style="stop-color:#FBFBFC"/>
		<stop  offset="0.6045" style="stop-color:#F1F1F1"/>
		<stop  offset="1" style="stop-color:#E6E6E6"/>
	</linearGradient>
	<path class="st17" d="M8,37.5c-1.9,0-3.5-1.6-3.5-3.5V14c0-1.9,1.6-3.5,3.5-3.5h32c1.9,0,3.5,1.6,3.5,3.5v20c0,1.9-1.6,3.5-3.5,3.5
		H8z"/>
	<path class="st10" d="M40,11c1.7,0,3,1.3,3,3v20c0,1.7-1.3,3-3,3H8c-1.7,0-3-1.3-3-3V14c0-1.7,1.3-3,3-3H40 M40,10H8
		c-2.2,0-4,1.8-4,4v20c0,2.2,1.8,4,4,4h32c2.2,0,4-1.8,4-4V14C44,11.8,42.2,10,40,10L40,10z"/>
</g>
</svg>
