<?xml version="1.0" encoding="utf-8"?>
<!-- Generator: Adobe Illustrator 22.0.1, SVG Export Plug-In . SVG Version: 6.00 Build 0)  -->
<svg version="1.1" id="Ebene_1" xmlns="http://www.w3.org/2000/svg" xmlns:xlink="http://www.w3.org/1999/xlink" x="0px" y="0px"
	 viewBox="0 0 48 48" style="enable-background:new 0 0 48 48;" xml:space="preserve">
<style type="text/css">
	.st0{fill:#82828F;}
	.st1{fill:#82828F;}
	.st2{fill:#82828F;}
	.st3{fill:#82828F;}
	.st4{opacity:0.2;fill:none;}
	.st5{fill:#82828F;}
	.st6{fill:#82828F;}
	.st7{fill:#82828F;}
</style>
<g>
	<rect x="22" y="21" transform="matrix(-1.836970e-16 1 -1 -1.836970e-16 69 21)" class="st1" width="4" height="48"/>
	<rect x="1" y="37" transform="matrix(-1.836970e-16 1 -1 -1.836970e-16 41 37)" class="st1" width="2" height="4"/>
	<rect x="1" y="28" transform="matrix(-1.836970e-16 1 -1 -1.836970e-16 32 28)" class="st1" width="2" height="4"/>
	<polyline class="st1" points="0,22 0,20 4,20 4,22 	"/>
	<rect x="1" y="10" transform="matrix(-1.836970e-16 1 -1 -1.836970e-16 14.0002 10.0002)" class="st1" width="2" height="4"/>
	<rect x="1" y="1" transform="matrix(-1.836970e-16 1 -1 -1.836970e-16 5.0002 1.0002)" class="st1" width="2" height="4"/>
	<g>
		<rect x="18" y="10" class="st2" width="8" height="30"/>
	</g>
	<g>
		<rect x="7" y="20" class="st0" width="8" height="20"/>
	</g>
	<g>
		<rect x="29" y="2" class="st0" width="8" height="38"/>
	</g>
	<g>
		<rect x="40" y="23" class="st2" width="8" height="17"/>
	</g>
</g>
</svg>
