<?xml version="1.0" encoding="utf-8"?>
<!-- Generator: Adobe Illustrator 22.0.1, SVG Export Plug-In . SVG Version: 6.00 Build 0)  -->
<svg version="1.1" id="Ebene_1" xmlns="http://www.w3.org/2000/svg" xmlns:xlink="http://www.w3.org/1999/xlink" x="0px" y="0px"
	 viewBox="0 0 48 48" style="enable-background:new 0 0 48 48;" xml:space="preserve">
<style type="text/css">
	.st0{fill:#5757AA;}
	.st1{fill:#9B9BAA;}
	.st2{fill:#5EA343;}
	.st3{fill:#7F7FBB;}
	.st4{opacity:0.2;fill:none;}
	.st5{fill:#E63A3F;}
	.st6{fill:#FFFFFF;}
	.st7{fill:#FAFAFA;}
</style>
<g>
	<g>
		<path class="st0" d="M21,0H3C1.4,0,0,1.4,0,3V17c0,1.7,1.4,3,3,3h2l2-4h10l2,4h2c1.7,0,3-1.4,3-3V3C24,1.4,22.6,0,21,0z"/>
	</g>
	<polygon class="st1" points="38,23 38,26 14,26 14,23 10,23 10,26 0,26 0,29 24,29 24,32 27,32 27,29 41,29 41,25.7 41,23 	"/>
	<polygon class="st2" points="16,18 8,18 7,20 8,22 16,22 17,20 	"/>
	<polygon class="st2" points="28,33 23,33 21,35 23,37 28,37 30,35 	"/>
	<path class="st0" d="M32,35L32,35l-3,4h-7l-3-4l0,0c-1.1,0-2,0.9-2,2v9c0,1.1,0.9,2,2,2h13c1.1,0,2-0.9,2-2v-9
		C34,35.9,33.1,35,32,35z"/>
	<polygon class="st0" points="42,22 37,22 35,20 37,18 42,18 44,20 	"/>
	<g>
		<path class="st2" d="M46,20L46,20l-3-4h-7l-3,4l0,0c-1.1,0-2-0.9-2-2V9c0-1.1,0.9-2,2-2h13c1.1,0,2,0.9,2,2v9
			C48,19.1,47.1,20,46,20z"/>
	</g>
</g>
</svg>
