<?xml version="1.0" encoding="utf-8"?>
<!-- Generator: Adobe Illustrator 24.0.2, SVG Export Plug-In . SVG Version: 6.00 Build 0)  -->
<svg version="1.1" xmlns="http://www.w3.org/2000/svg" xmlns:xlink="http://www.w3.org/1999/xlink" x="0px" y="0px"
	 viewBox="0 0 48 48" style="enable-background:new 0 0 48 48;" xml:space="preserve">
<style type="text/css">
	.st0{display:none;}
	.st1{display:inline;opacity:0.2;fill:#FF0000;}
	.st2{fill:#CECED9;}
	.st3{fill:#5757AA;}
	.st4{fill:#9B9BAA;}
	.st5{fill:#5EA343;}
	.st6{fill:#7F7FBB;}
	.st7{opacity:0.2;fill:none;}
	.st8{fill:#E63A3F;}
	.st9{fill:#FFFFFF;}
	.st10{fill:#FAFAFA;}
	.st11{fill:none;stroke:#5757AA;stroke-width:2;stroke-linecap:round;stroke-miterlimit:10;}
	.st12{fill:#CBEBC1;}
	.st13{fill:#38396D;}
	.st14{fill:#EDEDF2;}
	.st15{fill:url(#SVGID_1_);}
	.st16{fill:url(#SVGID_2_);}
	.st17{fill:url(#SVGID_3_);}
	.st18{fill:url(#SVGID_4_);}
	.st19{fill:none;stroke:#5757AA;stroke-width:1.8947;stroke-miterlimit:10;}
	.st20{fill:#CCCCCC;stroke:#CECED9;stroke-miterlimit:10;}
	.st21{fill:none;stroke:#CECED9;stroke-width:1.6733;stroke-linecap:round;stroke-miterlimit:10;}
	.st22{fill:#E1E1E5;}
	.st23{fill:#82828F;}
	.st24{fill:#39396D;}
	.st25{fill:url(#SVGID_5_);}
	.st26{fill:#2B2B5B;}
	.st27{fill:url(#SVGID_6_);}
	.st28{fill:url(#SVGID_7_);}
	.st29{fill:#201F43;}
	.st30{opacity:0.3;fill:#5757AA;}
	.st31{opacity:0.7;fill:#5757AA;}
	.st32{opacity:0.5;fill:#5757AA;}
	.st33{opacity:0.9;fill:#5757AA;}
	.st34{opacity:0.6;fill:#5757AA;}
	.st35{opacity:0.4;fill:#5757AA;}
	.st36{opacity:0.8;fill:#5757AA;}
	.st37{opacity:0.3;fill:#FFFFFF;}
	.st38{opacity:0.7;fill:#FFFFFF;}
	.st39{opacity:0.5;fill:#FFFFFF;}
	.st40{opacity:0.9;fill:#FFFFFF;}
	.st41{opacity:0.6;fill:#FFFFFF;}
	.st42{opacity:0.4;fill:#FFFFFF;}
	.st43{opacity:0.8;fill:#FFFFFF;}
	.st44{fill:#7EB569;}
	.st45{fill:url(#SVGID_8_);}
	.st46{fill:url(#SVGID_9_);}
	.st47{fill:url(#SVGID_10_);}
	.st48{fill:url(#SVGID_11_);}
	.st49{fill:none;stroke:#FFFFFF;stroke-miterlimit:10;}
	.st50{fill:none;stroke:#5757AA;stroke-width:2;stroke-miterlimit:10;}
	.st51{fill:none;stroke:#FFFFFF;stroke-width:3;stroke-miterlimit:10;}
	.st52{fill:none;stroke:#5757AA;stroke-miterlimit:10;}
	.st53{fill:#FFB300;}
	.st54{fill:#4F4FBD;}
	.st55{fill:#16162C;}
	.st56{fill:none;stroke:#5EA343;stroke-width:6.0526;stroke-miterlimit:10;}
	.st57{fill:#5C5C5C;}
	.st58{fill:#575769;}
	.st59{fill:#029B88;}
	.st60{fill:#5D5D5D;}
	.st61{fill:#616196;}
	.st62{fill:#1E1E21;}
	.st63{fill:#5858BF;}
	.st64{fill:url(#SVGID_12_);}
	.st65{fill:#2F3036;}
	.st66{fill:#060708;}
	.st67{fill:#DECA45;}
	.st68{fill:#AA3636;}
	.st69{opacity:0.5;}
	.st70{fill:#616193;}
	.st71{opacity:0.1;fill:#E63A3F;}
	.st72{fill:#B2B2BD;}
	.st73{fill:#DFEDD9;}
	.st74{fill:url(#SVGID_13_);}
	.st75{fill:none;stroke:#5757AA;stroke-width:2;stroke-linecap:square;stroke-miterlimit:10;}
	.st76{fill:url(#SVGID_14_);}
	.st77{fill:url(#SVGID_15_);}
	.st78{fill:url(#SVGID_16_);}
	.st79{fill:url(#SVGID_17_);}
</style>
<g id="background" class="st0">
</g>
<g id="Icons">
	
		<linearGradient id="SVGID_1_" gradientUnits="userSpaceOnUse" x1="-817.7573" y1="245.4104" x2="-817.7573" y2="240.4104" gradientTransform="matrix(1 0 0 1 841.7573 -203.41)">
		<stop  offset="0" style="stop-color:#616193"/>
		<stop  offset="0.4839" style="stop-color:#8181A9"/>
		<stop  offset="1" style="stop-color:#616193"/>
	</linearGradient>
	<polygon class="st15" points="33.5,37 31.6,42 16.4,42 14.5,37 	"/>
	
		<linearGradient id="SVGID_2_" gradientUnits="userSpaceOnUse" x1="-2033.1996" y1="-886.0698" x2="-2033.1996" y2="-891.0698" gradientTransform="matrix(4.489700e-11 1 -1 4.489700e-11 -886.0698 2057.2)">
		<stop  offset="0" style="stop-color:#616193"/>
		<stop  offset="0.4839" style="stop-color:#8181A9"/>
		<stop  offset="1" style="stop-color:#616193"/>
	</linearGradient>
	<polygon class="st16" points="5,34.1 0,32 0,16 5,13.9 	"/>
	
		<linearGradient id="SVGID_3_" gradientUnits="userSpaceOnUse" x1="-2033.1996" y1="-390.0698" x2="-2033.1996" y2="-395.0698" gradientTransform="matrix(-4.489700e-11 1 1 4.489700e-11 438.0698 2057.2)">
		<stop  offset="0" style="stop-color:#616193"/>
		<stop  offset="0.4839" style="stop-color:#8181A9"/>
		<stop  offset="1" style="stop-color:#616193"/>
	</linearGradient>
	<polygon class="st17" points="43,34.1 48,32 48,16 43,13.9 	"/>
	<g>
		<linearGradient id="SVGID_4_" gradientUnits="userSpaceOnUse" x1="3.3686" y1="16.4912" x2="44.6314" y2="31.5096">
			<stop  offset="0.3333" style="stop-color:#FBFBFC"/>
			<stop  offset="0.6045" style="stop-color:#F1F1F1"/>
			<stop  offset="1" style="stop-color:#E6E6E6"/>
		</linearGradient>
		<path class="st18" d="M8,37.5c-1.9,0-3.5-1.6-3.5-3.5V14c0-1.9,1.6-3.5,3.5-3.5h32c1.9,0,3.5,1.6,3.5,3.5v20
			c0,1.9-1.6,3.5-3.5,3.5H8z"/>
		<path class="st2" d="M40,11c1.7,0,3,1.3,3,3v20c0,1.7-1.3,3-3,3H8c-1.7,0-3-1.3-3-3V14c0-1.7,1.3-3,3-3H40 M40,10H8
			c-2.2,0-4,1.8-4,4v20c0,2.2,1.8,4,4,4h32c2.2,0,4-1.8,4-4V14C44,11.8,42.2,10,40,10L40,10z"/>
	</g>
	<g>
		<path class="st13" d="M27.3,25.4c-0.9,0.9-2,1.4-3.3,1.4s-2.4-0.5-3.3-1.4c-4.3,1.1-4,4.7-4.7,7.6h16
			C31.3,30.1,31.7,26.5,27.3,25.4z"/>
	</g>
	<path class="st13" d="M24,15c2.2,0,4,1,4,4c0,3.1-1.8,6-4,6s-4-2.9-4-6C20,16,21.8,15,24,15"/>
</g>
<g id="Linien" class="st0">
</g>
</svg>
