<?xml version="1.0" encoding="utf-8"?>
<!-- Generator: Adobe Illustrator 22.0.1, SVG Export Plug-In . SVG Version: 6.00 Build 0)  -->
<svg version="1.1" id="Ebene_1" xmlns="http://www.w3.org/2000/svg" xmlns:xlink="http://www.w3.org/1999/xlink" x="0px" y="0px"
	 viewBox="0 0 30 30" style="enable-background:new 0 0 30 30;" xml:space="preserve">
<style type="text/css">
	.st0{fill:#CECED9;}
	.st1{fill:#5757AA;}
	.st2{fill:#9B9BAA;}
	.st3{fill:#5EA343;}
	.st4{fill:#7F7FBB;}
	.st5{opacity:0.2;fill:none;}
	.st6{fill:#E63A3F;}
	.st7{fill:#FFFFFF;}
	.st8{fill:#FAFAFA;}
	.st9{fill:none;stroke:#5757AA;stroke-width:2;stroke-linecap:round;stroke-miterlimit:10;}
	.st10{fill:#CBEBC1;}
	.st11{fill:#EDEDF2;}
	.st12{fill:#38396D;}
	.st13{fill:url(#SVGID_1_);}
	.st14{fill:url(#SVGID_2_);}
	.st15{fill:url(#SVGID_3_);}
	.st16{fill:url(#SVGID_4_);}
	.st17{fill:none;stroke:#5757AA;stroke-width:1.8947;stroke-miterlimit:10;}
	.st18{fill:#CCCCCC;stroke:#CECED9;stroke-miterlimit:10;}
	.st19{fill:none;stroke:#CECED9;stroke-width:1.6733;stroke-linecap:round;stroke-miterlimit:10;}
	.st20{fill:#E1E1E5;}
	.st21{fill:#FF00FF;}
	.st22{fill:#82828F;}
	.st23{fill:none;}
	.st24{font-family:'Segoe UI Semibold';}
	.st25{font-size:10px;}
</style>
<g>
	<polygon class="st1" points="22,6 16,0 16,6 	"/>
	<polygon class="st1" points="15,7 15,0 0,0 0,30 22,30 22,7 	"/>
</g>
<g>
	<rect x="1.5" y="17.5" class="st8" width="27.1" height="11.1"/>
	<path class="st1" d="M28.1,17.9v10.1H1.9V17.9H28.1 M29,17H1v12h28V17L29,17z"/>
</g>
<rect x="2" y="18" class="st23" width="26" height="12"/>
<text transform="matrix(1 0 0 1 5.4529 26.5014)" class="st1 st24 st25">RTF</text>
<polygon class="st1" points="24.7,7.1 23.9,8 27.2,11 22,11 22,13 27.2,13 23.9,16 24.7,16.9 30,12 "/>
<rect x="15" y="11" class="st7" width="7" height="2"/>
</svg>
