<?xml version="1.0" encoding="utf-8"?>
<!-- Generator: Adobe Illustrator 22.0.1, SVG Export Plug-In . SVG Version: 6.00 Build 0)  -->
<svg version="1.1" id="Ebene_1" xmlns="http://www.w3.org/2000/svg" xmlns:xlink="http://www.w3.org/1999/xlink" x="0px" y="0px"
	 viewBox="0 0 140 140" style="enable-background:new 0 0 140 140;" xml:space="preserve">
<style type="text/css">
	.st1{fill:#FFFFFF;}
	.st0{fill:#4F4FBD;}
</style>
<g>
	<circle class="st0" cx="70" cy="70" r="70"/>
	<g>
		<path class="st1" d="M70,40.7c-3.6,0-6.6-1.1-8.9-3.2c-2.3-2.2-3.5-4.8-3.5-7.9c0-3.2,1.2-5.9,3.5-7.9c2.3-2,5.3-3.1,8.9-3.1
			c3.7,0,6.7,1,9,3.1c2.3,2,3.4,4.7,3.4,7.9c0,3.3-1.1,6-3.4,8C76.7,39.6,73.7,40.7,70,40.7z M81,122H59V52h22V122z"/>
	</g>
</g>
</svg>
