<?xml version="1.0" encoding="UTF-8" standalone="no"?>
<svg
   xmlns:dc="http://purl.org/dc/elements/1.1/"
   xmlns:cc="http://creativecommons.org/ns#"
   xmlns:rdf="http://www.w3.org/1999/02/22-rdf-syntax-ns#"
   xmlns:svg="http://www.w3.org/2000/svg"
   xmlns="http://www.w3.org/2000/svg"
   id="svg42"
   xml:space="preserve"
   style="enable-background:new 0 0 42 20;"
   viewBox="0 0 42 20"
   y="0px"
   x="0px"
   version="1.1"><metadata
     id="metadata48"><rdf:RDF><cc:Work
         rdf:about=""><dc:format>image/svg+xml</dc:format><dc:type
           rdf:resource="http://purl.org/dc/dcmitype/StillImage" /><dc:title></dc:title></cc:Work></rdf:RDF></metadata><defs
     id="defs46" /><style
     id="style2"
     type="text/css">
	.st0{display:none;}
	.st1{display:inline;opacity:0.2;fill:#FF0000;}
	.st2{display:inline;fill:#474763;}
	.st3{fill:#CECED9;}
	.st4{fill:#5757AA;}
	.st5{fill:#9B9BAA;}
	.st6{fill:#5EA343;}
	.st7{fill:#7F7FBB;}
	.st8{opacity:0.2;fill:none;}
	.st9{fill:#E63A3F;}
	.st10{fill:#FFFFFF;}
	.st11{fill:#FAFAFA;}
	.st12{fill:none;stroke:#5757AA;stroke-width:2;stroke-linecap:round;stroke-miterlimit:10;}
	.st13{fill:#CBEBC1;}
	.st14{fill:#38396D;}
	.st15{fill:#82828F;}
	.st16{fill:#EDEDF2;}
	.st17{fill:url(#SVGID_1_);}
	.st18{fill:url(#SVGID_2_);}
	.st19{fill:url(#SVGID_3_);}
	.st20{fill:url(#SVGID_4_);}
	.st21{fill:none;stroke:#5757AA;stroke-width:1.8947;stroke-miterlimit:10;}
	.st22{fill:#CCCCCC;stroke:#CECED9;stroke-miterlimit:10;}
	.st23{fill:none;stroke:#CECED9;stroke-width:1.6733;stroke-linecap:round;stroke-miterlimit:10;}
	.st24{fill:#E1E1E5;}
	.st25{fill:#39396D;}
	.st26{fill:url(#SVGID_5_);}
	.st27{fill:#2B2B5B;}
	.st28{fill:url(#SVGID_6_);}
	.st29{fill:url(#SVGID_7_);}
	.st30{fill:#201F43;}
	.st31{fill:none;stroke:#FFFFFF;stroke-width:3;stroke-miterlimit:10;}
	.st32{opacity:0.6;fill:#FFFFFF;}
	.st33{opacity:0.4;fill:#FFFFFF;}
	.st34{opacity:0.8;fill:#FFFFFF;}
	.st35{opacity:0.3;fill:#FFFFFF;}
	.st36{opacity:0.7;fill:#FFFFFF;}
	.st37{opacity:0.9;fill:#FFFFFF;}
	.st38{opacity:0.5;fill:#FFFFFF;}
	.st39{opacity:0.6;fill:#5757AA;}
	.st40{opacity:0.4;fill:#5757AA;}
	.st41{opacity:0.8;fill:#5757AA;}
	.st42{opacity:0.3;fill:#5757AA;}
	.st43{opacity:0.7;fill:#5757AA;}
	.st44{opacity:0.9;fill:#5757AA;}
	.st45{opacity:0.5;fill:#5757AA;}
	.st46{opacity:0.6;}
	.st47{opacity:0.4;}
	.st48{opacity:0.8;}
	.st49{opacity:0.3;}
	.st50{opacity:0.7;}
	.st51{opacity:0.9;}
	.st52{opacity:0.5;}
	.st53{fill:#7EB569;}
	.st54{fill:url(#SVGID_8_);}
	.st55{fill:url(#SVGID_9_);}
	.st56{display:inline;}
	.st57{fill:#DB8D2E;}
	.st58{fill:#FF00FF;}
</style><g
     class="st0"
     id="background" /><g
     id="Icons"><g
       id="g32"><g
         id="g11"><path
           id="path5"
           d="M10,18.5c-4.7,0-8.5-3.8-8.5-8.5c0-4.7,3.8-8.5,8.5-8.5H32c4.7,0,8.5,3.8,8.5,8.5c0,4.7-3.8,8.5-8.5,8.5H10     z"
           class="st53" /><g
           id="g9"><path
             id="path7"
             d="M32,2c4.4,0,8,3.6,8,8V10c0,4.4-3.6,8-8,8H10c-4.4,0-8-3.6-8-8V10c0-4.4,3.6-8,8-8H32 M32,1H10      c-5,0-9,4-9,9V10c0,5,4,9,9,9H32c5,0,9-4,9-9V10C41,5,37,1,32,1L32,1z"
             class="st15" /></g></g><g
         id="g26"><linearGradient
           y2="18.6738"
           x2="32"
           y1="1.3262"
           x1="32"
           gradientUnits="userSpaceOnUse"
           id="SVGID_1_"><stop
             id="stop13"
             style="stop-color:#EDEDF2"
             offset="0" /><stop
             id="stop15"
             style="stop-color:#DFDFE7"
             offset="0.5227" /><stop
             id="stop17"
             style="stop-color:#CECED9"
             offset="1" /></linearGradient><circle
           id="circle20"
           r="8.7"
           cy="10"
           cx="32"
           class="st17" /><g
           id="g24"><path
             id="path22"
             d="M32,1.7c4.6,0,8.3,3.7,8.3,8.3s-3.7,8.3-8.3,8.3s-8.3-3.7-8.3-8.3S27.4,1.7,32,1.7 M32,1c-5,0-9,4-9,9      s4,9,9,9s9-4,9-9S37,1,32,1L32,1z"
             class="st15" /></g></g><text
         id="text910"
         y="12.8"
         x="6.7199998"
         style="font-style:normal;font-weight:normal;font-size:40px;line-height:1.25;font-family:sans-serif;letter-spacing:0px;word-spacing:0px;fill:#000000;fill-opacity:1;stroke:none"
         xml:space="preserve"><tspan
           style="font-style:normal;font-variant:normal;font-weight:normal;font-stretch:normal;font-size:8px;font-family:'Segoe UI';-inkscape-font-specification:'Segoe UI';fill:#fafafa;fill-opacity:1"
           y="12.8"
           x="6.7199998"
           id="tspan908">ON</tspan></text>
</g></g><g
     class="st0"
     id="Linien"><g
       id="g39"
       class="st56"><g
         id="g37"><path
           id="path35"
           d="M102-8v33H-12V-8H102 M103-9H-13v35h116V-9L103-9z"
           class="st57" /></g></g></g></svg>