<?xml version="1.0" encoding="utf-8"?>
<!-- Generator: Adobe Illustrator 22.0.1, SVG Export Plug-In . SVG Version: 6.00 Build 0)  -->
<svg version="1.1" id="Ebene_1" xmlns="http://www.w3.org/2000/svg" xmlns:xlink="http://www.w3.org/1999/xlink" x="0px" y="0px"
	 viewBox="0 0 24 24" style="enable-background:new 0 0 24 24;" xml:space="preserve">
<style type="text/css">
	.st0{fill:#9B9BAA;}
	.st1{fill:#9B9BAA;}
	.st2{fill:#9B9BAA;}
	.st3{fill:#9B9BAA;}
	.st4{fill:#9B9BAA;}
	.st5{opacity:0.2;fill:none;}
	.st6{fill:#9B9BAA;}
	.st7{fill:#9B9BAA;}
	.st8{fill:#9B9BAA;}
	.st9{fill:none;stroke:#9B9BAA;stroke-width:2;stroke-linecap:round;stroke-miterlimit:10;}
	.st10{fill:#9B9BAA;}
	.st11{fill:#9B9BAA;}
	.st12{fill:#9B9BAA;}
	.st13{fill:url(#SVGID_1_);}
	.st14{fill:url(#SVGID_2_);}
	.st15{fill:url(#SVGID_3_);}
	.st16{fill:url(#SVGID_4_);}
	.st17{fill:none;stroke:#9B9BAA;stroke-width:1.8947;stroke-miterlimit:10;}
	.st18{fill:#CCCCCC;stroke:#9B9BAA;stroke-miterlimit:10;}
	.st19{fill:none;stroke:#9B9BAA;stroke-width:1.6733;stroke-linecap:round;stroke-miterlimit:10;}
	.st20{fill:#9B9BAA;}
	.st21{fill:#9B9BAA;}
	.st22{fill:#9B9BAA;}
</style>
<rect x="19" y="1" class="st1" width="2" height="8"/>
<rect x="16" y="4" transform="matrix(6.123234e-17 -1 1 6.123234e-17 8.9996 25.0004)" class="st1" width="2" height="8"/>
<path class="st1" d="M10.8,20c-3.9-0.6-6.8-3.9-6.8-8c0-4.4,3.6-8.1,8.1-8.1c3.1,0,5.8,1.7,7.2,4.5l1.7-0.8
	c-1.7-3.4-5.1-5.5-8.9-5.5c-5.5,0-9.9,4.5-9.9,9.9c0,4.5,3.1,8.4,7.2,9.6L10.8,20z"/>
<polygon class="st6" points="24,12.7 22.2,11 17.7,15.7 13.1,11 11.3,12.7 15.9,17.5 11.3,22.3 13.1,24 17.7,19.3 22.2,24 24,22.3 
	19.4,17.5 "/>
</svg>
