<?xml version="1.0" encoding="utf-8"?>
<!-- Generator: Adobe Illustrator 22.0.1, SVG Export Plug-In . SVG Version: 6.00 Build 0)  -->
<svg version="1.1" xmlns="http://www.w3.org/2000/svg" xmlns:xlink="http://www.w3.org/1999/xlink" x="0px" y="0px"
	 viewBox="0 0 218 218" style="enable-background:new 0 0 218 218;" xml:space="preserve">
<style type="text/css">
	.st0{fill:#EDEDF2;}
	.st1{fill:url(#SVGID_1_);}
	.st2{fill:url(#SVGID_2_);}
	.st3{fill:url(#SVGID_3_);}
	.st4{fill:url(#SVGID_4_);}
	.st5{fill:url(#SVGID_5_);}
	.st6{fill:url(#SVGID_6_);}
	.st7{fill:#B1B1B1;}
	.st8{fill:url(#SVGID_7_);}
	.st9{fill:url(#SVGID_8_);}
	.st10{fill:url(#SVGID_9_);}
	.st11{fill:url(#SVGID_10_);}
	.st12{fill:url(#SVGID_11_);}
	.st13{fill:url(#SVGID_12_);}
	.st14{fill:url(#SVGID_13_);}
	.st15{fill:url(#SVGID_14_);}
	.st16{fill:url(#SVGID_15_);}
	.st17{fill:url(#SVGID_16_);}
	.st18{fill:url(#SVGID_17_);}
	.st19{fill:url(#SVGID_18_);}
	.st20{fill:#1E1E21;}
	.st21{fill:#D9D9E2;}
	.st22{fill:url(#SVGID_19_);}
	.st23{fill:#561720;}
	.st24{fill:url(#SVGID_20_);}
	.st25{fill:url(#SVGID_21_);}
	.st26{fill:url(#SVGID_22_);}
	.st27{fill:url(#SVGID_23_);}
	.st28{fill:url(#SVGID_24_);}
	.st29{fill:#AA3636;}
	.st30{fill:#E73A3F;}
	.st31{fill:#AB3636;}
	.st32{fill:#E87D50;}
	.st33{fill:url(#SVGID_25_);}
	.st34{fill:#9C9B9B;}
	.st35{fill:url(#SVGID_26_);}
	.st36{fill:url(#SVGID_27_);}
	.st37{fill:url(#SVGID_28_);}
	.st38{fill:url(#SVGID_29_);}
	.st39{fill:url(#SVGID_30_);}
	.st40{fill:url(#SVGID_31_);}
	.st41{fill:#5C5C5C;}
	.st42{fill:url(#SVGID_32_);}
	.st43{fill:#38396D;}
	.st44{fill:url(#SVGID_33_);}
	.st45{fill:url(#SVGID_34_);}
	.st46{fill:url(#SVGID_35_);}
	.st47{fill:url(#SVGID_36_);}
	.st48{fill:#1D1D1B;}
	.st49{fill:url(#SVGID_37_);}
	.st50{fill:url(#SVGID_38_);}
	.st51{fill:url(#SVGID_39_);}
	.st52{fill:url(#SVGID_40_);}
	.st53{fill:url(#SVGID_41_);}
	.st54{fill:url(#SVGID_42_);}
	.st55{fill:url(#SVGID_43_);}
	.st56{fill:url(#SVGID_44_);}
	.st57{fill:#201F43;}
	.st58{fill:#585784;}
	.st59{fill:#484763;}
	.st60{fill:#029B88;}
	.st61{fill:url(#SVGID_45_);}
	.st62{fill:url(#SVGID_46_);}
	.st63{fill:url(#SVGID_47_);}
	.st64{fill:url(#SVGID_48_);}
	.st65{fill:url(#SVGID_49_);}
	.st66{fill:url(#SVGID_50_);}
</style>
<g id="Hintergrund">
</g>
<g id="Text">
</g>
<g id="Ebene_3">
</g>
<g id="Ebene_4">
	<g>
		<linearGradient id="SVGID_1_" gradientUnits="userSpaceOnUse" x1="109" y1="4" x2="109" y2="214">
			<stop  offset="0" style="stop-color:#5757A2"/>
			<stop  offset="0.2652" style="stop-color:#4E4E94"/>
			<stop  offset="0.7666" style="stop-color:#37376F"/>
			<stop  offset="1" style="stop-color:#2B2B5B"/>
		</linearGradient>
		<path class="st1" d="M108.9,214C51,214,4,167,4,109.1v-0.3C4,51,51,4,108.9,4h0.3C167,4,214,51,214,108.9v0.3
			C214,167,167,214,109.1,214H108.9z"/>
		<path class="st20" d="M109.1,8C164.7,8,210,53.3,210,108.9v0.3c0,55.6-45.3,100.9-100.9,100.9h-0.2C53.3,210,8,164.7,8,109.1v-0.3
			C8,53.3,53.3,8,108.9,8H109.1 M109.1,0h-0.2C48.7,0,0,48.7,0,108.9v0.3C0,169.3,48.7,218,108.9,218h0.2
			c60.1,0,108.9-48.7,108.9-108.9v-0.3C218,48.7,169.3,0,109.1,0L109.1,0z"/>
	</g>
</g>
</svg>
