<?xml version="1.0" encoding="utf-8"?>
<!-- Generator: Adobe Illustrator 22.0.1, SVG Export Plug-In . SVG Version: 6.00 Build 0)  -->
<svg version="1.1" xmlns="http://www.w3.org/2000/svg" xmlns:xlink="http://www.w3.org/1999/xlink" x="0px" y="0px"
	 viewBox="0 0 293 329" style="enable-background:new 0 0 293 329;" xml:space="preserve">
<style type="text/css">
	.st0{fill:#EDEDF2;}
	.st1{fill:url(#SVGID_1_);}
	.st2{fill:url(#SVGID_2_);}
	.st3{fill:url(#SVGID_3_);}
	.st4{fill:url(#SVGID_4_);}
	.st5{fill:url(#SVGID_5_);}
	.st6{fill:url(#SVGID_6_);}
	.st7{fill:#B1B1B1;}
	.st8{fill:url(#SVGID_7_);}
	.st9{fill:url(#SVGID_8_);}
	.st10{fill:url(#SVGID_9_);}
	.st11{fill:url(#SVGID_10_);}
	.st12{fill:url(#SVGID_11_);}
	.st13{fill:url(#SVGID_12_);}
	.st14{fill:url(#SVGID_13_);}
	.st15{fill:url(#SVGID_14_);}
	.st16{fill:url(#SVGID_15_);}
	.st17{fill:url(#SVGID_16_);}
	.st18{fill:url(#SVGID_17_);}
	.st19{fill:url(#SVGID_18_);}
	.st20{fill:#1E1E21;}
	.st21{fill:#D9D9E2;}
	.st22{fill:url(#SVGID_19_);}
	.st23{fill:#561720;}
	.st24{fill:url(#SVGID_20_);}
	.st25{fill:url(#SVGID_21_);}
	.st26{fill:url(#SVGID_22_);}
	.st27{fill:url(#SVGID_23_);}
	.st28{fill:url(#SVGID_24_);}
	.st29{fill:#AA3636;}
	.st30{fill:#E73A3F;}
	.st31{fill:#AB3636;}
	.st32{fill:#E87D50;}
	.st33{fill:url(#SVGID_25_);}
	.st34{fill:#9C9B9B;}
	.st35{fill:url(#SVGID_26_);}
	.st36{fill:url(#SVGID_27_);}
	.st37{fill:url(#SVGID_28_);}
	.st38{fill:url(#SVGID_29_);}
	.st39{fill:url(#SVGID_30_);}
	.st40{fill:url(#SVGID_31_);}
	.st41{fill:#5C5C5C;}
	.st42{fill:url(#SVGID_32_);}
	.st43{fill:#38396D;}
	.st44{fill:url(#SVGID_33_);}
	.st45{fill:url(#SVGID_34_);}
	.st46{fill:url(#SVGID_35_);}
	.st47{fill:url(#SVGID_36_);}
	.st48{fill:#1D1D1B;}
	.st49{fill:url(#SVGID_37_);}
	.st50{fill:url(#SVGID_38_);}
	.st51{fill:url(#SVGID_39_);}
	.st52{fill:url(#SVGID_40_);}
	.st53{fill:url(#SVGID_41_);}
	.st54{fill:url(#SVGID_42_);}
	.st55{fill:url(#SVGID_43_);}
	.st56{fill:url(#SVGID_44_);}
	.st57{fill:#201F43;}
	.st58{fill:#585784;}
	.st59{fill:#484763;}
	.st60{fill:#029B88;}
	.st61{fill:url(#SVGID_45_);}
	.st62{fill:url(#SVGID_46_);}
	.st63{fill:url(#SVGID_47_);}
	.st64{fill:url(#SVGID_48_);}
	.st65{fill:url(#SVGID_49_);}
	.st66{fill:url(#SVGID_50_);}
</style>
<g id="Hintergrund">
</g>
<g id="Text">
</g>
<g id="Ebene_3">
	<g>
		<g>
			
				<image style="overflow:visible;opacity:0.25;" width="292" height="329" xlink:href="://images/system_views/dashboards/icons/B92333CD.png"  transform="matrix(1 0 0 1 -3.035826e-02 -3.035826e-02)">
			</image>
			<g>
				<linearGradient id="SVGID_1_" gradientUnits="userSpaceOnUse" x1="146" y1="243.4756" x2="146" y2="44.5244">
					<stop  offset="0" style="stop-color:#D9D9E2"/>
					<stop  offset="0.1772" style="stop-color:#E2E2E9"/>
					<stop  offset="0.5033" style="stop-color:#EAEAF0"/>
					<stop  offset="1" style="stop-color:#EDEDF2"/>
				</linearGradient>
				<path class="st1" d="M96.2,243.5c-17.5,0-31.7-14.2-31.7-31.7V76.2c0-17.5,14.2-31.7,31.7-31.7h99.6c17.5,0,31.7,14.2,31.7,31.7
					v135.6c0,17.5-14.2,31.7-31.7,31.7H96.2z"/>
				<path class="st7" d="M195.8,49c15,0,27.1,12.2,27.1,27.1v135.6c0,15-12.2,27.1-27.1,27.1H96.2c-15,0-27.1-12.2-27.1-27.1V76.2
					C69,61.2,81.2,49,96.2,49H195.8 M195.8,40H96.2C76.2,40,60,56.2,60,76.2v135.6c0,20,16.2,36.2,36.2,36.2h99.6
					c20,0,36.2-16.2,36.2-36.2V76.2C232,56.2,215.8,40,195.8,40L195.8,40z"/>
			</g>
		</g>
		<g>
			<rect x="142" y="95" class="st30" width="9" height="99"/>
		</g>
		<g>
			<rect x="106" y="95" class="st30" width="9" height="99"/>
		</g>
		<g>
			<rect x="178" y="95" class="st30" width="9" height="99"/>
		</g>
	</g>
</g>
<g id="Ebene_4">
</g>
</svg>
