<?xml version="1.0" encoding="utf-8"?>
<!-- Generator: Adobe Illustrator 22.0.1, SVG Export Plug-In . SVG Version: 6.00 Build 0)  -->
<svg version="1.1" xmlns="http://www.w3.org/2000/svg" xmlns:xlink="http://www.w3.org/1999/xlink" x="0px" y="0px"
	 viewBox="0 0 486 218" style="enable-background:new 0 0 486 218;" xml:space="preserve">
<style type="text/css">
	.st0{fill:#EDEDF2;}
	.st1{fill:url(#SVGID_1_);}
	.st2{fill:url(#SVGID_2_);}
	.st3{fill:url(#SVGID_3_);}
	.st4{fill:url(#SVGID_4_);}
	.st5{fill:url(#SVGID_5_);}
	.st6{fill:url(#SVGID_6_);}
	.st7{fill:#B1B1B1;}
	.st8{fill:url(#SVGID_7_);}
	.st9{fill:url(#SVGID_8_);}
	.st10{fill:url(#SVGID_9_);}
	.st11{fill:url(#SVGID_10_);}
	.st12{fill:url(#SVGID_11_);}
	.st13{fill:url(#SVGID_12_);}
	.st14{fill:url(#SVGID_13_);}
	.st15{fill:url(#SVGID_14_);}
	.st16{fill:url(#SVGID_15_);}
	.st17{fill:url(#SVGID_16_);}
	.st18{fill:url(#SVGID_17_);}
	.st19{fill:url(#SVGID_18_);}
	.st20{fill:#1E1E21;}
	.st21{fill:#D9D9E2;}
	.st22{fill:#201F43;}
	.st23{font-family:'SegoeUI';}
	.st24{font-size:92.4423px;}
	.st25{fill:url(#SVGID_19_);}
	.st26{fill:#561720;}
	.st27{fill:url(#SVGID_20_);}
	.st28{fill:url(#SVGID_21_);}
	.st29{fill:url(#SVGID_22_);}
	.st30{fill:url(#SVGID_23_);}
	.st31{fill:url(#SVGID_24_);}
	.st32{fill:#AA3636;}
	.st33{fill:#E73A3F;}
	.st34{fill:#AB3636;}
	.st35{fill:#E87D50;}
	.st36{fill:url(#SVGID_25_);}
	.st37{fill:#9C9B9B;}
	.st38{fill:url(#SVGID_26_);}
	.st39{fill:url(#SVGID_27_);}
	.st40{fill:url(#SVGID_28_);}
	.st41{fill:url(#SVGID_29_);}
	.st42{fill:url(#SVGID_30_);}
	.st43{fill:url(#SVGID_31_);}
	.st44{fill:#5C5C5C;}
	.st45{fill:url(#SVGID_32_);}
	.st46{fill:#38396D;}
	.st47{fill:url(#SVGID_33_);}
	.st48{fill:url(#SVGID_34_);}
	.st49{fill:url(#SVGID_35_);}
	.st50{fill:url(#SVGID_36_);}
	.st51{fill:#1D1D1B;}
	.st52{fill:url(#SVGID_37_);}
	.st53{fill:url(#SVGID_38_);}
	.st54{fill:url(#SVGID_39_);}
	.st55{fill:url(#SVGID_40_);}
	.st56{fill:url(#SVGID_41_);}
	.st57{fill:url(#SVGID_42_);}
	.st58{fill:url(#SVGID_43_);}
	.st59{fill:url(#SVGID_44_);}
	.st60{fill:#585784;}
	.st61{fill:#484763;}
	.st62{fill:#029B88;}
	.st63{fill:url(#SVGID_45_);}
	.st64{fill:url(#SVGID_46_);}
	.st65{fill:url(#SVGID_47_);}
	.st66{fill:url(#SVGID_48_);}
	.st67{fill:url(#SVGID_49_);}
	.st68{fill:url(#SVGID_50_);}
</style>
<g id="Hintergrund">
	<g>
		<path class="st7" d="M486,50.3v117.4c0,27.8-22.5,50.3-50.3,50.3H50.3C22.5,218,0,195.5,0,167.7V50.3C0,22.5,22.5,0,50.3,0h385.4
			C463.5,0,486,22.5,486,50.3z"/>
	</g>
</g>
<g id="Text">
	<g>
		<g>
			<text transform="matrix(0.9979 0 0 1 300.1997 137.6904)" class="st22 st23 st24">OFF</text>
		</g>
	</g>
	<g>
		<text transform="matrix(0.9979 0 0 1 33.7034 137.6914)" class="st22 st23 st24">ON</text>
	</g>
</g>
<g id="Ebene_3">
	<g>
		<path class="st32" d="M50.3,214C24.8,214,4,193.2,4,167.7V50.3C4,24.8,24.8,4,50.3,4h117.4C193.2,4,214,24.8,214,50.3v117.4
			c0,25.5-20.8,46.3-46.3,46.3H50.3z"/>
		<g>
			<path class="st26" d="M167.7,8C191,8,210,27,210,50.3v117.4c0,23.3-19,42.3-42.3,42.3H50.3C27,210,8,191,8,167.7V50.3
				C8,27,27,8,50.3,8H167.7 M167.7,0H50.3C22.5,0,0,22.5,0,50.3v117.4C0,195.5,22.5,218,50.3,218h117.4c27.8,0,50.3-22.5,50.3-50.3
				V50.3C218,22.5,195.5,0,167.7,0L167.7,0z"/>
		</g>
	</g>
</g>
<g id="Ebene_4">
</g>
</svg>
