<?xml version="1.0" encoding="utf-8"?>
<!-- Generator: Adobe Illustrator 22.0.1, SVG Export Plug-In . SVG Version: 6.00 Build 0)  -->
<svg version="1.1" xmlns="http://www.w3.org/2000/svg" xmlns:xlink="http://www.w3.org/1999/xlink" x="0px" y="0px"
	 viewBox="0 0 486 218" style="enable-background:new 0 0 486 218;" xml:space="preserve">
<style type="text/css">
	.st0{fill:#EDEDF2;}
	.st1{fill:url(#SVGID_1_);}
	.st2{fill:url(#SVGID_2_);}
	.st3{fill:url(#SVGID_3_);}
	.st4{fill:url(#SVGID_4_);}
	.st5{fill:url(#SVGID_5_);}
	.st6{fill:url(#SVGID_6_);}
	.st7{fill:#B1B1B1;}
	.st8{fill:url(#SVGID_7_);}
	.st9{fill:url(#SVGID_8_);}
	.st10{fill:url(#SVGID_9_);}
	.st11{fill:url(#SVGID_10_);}
	.st12{fill:url(#SVGID_11_);}
	.st13{fill:url(#SVGID_12_);}
	.st14{fill:url(#SVGID_13_);}
	.st15{fill:url(#SVGID_14_);}
	.st16{fill:url(#SVGID_15_);}
	.st17{fill:url(#SVGID_16_);}
	.st18{fill:url(#SVGID_17_);}
	.st19{fill:url(#SVGID_18_);}
	.st20{fill:#1E1E21;}
	.st21{fill:#D9D9E2;}
	.st22{fill:#FFFFFF;}
	.st23{font-family:'SegoeUI';}
	.st24{font-size:92.4423px;}
	.st25{fill:url(#SVGID_19_);}
	.st26{fill:#561720;}
	.st27{fill:url(#SVGID_20_);}
	.st28{fill:url(#SVGID_21_);}
	.st29{fill:url(#SVGID_22_);}
	.st30{fill:url(#SVGID_23_);}
	.st31{fill:url(#SVGID_24_);}
	.st32{fill:#AA3636;}
	.st33{fill:#E73A3F;}
	.st34{fill:#AB3636;}
	.st35{fill:#E87D50;}
	.st36{fill:url(#SVGID_25_);}
	.st37{fill:#9C9B9B;}
	.st38{fill:url(#SVGID_26_);}
	.st39{fill:url(#SVGID_27_);}
	.st40{fill:url(#SVGID_28_);}
	.st41{fill:url(#SVGID_29_);}
	.st42{fill:url(#SVGID_30_);}
	.st43{fill:url(#SVGID_31_);}
	.st44{fill:#5C5C5C;}
	.st45{fill:url(#SVGID_32_);}
	.st46{fill:#38396D;}
	.st47{fill:url(#SVGID_33_);}
	.st48{fill:url(#SVGID_34_);}
	.st49{fill:url(#SVGID_35_);}
	.st50{fill:url(#SVGID_36_);}
	.st51{fill:#1D1D1B;}
	.st52{fill:url(#SVGID_37_);}
	.st53{fill:url(#SVGID_38_);}
	.st54{fill:url(#SVGID_39_);}
	.st55{fill:url(#SVGID_40_);}
	.st56{fill:url(#SVGID_41_);}
	.st57{fill:url(#SVGID_42_);}
	.st58{fill:url(#SVGID_43_);}
	.st59{fill:url(#SVGID_44_);}
	.st60{fill:#201F43;}
	.st61{fill:#585784;}
	.st62{fill:#484763;}
	.st63{fill:#029B88;}
	.st64{fill:url(#SVGID_45_);}
	.st65{fill:url(#SVGID_46_);}
	.st66{fill:url(#SVGID_47_);}
	.st67{fill:url(#SVGID_48_);}
	.st68{fill:url(#SVGID_49_);}
	.st69{fill:url(#SVGID_50_);}
	.st134{fill:#5B5B5B;}
	.st111{fill:#EDEDF2;}
</style>
<g id="Hintergrund">
	<g>
		<linearGradient id="SVGID_1_" gradientUnits="userSpaceOnUse" x1="0" y1="109" x2="486" y2="109">
			<stop  offset="0" style="stop-color:#5C5C5C"/>
			<stop  offset="1" style="stop-color:#747474"/>
		</linearGradient>
		<path class="st111" d="M486,109L486,109c0,60.2-48.8,109-109,109H109C48.8,218,0,169.2,0,109V109C0,48.8,48.8,0,109,0L377,0
			C437.2,0,486,48.8,486,109z"/>
	</g>
</g>
<g id="Text">
	<g>
		<text transform="matrix(0.9979 0 0 1 34.7034 137.6929)" class="st134 st23 st24">ON</text>
	</g>
</g>
<g id="Ebene_3">
</g>
<g id="Ebene_4">
	<g>
		<linearGradient id="SVGID_2_" gradientUnits="userSpaceOnUse" x1="377" y1="4" x2="377" y2="214">
			<stop  offset="0" style="stop-color:#5757A2"/>
			<stop  offset="0.2652" style="stop-color:#4E4E94"/>
			<stop  offset="0.7666" style="stop-color:#37376F"/>
			<stop  offset="1" style="stop-color:#2B2B5B"/>
		</linearGradient>
		<path class="st2" d="M376.9,214C319,214,272,167,272,109.1v-0.3C272,51,319,4,376.9,4h0.3C435,4,482,51,482,108.9v0.3
			C482,167,435,214,377.1,214H376.9z"/>
		<path class="st20" d="M377.1,8C432.7,8,478,53.3,478,108.9v0.2c0,55.6-45.3,100.9-100.9,100.9h-0.3C321.3,210,276,164.7,276,109.1
			v-0.2C276,53.3,321.3,8,376.9,8H377.1 M377.1,0h-0.3C316.7,0,268,48.7,268,108.9v0.2c0,60.1,48.7,108.9,108.9,108.9h0.3
			c60.1,0,108.9-48.7,108.9-108.9v-0.2C486,48.7,437.3,0,377.1,0L377.1,0z"/>
	</g>
</g>
</svg>
