<?xml version="1.0" encoding="utf-8"?>
<!-- Generator: Adobe Illustrator 22.0.1, SVG Export Plug-In . SVG Version: 6.00 Build 0)  -->
<svg version="1.1" xmlns="http://www.w3.org/2000/svg" xmlns:xlink="http://www.w3.org/1999/xlink" x="0px" y="0px"
	 viewBox="0 0 637 355" style="enable-background:new 0 0 637 355;" xml:space="preserve">
<style type="text/css">
	.st0{fill:#EDEDF2;}
	.st1{fill:url(#SVGID_1_);}
	.st2{fill:url(#SVGID_2_);}
	.st3{fill:url(#SVGID_3_);}
	.st4{fill:url(#SVGID_4_);}
	.st5{fill:url(#SVGID_5_);}
	.st6{fill:url(#SVGID_6_);}
	.st7{fill:#B1B1B1;}
	.st8{fill:url(#SVGID_7_);}
	.st9{fill:url(#SVGID_8_);}
	.st10{fill:url(#SVGID_9_);}
	.st11{fill:url(#SVGID_10_);}
	.st12{fill:url(#SVGID_11_);}
	.st13{fill:url(#SVGID_12_);}
	.st14{fill:url(#SVGID_13_);}
	.st15{fill:url(#SVGID_14_);}
	.st16{fill:url(#SVGID_15_);}
	.st17{fill:url(#SVGID_16_);}
	.st18{fill:url(#SVGID_17_);}
	.st19{fill:url(#SVGID_18_);}
	.st20{fill:#1E1E21;}
	.st21{fill:#D9D9E2;}
	.st22{font-family:'SegoeUI';}
	.st23{font-size:76.6366px;}
	.st24{fill:url(#SVGID_19_);}
	.st25{fill:#561720;}
	.st26{fill:url(#SVGID_20_);}
	.st27{fill:url(#SVGID_21_);}
	.st28{fill:url(#SVGID_22_);}
	.st29{fill:url(#SVGID_23_);}
	.st30{fill:url(#SVGID_24_);}
	.st31{fill:#AA3636;}
	.st32{fill:#E73A3F;}
	.st33{fill:#AB3636;}
	.st34{fill:#E87D50;}
	.st35{fill:url(#SVGID_25_);}
	.st36{fill:#9C9B9B;}
	.st37{fill:url(#SVGID_26_);}
	.st38{fill:url(#SVGID_27_);}
	.st39{fill:url(#SVGID_28_);}
	.st40{fill:url(#SVGID_29_);}
	.st41{fill:url(#SVGID_30_);}
	.st42{fill:url(#SVGID_31_);}
	.st43{fill:#5C5C5C;}
	.st44{fill:url(#SVGID_32_);}
	.st45{fill:#38396D;}
	.st46{fill:url(#SVGID_33_);}
	.st47{fill:url(#SVGID_34_);}
	.st48{fill:url(#SVGID_35_);}
	.st49{fill:url(#SVGID_36_);}
	.st50{fill:#1D1D1B;}
	.st51{fill:url(#SVGID_37_);}
	.st52{fill:url(#SVGID_38_);}
	.st53{fill:url(#SVGID_39_);}
	.st54{fill:url(#SVGID_40_);}
	.st55{fill:url(#SVGID_41_);}
	.st56{fill:url(#SVGID_42_);}
	.st57{fill:url(#SVGID_43_);}
	.st58{fill:url(#SVGID_44_);}
	.st59{fill:#201F43;}
	.st60{fill:#585784;}
	.st61{fill:#484763;}
	.st62{fill:#029B88;}
	.st63{fill:url(#SVGID_45_);}
	.st64{fill:url(#SVGID_46_);}
	.st65{fill:url(#SVGID_47_);}
	.st66{fill:url(#SVGID_48_);}
	.st67{fill:url(#SVGID_49_);}
	.st68{fill:url(#SVGID_50_);}
</style>
<g id="Hintergrund">
	<path class="st7" d="M452,34.1H170.1c-67.6,0-123,55.3-123,123v0c0,67.6,55.3,123,123,123H452c67.6,0,123-55.3,123-123v0
		C575,89.4,519.7,34.1,452,34.1z"/>
	<g>
		<linearGradient id="SVGID_1_" gradientUnits="userSpaceOnUse" x1="309.7651" y1="67.07" x2="309.7651" y2="247.0706">
			<stop  offset="0" style="stop-color:#D9D9E2"/>
			<stop  offset="0.1772" style="stop-color:#E2E2E9"/>
			<stop  offset="0.5033" style="stop-color:#EAEAF0"/>
			<stop  offset="1" style="stop-color:#EDEDF2"/>
		</linearGradient>
		<path class="st1" d="M480.1,72c-51.5-16.9-99.7,11.3-115.1,55H254.6c-15.5-43.8-63.7-72-115.4-54.9c-25.9,8.6-46.4,29.4-54.7,55.4
			c-19.9,62.3,26,119.6,85.3,119.6c39.2,0,72.4-25.1,84.8-60H365c12.4,34.9,45.6,60,84.8,60c59.8,0,105.9-58.3,84.8-121.1
			C525.9,100.5,505.6,80.4,480.1,72z"/>
		<linearGradient id="SVGID_2_" gradientUnits="userSpaceOnUse" x1="309.7651" y1="247.0706" x2="309.7651" y2="67.0701">
			<stop  offset="0" style="stop-color:#C0C0C0"/>
			<stop  offset="0.335" style="stop-color:#BDBDBE"/>
			<stop  offset="0.5552" style="stop-color:#B4B5B7"/>
			<stop  offset="0.7424" style="stop-color:#A6A6AB"/>
			<stop  offset="0.9101" style="stop-color:#91919B"/>
			<stop  offset="1" style="stop-color:#82828F"/>
		</linearGradient>
		<path class="st2" d="M449.7,73.1c9.5,0,19.1,1.6,28.5,4.7c23.7,7.8,42.7,26.5,50.6,50.1c9.2,27.3,5.2,55.8-10.8,78.1
			c-15.8,21.9-41.3,35-68.3,35c-35.5,0-67.3-22.5-79.1-56l-1.4-4H365H254.6h-4.2l-1.4,4c-11.9,33.5-43.7,56-79.1,56
			c-13.6,0-26.7-3.2-38.7-9.4c-11.5-6-21.6-14.6-29.2-25.1c-16.1-22-20.3-50.2-11.7-77.2C98,105,117,85.8,141.1,77.8
			c9.5-3.2,19.2-4.7,28.7-4.7c35.5,0,67.3,22.5,79.1,56l1.4,4h4.2H365h4.2l1.4-4C382.5,95.6,414.3,73.1,449.7,73.1 M449.7,67.1
			c-39.2,0-72.4,25.1-84.8,60H254.6c-12.4-34.9-45.6-60-84.8-60c-9.9,0-20.2,1.6-30.6,5.1c-25.9,8.6-46.4,29.4-54.7,55.4
			c-19.9,62.3,26,119.6,85.3,119.6c39.2,0,72.4-25.1,84.8-60H365c12.4,34.9,45.6,60,84.8,60c59.8,0,105.9-58.3,84.8-121.1
			c-8.6-25.5-28.9-45.5-54.4-53.9C469.7,68.6,459.5,67.1,449.7,67.1L449.7,67.1z"/>
	</g>
</g>
<g id="Text">
	<g>
		<text transform="matrix(1 0 0 1 119.5088 181.4883)" class="st7 st22 st23">Off</text>
	</g>
</g>
<g id="Ebene_3">
</g>
<g id="Ebene_4">
	<g>
		<g>
			
				<image style="overflow:visible;opacity:0.5;" width="355" height="355" xlink:href="://images/system_views/dashboards/icons/D363953D.png"  transform="matrix(1 0 0 1 282 0)">
			</image>
			<g>
				
					<linearGradient id="SVGID_3_" gradientUnits="userSpaceOnUse" x1="-5131.4302" y1="269.7422" x2="-5131.4302" y2="43.3984" gradientTransform="matrix(-1 0 0 1 -4678.8594 0)">
					<stop  offset="0" style="stop-color:#D9D9E2"/>
					<stop  offset="0.1772" style="stop-color:#E2E2E9"/>
					<stop  offset="0.5033" style="stop-color:#EAEAF0"/>
					<stop  offset="1" style="stop-color:#EDEDF2"/>
				</linearGradient>
				<circle class="st3" cx="452.6" cy="156.6" r="113.2"/>
				<path class="st36" d="M452.6,46.7c29.3,0,56.9,11.4,77.7,32.2s32.2,48.3,32.2,77.7s-11.4,56.9-32.2,77.7s-48.3,32.2-77.7,32.2
					s-56.9-11.4-77.7-32.2c-20.7-20.7-32.2-48.3-32.2-77.7s11.4-56.9,32.2-77.7C395.6,58.2,423.2,46.7,452.6,46.7 M452.6,40.1
					c-64.3,0-116.5,52.2-116.5,116.5s52.2,116.5,116.5,116.5s116.5-52.2,116.5-116.5S516.9,40.1,452.6,40.1L452.6,40.1z"/>
			</g>
		</g>
		<g>
			
				<linearGradient id="SVGID_4_" gradientUnits="userSpaceOnUse" x1="-5305.4297" y1="6789.0703" x2="-5305.4297" y2="6636.0703" gradientTransform="matrix(-1 0 0 -1 -4852.8594 6869.1406)">
				<stop  offset="0" style="stop-color:#D9D9E2"/>
				<stop  offset="0.1772" style="stop-color:#E2E2E9"/>
				<stop  offset="0.5033" style="stop-color:#EAEAF0"/>
				<stop  offset="1" style="stop-color:#EDEDF2"/>
			</linearGradient>
			<circle class="st4" cx="452.6" cy="156.6" r="76.5"/>
		</g>
		<g>
			<text transform="matrix(1 0 0 1 396.9536 180.4883)" class="st43 st22 st23">On</text>
		</g>
	</g>
</g>
</svg>
