<?xml version="1.0" encoding="utf-8"?>
<!-- Generator: Adobe Illustrator 22.0.1, SVG Export Plug-In . SVG Version: 6.00 Build 0)  -->
<svg version="1.1" xmlns="http://www.w3.org/2000/svg" xmlns:xlink="http://www.w3.org/1999/xlink" x="0px" y="0px"
	 viewBox="0 0 486 218" style="enable-background:new 0 0 486 218;" xml:space="preserve">
<style type="text/css">
	.st0{fill:#EDEDF2;}
	.st1{fill:url(#SVGID_1_);}
	.st2{fill:url(#SVGID_2_);}
	.st3{fill:url(#SVGID_3_);}
	.st4{fill:url(#SVGID_4_);}
	.st5{fill:url(#SVGID_5_);}
	.st6{fill:url(#SVGID_6_);}
	.st7{fill:#B1B1B1;}
	.st8{fill:url(#SVGID_7_);}
	.st9{fill:url(#SVGID_8_);}
	.st10{fill:url(#SVGID_9_);}
	.st11{fill:url(#SVGID_10_);}
	.st12{fill:url(#SVGID_11_);}
	.st13{fill:url(#SVGID_12_);}
	.st14{fill:url(#SVGID_13_);}
	.st15{fill:url(#SVGID_14_);}
	.st16{fill:url(#SVGID_15_);}
	.st17{fill:url(#SVGID_16_);}
	.st18{fill:url(#SVGID_17_);}
	.st19{fill:url(#SVGID_18_);}
	.st20{fill:#1E1E21;}
	.st21{fill:#D9D9E2;}
	.st22{fill:#FFFFFF;}
	.st23{font-family:'SegoeUI';}
	.st24{font-size:92.4423px;}
	.st25{fill:url(#SVGID_19_);}
	.st26{fill:#561720;}
	.st27{fill:url(#SVGID_20_);}
	.st28{fill:url(#SVGID_21_);}
	.st29{fill:url(#SVGID_22_);}
	.st30{fill:url(#SVGID_23_);}
	.st31{fill:url(#SVGID_24_);}
	.st32{fill:#AA3636;}
	.st33{fill:#E73A3F;}
	.st34{fill:#AB3636;}
	.st35{fill:#E87D50;}
	.st36{fill:url(#SVGID_25_);}
	.st37{fill:#9C9B9B;}
	.st38{fill:url(#SVGID_26_);}
	.st39{fill:url(#SVGID_27_);}
	.st40{fill:url(#SVGID_28_);}
	.st41{fill:url(#SVGID_29_);}
	.st42{fill:url(#SVGID_30_);}
	.st43{fill:url(#SVGID_31_);}
	.st44{fill:#5C5C5C;}
	.st45{fill:url(#SVGID_32_);}
	.st46{fill:#38396D;}
	.st47{fill:url(#SVGID_33_);}
	.st48{fill:url(#SVGID_34_);}
	.st49{fill:url(#SVGID_35_);}
	.st50{fill:url(#SVGID_36_);}
	.st51{fill:#1D1D1B;}
	.st52{fill:url(#SVGID_37_);}
	.st53{fill:url(#SVGID_38_);}
	.st54{fill:url(#SVGID_39_);}
	.st55{fill:url(#SVGID_40_);}
	.st56{fill:url(#SVGID_41_);}
	.st57{fill:url(#SVGID_42_);}
	.st58{fill:url(#SVGID_43_);}
	.st59{fill:url(#SVGID_44_);}
	.st60{fill:#201F43;}
	.st61{fill:#585784;}
	.st62{fill:#484763;}
	.st63{fill:#029B88;}
	.st64{fill:url(#SVGID_45_);}
	.st65{fill:url(#SVGID_46_);}
	.st66{fill:url(#SVGID_47_);}
	.st67{fill:url(#SVGID_48_);}
	.st68{fill:url(#SVGID_49_);}
	.st69{fill:url(#SVGID_50_);}
	.st134{fill:#5B5B5B;}
	.st111{fill:#EDEDF2;}
</style>
<g id="Hintergrund">
	<g>
		<linearGradient id="SVGID_1_" gradientUnits="userSpaceOnUse" x1="0" y1="109" x2="486" y2="109">
			<stop  offset="0" style="stop-color:#5C5C5C"/>
			<stop  offset="1" style="stop-color:#747474"/>
		</linearGradient>
		<path class="st111" d="M486,51.3v115.3c0,28.4-23,51.3-51.3,51.3H51.3C23,218,0,195,0,166.7V51.3C0,23,23,0,51.3,0h383.3
			C463,0,486,23,486,51.3z"/>
	</g>
</g>
<g id="Text">
	<g>
		<g>
			<text transform="matrix(0.9979 0 0 1 300.1997 137.6895)" class="st134 st23 st24">OFF</text>
		</g>
	</g>
</g>
<g id="Ebene_3">
	<g>
		<linearGradient id="SVGID_2_" gradientUnits="userSpaceOnUse" x1="109" y1="214" x2="109" y2="4">
			<stop  offset="0" style="stop-color:#8E4659"/>
			<stop  offset="1" style="stop-color:#AA3636"/>
		</linearGradient>
		<path class="st2" d="M51.4,214C25.2,214,4,192.8,4,166.6V51.4C4,25.2,25.2,4,51.4,4h115.3C192.8,4,214,25.2,214,51.4v115.3
			c0,26.1-21.2,47.4-47.4,47.4H51.4z"/>
		<g>
			<path class="st26" d="M166.6,8C190.6,8,210,27.4,210,51.4v115.3c0,23.9-19.4,43.4-43.4,43.4H51.4C27.4,210,8,190.6,8,166.6V51.4
				C8,27.4,27.4,8,51.4,8H166.6 M166.6,0H51.4C23,0,0,23,0,51.4v115.3C0,195,23,218,51.4,218h115.3c28.4,0,51.4-23,51.4-51.4V51.4
				C218,23,195,0,166.6,0L166.6,0z"/>
		</g>
	</g>
</g>
<g id="Ebene_4">
</g>
</svg>
