<?xml version="1.0" encoding="utf-8"?>
<!-- Generator: Adobe Illustrator 22.0.1, SVG Export Plug-In . SVG Version: 6.00 Build 0)  -->
<svg version="1.1" xmlns="http://www.w3.org/2000/svg" xmlns:xlink="http://www.w3.org/1999/xlink" x="0px" y="0px"
	 viewBox="0 0 635 355" style="enable-background:new 0 0 635 355;" xml:space="preserve">
<style type="text/css">
	.st0{fill:#EDEDF2;}
	.st1{fill:url(#SVGID_1_);}
	.st2{fill:url(#SVGID_2_);}
	.st3{fill:url(#SVGID_3_);}
	.st4{fill:url(#SVGID_4_);}
	.st5{fill:url(#SVGID_5_);}
	.st6{fill:url(#SVGID_6_);}
	.st7{fill:#B1B1B1;}
	.st8{fill:url(#SVGID_7_);}
	.st9{fill:url(#SVGID_8_);}
	.st10{fill:url(#SVGID_9_);}
	.st11{fill:url(#SVGID_10_);}
	.st12{fill:url(#SVGID_11_);}
	.st13{fill:url(#SVGID_12_);}
	.st14{fill:url(#SVGID_13_);}
	.st15{fill:url(#SVGID_14_);}
	.st16{fill:url(#SVGID_15_);}
	.st17{fill:url(#SVGID_16_);}
	.st18{fill:url(#SVGID_17_);}
	.st19{fill:url(#SVGID_18_);}
	.st20{fill:#1E1E21;}
	.st21{fill:#D9D9E2;}
	.st22{font-family:'SegoeUI';}
	.st23{font-size:76.6366px;}
	.st24{fill:url(#SVGID_19_);}
	.st25{fill:#561720;}
	.st26{fill:url(#SVGID_20_);}
	.st27{fill:url(#SVGID_21_);}
	.st28{fill:url(#SVGID_22_);}
	.st29{fill:url(#SVGID_23_);}
	.st30{fill:url(#SVGID_24_);}
	.st31{fill:#AA3636;}
	.st32{fill:#E73A3F;}
	.st33{fill:#AB3636;}
	.st34{fill:#E87D50;}
	.st35{fill:url(#SVGID_25_);}
	.st36{fill:#9C9B9B;}
	.st37{fill:url(#SVGID_26_);}
	.st38{fill:url(#SVGID_27_);}
	.st39{fill:url(#SVGID_28_);}
	.st40{fill:url(#SVGID_29_);}
	.st41{fill:url(#SVGID_30_);}
	.st42{fill:url(#SVGID_31_);}
	.st43{fill:#5C5C5C;}
	.st44{fill:url(#SVGID_32_);}
	.st45{fill:#38396D;}
	.st46{fill:url(#SVGID_33_);}
	.st47{fill:url(#SVGID_34_);}
	.st48{fill:url(#SVGID_35_);}
	.st49{fill:url(#SVGID_36_);}
	.st50{fill:#1D1D1B;}
	.st51{fill:url(#SVGID_37_);}
	.st52{fill:url(#SVGID_38_);}
	.st53{fill:url(#SVGID_39_);}
	.st54{fill:url(#SVGID_40_);}
	.st55{fill:url(#SVGID_41_);}
	.st56{fill:url(#SVGID_42_);}
	.st57{fill:url(#SVGID_43_);}
	.st58{fill:url(#SVGID_44_);}
	.st59{fill:#201F43;}
	.st60{fill:#585784;}
	.st61{fill:#484763;}
	.st62{fill:#029B88;}
	.st63{fill:url(#SVGID_45_);}
	.st64{fill:url(#SVGID_46_);}
	.st65{fill:url(#SVGID_47_);}
	.st66{fill:url(#SVGID_48_);}
	.st67{fill:url(#SVGID_49_);}
	.st68{fill:url(#SVGID_50_);}
	.st69{fill:#FBFBFB;}
</style>
<g id="Hintergrund">
	<g>
		<linearGradient id="SVGID_1_" gradientUnits="userSpaceOnUse" x1="310.0703" y1="246.0706" x2="310.0703" y2="66.07">
			<stop  offset="0" style="stop-color:#2F3036"/>
			<stop  offset="1" style="stop-color:#5B5B5B"/>
		</linearGradient>
		<path class="st1" d="M480.4,71c-51.5-16.9-99.7,11.3-115.1,55H254.9c-15.5-43.7-63.6-72-115.1-55c-25.6,8.4-45.8,28.4-54.4,53.9
			c-21.1,62.8,25,121.1,84.8,121.1c39.2,0,72.4-25.1,84.8-60h110.4c12.4,34.9,45.6,60,84.8,60c59.8,0,105.9-58.3,84.8-121.1
			C526.2,99.5,506,79.4,480.4,71z"/>
		<linearGradient id="SVGID_2_" gradientUnits="userSpaceOnUse" x1="310.0703" y1="246.0706" x2="310.0703" y2="66.0701">
			<stop  offset="0" style="stop-color:#82828F"/>
			<stop  offset="1" style="stop-color:#1E1E21"/>
		</linearGradient>
		<path class="st2" d="M170.1,66.1l0,6c35.5,0,67.3,22.5,79.1,56l1.4,4h4.2h110.4h4.2l1.4-4c11.9-33.5,43.7-56,79.1-56
			c9.5,0,19.1,1.6,28.5,4.7c23.7,7.8,42.7,26.5,50.6,50.1c9.2,27.3,5.2,55.8-10.8,78.1c-15.8,21.9-41.3,35-68.3,35
			c-35.5,0-67.3-22.5-79.1-56l-1.4-4h-4.2H254.9h-4.2l-1.4,4c-11.9,33.5-43.7,56-79.1,56c-27,0-52.5-13.1-68.3-35
			c-16.1-22.4-20-50.8-10.8-78.1c7.9-23.6,26.9-42.3,50.6-50.1c9.4-3.1,19-4.7,28.5-4.7V66.1 M170.1,66.1c-9.8,0-20,1.6-30.4,5
			c-25.6,8.4-45.8,28.4-54.4,53.9c-21.1,62.8,25,121.1,84.8,121.1c39.2,0,72.4-25.1,84.8-60h110.4c12.4,34.9,45.6,60,84.8,60
			c59.8,0,105.9-58.3,84.8-121.1C526.2,99.5,506,79.4,480.4,71c-10.3-3.4-20.5-5-30.4-5c-39.2,0-72.4,25.1-84.8,60H254.9
			C242.5,91.1,209.3,66.1,170.1,66.1L170.1,66.1z"/>
	</g>
</g>
<g id="Text">
	<g>
		<text transform="matrix(1 0 0 1 119.8149 180.4493)" class="st7 st22 st23">Off</text>
	</g>
</g>
<g id="Ebene_3">
</g>
<g id="Ebene_4">
	<g>
		<g>
			
				<image style="overflow:visible;opacity:0.5;" width="355" height="355" xlink:href="://images/system_views/dashboards/icons/5CE5F052.png"  transform="matrix(1 0 0 1 280 0)">
			</image>
			<g>
				
					<linearGradient id="SVGID_3_" gradientUnits="userSpaceOnUse" x1="-5133.4297" y1="273.0703" x2="-5133.4297" y2="40.0703" gradientTransform="matrix(-1 0 0 1 -4682.8594 0)">
					<stop  offset="0" style="stop-color:#2F3036"/>
					<stop  offset="1" style="stop-color:#5B5B5B"/>
				</linearGradient>
				<circle class="st3" cx="450.6" cy="156.6" r="116.5"/>
			</g>
		</g>
		<g>
			
				<linearGradient id="SVGID_4_" gradientUnits="userSpaceOnUse" x1="-5307.4297" y1="5997.0703" x2="-5307.4297" y2="5844.0703" gradientTransform="matrix(-1 0 0 -1 -4856.8594 6077.1406)">
				<stop  offset="0" style="stop-color:#2F3036"/>
				<stop  offset="1" style="stop-color:#5B5B5B"/>
			</linearGradient>
			<circle class="st4" cx="450.6" cy="156.6" r="76.5"/>
		</g>
		<g>
			<text transform="matrix(1 0 0 1 395.4419 180.6289)" class="st69 st22 st23">On</text>
		</g>
	</g>
</g>
</svg>
