<?xml version="1.0" encoding="utf-8"?>
<!-- Generator: Adobe Illustrator 22.0.1, SVG Export Plug-In . SVG Version: 6.00 Build 0)  -->
<svg version="1.1" id="Ebene_1" xmlns="http://www.w3.org/2000/svg" xmlns:xlink="http://www.w3.org/1999/xlink" x="0px" y="0px"
	 viewBox="0 0 24 24" style="enable-background:new 0 0 24 24;" xml:space="preserve">
<style type="text/css">
	.st0{fill:none;}
	.st1{fill:#7F7F92;}
</style>
<title>Element 173</title>
<g id="Ebene_2_1_">
	<g id="Platzhalter">
		<rect y="0" class="st0" width="24" height="24"/>
	</g>
	<g id="Ebene_1-2">
		<path class="st1" d="M17.3,2.8c0,0,0.9,0.1,2.3,1.6s1.6,2.3,1.6,2.3L23,4.8c0,0-0.1-0.8-1.6-2.3s-2.3-1.6-2.3-1.6L17.3,2.8z"/>
		<path class="st1" d="M6.8,21c0,0-0.1-0.8-1.6-2.3s-2.3-1.6-2.3-1.6s-2.4,5.1-1.8,5.7S6.8,21,6.8,21z"/>
		<path class="st1" d="M3.9,16.1c0,0,0.8,0.1,2.3,1.6S7.8,20,7.8,20L20.3,7.6c0,0-0.1-0.8-1.6-2.3C18,4.5,17.3,4,16.4,3.7L3.9,16.1z
			"/>
	</g>
</g>
</svg>
