<?xml version="1.0" encoding="utf-8"?>
<!-- Generator: Adobe Illustrator 23.0.1, SVG Export Plug-In . SVG Version: 6.00 Build 0)  -->
<svg version="1.1" xmlns="http://www.w3.org/2000/svg" xmlns:xlink="http://www.w3.org/1999/xlink" x="0px" y="0px"
	 viewBox="0 0 30 30" style="enable-background:new 0 0 30 30;" xml:space="preserve">
<style type="text/css">
	.st0{display:none;}
	.st1{display:inline;opacity:0.2;fill:#FF0000;}
	.st2{fill:#CECED9;}
	.st3{fill:#5757AA;}
	.st4{fill:#9B9BAA;}
	.st5{fill:#5EA343;}
	.st6{fill:#7F7FBB;}
	.st7{opacity:0.2;fill:none;}
	.st8{fill:#E63A3F;}
	.st9{fill:#FFFFFF;}
	.st10{fill:#FAFAFA;}
	.st11{fill:none;stroke:#5757AA;stroke-width:2;stroke-linecap:round;stroke-miterlimit:10;}
	.st12{fill:#CBEBC1;}
	.st13{fill:#38396D;}
	.st14{fill:#82828F;}
	.st15{fill:#EDEDF2;}
	.st16{fill:url(#SVGID_1_);}
	.st17{fill:url(#SVGID_2_);}
	.st18{fill:url(#SVGID_3_);}
	.st19{fill:url(#SVGID_4_);}
	.st20{fill:none;stroke:#5757AA;stroke-width:1.8947;stroke-miterlimit:10;}
	.st21{fill:#CCCCCC;stroke:#CECED9;stroke-miterlimit:10;}
	.st22{fill:none;stroke:#CECED9;stroke-width:1.6733;stroke-linecap:round;stroke-miterlimit:10;}
	.st23{fill:#E1E1E5;}
	.st24{fill:#39396D;}
	.st25{fill:url(#SVGID_5_);}
	.st26{fill:#2B2B5B;}
	.st27{fill:url(#SVGID_6_);}
	.st28{fill:url(#SVGID_7_);}
	.st29{fill:#201F43;}
	.st30{fill:none;stroke:#FFFFFF;stroke-width:3;stroke-miterlimit:10;}
	.st31{opacity:0.6;fill:#FFFFFF;}
	.st32{opacity:0.4;fill:#FFFFFF;}
	.st33{opacity:0.8;fill:#FFFFFF;}
	.st34{opacity:0.3;fill:#FFFFFF;}
	.st35{opacity:0.7;fill:#FFFFFF;}
	.st36{opacity:0.9;fill:#FFFFFF;}
	.st37{opacity:0.5;fill:#FFFFFF;}
	.st38{opacity:0.6;fill:#5757AA;}
	.st39{opacity:0.4;fill:#5757AA;}
	.st40{opacity:0.8;fill:#5757AA;}
	.st41{opacity:0.3;fill:#5757AA;}
	.st42{opacity:0.7;fill:#5757AA;}
	.st43{opacity:0.9;fill:#5757AA;}
	.st44{opacity:0.5;fill:#5757AA;}
	.st45{opacity:0.6;}
	.st46{opacity:0.4;}
	.st47{opacity:0.8;}
	.st48{opacity:0.3;}
	.st49{opacity:0.7;}
	.st50{opacity:0.9;}
	.st51{opacity:0.5;}
	.st52{display:inline;}
</style>
<g id="background" class="st0">
</g>
<g id="Icons">
	<g>
		<g>
			<path class="st13" d="M10.6,17.8H9v-1.3h0c-0.5,1-1.3,1.5-2.3,1.5c-0.8,0-1.5-0.3-2-1C4.2,16.3,4,15.4,4,14.3
				c0-1.2,0.3-2.2,0.8-3c0.6-0.7,1.3-1.1,2.2-1.1c0.9,0,1.6,0.4,2,1.2h0V6.7h1.5V17.8z M9.1,14.4v-1c0-0.5-0.2-1-0.5-1.4
				s-0.7-0.6-1.2-0.6c-0.6,0-1,0.2-1.3,0.7c-0.3,0.5-0.5,1.1-0.5,2c0,0.8,0.2,1.4,0.5,1.8c0.3,0.4,0.7,0.7,1.3,0.7
				c0.5,0,0.9-0.2,1.3-0.6C8.9,15.6,9.1,15,9.1,14.4z"/>
			<path class="st13" d="M18.6,14.5H14c0,0.7,0.2,1.2,0.6,1.6c0.4,0.4,0.9,0.6,1.5,0.6c0.7,0,1.4-0.2,2-0.7v1.4
				c-0.6,0.4-1.4,0.6-2.4,0.6c-1,0-1.8-0.3-2.3-1c-0.6-0.7-0.8-1.6-0.8-2.9c0-1.2,0.3-2.1,0.9-2.9c0.6-0.7,1.4-1.1,2.3-1.1
				s1.6,0.3,2.1,1s0.8,1.6,0.8,2.7V14.5z M17.1,13.3c0-0.6-0.1-1.1-0.4-1.4s-0.6-0.5-1.1-0.5c-0.4,0-0.8,0.2-1.1,0.5
				c-0.3,0.4-0.5,0.8-0.6,1.4H17.1z"/>
			<path class="st13" d="M25.1,17.5c-0.5,0.3-1.2,0.5-1.9,0.5c-1,0-1.8-0.3-2.4-1c-0.6-0.7-0.9-1.6-0.9-2.7c0-1.2,0.3-2.2,1-3
				c0.7-0.7,1.5-1.1,2.7-1.1c0.6,0,1.2,0.1,1.6,0.4v1.6c-0.5-0.4-1-0.6-1.5-0.6c-0.6,0-1.2,0.2-1.6,0.7s-0.6,1.1-0.6,1.9
				c0,0.8,0.2,1.4,0.6,1.8c0.4,0.4,0.9,0.7,1.6,0.7c0.5,0,1.1-0.2,1.6-0.7V17.5z"/>
		</g>
		<rect x="3" y="21" class="st3" width="24" height="2"/>
	</g>
</g>
<g id="Linien" class="st0">
	<g class="st52">
		<path class="st8" d="M253-40v77H-6v-77H253 M254-41H-7v79h261V-41L254-41z"/>
	</g>
</g>
</svg>
