<?xml version="1.0" encoding="utf-8"?>
<!-- Generator: Adobe Illustrator 23.0.1, SVG Export Plug-In . SVG Version: 6.00 Build 0)  -->
<svg version="1.1" xmlns="http://www.w3.org/2000/svg" xmlns:xlink="http://www.w3.org/1999/xlink" x="0px" y="0px"
	 viewBox="0 0 21 21" style="enable-background:new 0 0 21 21;" xml:space="preserve">
<style type="text/css">
	.st0{display:none;}
	.st1{display:inline;opacity:0.2;fill:#FF0000;}
	.st2{fill:#CECED9;}
	.st3{fill:#5757AA;}
	.st4{fill:#9B9BAA;}
	.st5{fill:#5EA343;}
	.st6{fill:#7F7FBB;}
	.st7{opacity:0.2;fill:none;}
	.st8{fill:#E63A3F;}
	.st9{fill:#FFFFFF;}
	.st10{fill:#FAFAFA;}
	.st11{fill:none;stroke:#5757AA;stroke-width:2;stroke-linecap:round;stroke-miterlimit:10;}
	.st12{fill:#CBEBC1;}
	.st13{fill:#38396D;}
	.st14{fill:#82828F;}
	.st15{fill:#EDEDF2;}
	.st16{fill:url(#SVGID_1_);}
	.st17{fill:url(#SVGID_2_);}
	.st18{fill:url(#SVGID_3_);}
	.st19{fill:url(#SVGID_4_);}
	.st20{fill:none;stroke:#5757AA;stroke-width:1.8947;stroke-miterlimit:10;}
	.st21{fill:#CCCCCC;stroke:#CECED9;stroke-miterlimit:10;}
	.st22{fill:none;stroke:#CECED9;stroke-width:1.6733;stroke-linecap:round;stroke-miterlimit:10;}
	.st23{fill:#E1E1E5;}
	.st24{fill:#39396D;}
	.st25{fill:url(#SVGID_5_);}
	.st26{fill:#2B2B5B;}
	.st27{fill:url(#SVGID_6_);}
	.st28{fill:url(#SVGID_7_);}
	.st29{fill:#201F43;}
	.st30{fill:none;stroke:#FFFFFF;stroke-width:3;stroke-miterlimit:10;}
	.st31{opacity:0.6;fill:#FFFFFF;}
	.st32{opacity:0.4;fill:#FFFFFF;}
	.st33{opacity:0.8;fill:#FFFFFF;}
	.st34{opacity:0.3;fill:#FFFFFF;}
	.st35{opacity:0.7;fill:#FFFFFF;}
	.st36{opacity:0.9;fill:#FFFFFF;}
	.st37{opacity:0.5;fill:#FFFFFF;}
	.st38{opacity:0.6;fill:#5757AA;}
	.st39{opacity:0.4;fill:#5757AA;}
	.st40{opacity:0.8;fill:#5757AA;}
	.st41{opacity:0.3;fill:#5757AA;}
	.st42{opacity:0.7;fill:#5757AA;}
	.st43{opacity:0.9;fill:#5757AA;}
	.st44{opacity:0.5;fill:#5757AA;}
	.st45{opacity:0.6;}
	.st46{opacity:0.4;}
	.st47{opacity:0.8;}
	.st48{opacity:0.3;}
	.st49{opacity:0.7;}
	.st50{opacity:0.9;}
	.st51{opacity:0.5;}
	.st52{display:inline;}
</style>
<g id="background" class="st6">
</g>
<g id="Icons">
	<g>
		<ellipse class="st3" cx="12" cy="5" rx="6" ry="2"/>
		<path class="st3" d="M6,9.3c0,1,2.7,1.7,6,1.7s6-0.8,6-1.7V7c0,1-2.7,1.7-6,1.7S6,8,6,7V9.3z"/>
	</g>
	<path class="st3" d="M12,12.7c-0.7,0-1.4,0-2-0.1v2.3c0.6,0.1,1.3,0.1,2,0.1c3.3,0,6-0.8,6-1.7V11C18,12,15.3,12.7,12,12.7z"/>
	<g>
		<rect x="2" y="15" class="st3" width="7" height="1"/>
	</g>
	<g>
		<rect x="5" y="12" class="st3" width="1" height="7"/>
	</g>
	<path class="st3" d="M12,16.7c-0.7,0-1.4,0-2-0.1v2.3c0.6,0.1,1.3,0.1,2,0.1c3.3,0,6-0.8,6-1.7V15C18,16,15.3,16.7,12,16.7z"/>
</g>
<g id="Linien" class="st0">
	<g class="st52">
		<g>
			<path class="st8" d="M280-4v32H-9V-4H280 M281-5H-10v34h291V-5L281-5z"/>
		</g>
	</g>
</g>
</svg>
