<?xml version="1.0" encoding="utf-8"?>
<!-- Generator: Adobe Illustrator 23.0.1, SVG Export Plug-In . SVG Version: 6.00 Build 0)  -->
<svg version="1.1" xmlns="http://www.w3.org/2000/svg" xmlns:xlink="http://www.w3.org/1999/xlink" x="0px" y="0px"
	 viewBox="0 0 21 21" style="enable-background:new 0 0 21 21;" xml:space="preserve">
<style type="text/css">
	.st0{display:none;}
	.st1{display:inline;opacity:0.2;fill:#FF0000;}
	.st2{fill:#CECED9;}
	.st3{fill:#5757AA;}
	.st4{fill:#9B9BAA;}
	.st5{fill:#5EA343;}
	.st6{fill:#7F7FBB;}
	.st7{opacity:0.2;fill:none;}
	.st8{fill:#E63A3F;}
	.st9{fill:#FFFFFF;}
	.st10{fill:#FAFAFA;}
	.st11{fill:none;stroke:#5757AA;stroke-width:2;stroke-linecap:round;stroke-miterlimit:10;}
	.st12{fill:#CBEBC1;}
	.st13{fill:#38396D;}
	.st14{fill:#82828F;}
	.st15{fill:#EDEDF2;}
	.st16{fill:url(#SVGID_1_);}
	.st17{fill:url(#SVGID_2_);}
	.st18{fill:url(#SVGID_3_);}
	.st19{fill:url(#SVGID_4_);}
	.st20{fill:none;stroke:#5757AA;stroke-width:1.8947;stroke-miterlimit:10;}
	.st21{fill:#CCCCCC;stroke:#CECED9;stroke-miterlimit:10;}
	.st22{fill:none;stroke:#CECED9;stroke-width:1.6733;stroke-linecap:round;stroke-miterlimit:10;}
	.st23{fill:#E1E1E5;}
	.st24{fill:#39396D;}
	.st25{fill:url(#SVGID_5_);}
	.st26{fill:#2B2B5B;}
	.st27{fill:url(#SVGID_6_);}
	.st28{fill:url(#SVGID_7_);}
	.st29{fill:#201F43;}
	.st30{fill:none;stroke:#FFFFFF;stroke-width:3;stroke-miterlimit:10;}
	.st31{opacity:0.6;fill:#FFFFFF;}
	.st32{opacity:0.4;fill:#FFFFFF;}
	.st33{opacity:0.8;fill:#FFFFFF;}
	.st34{opacity:0.3;fill:#FFFFFF;}
	.st35{opacity:0.7;fill:#FFFFFF;}
	.st36{opacity:0.9;fill:#FFFFFF;}
	.st37{opacity:0.5;fill:#FFFFFF;}
	.st38{opacity:0.6;fill:#5757AA;}
	.st39{opacity:0.4;fill:#5757AA;}
	.st40{opacity:0.8;fill:#5757AA;}
	.st41{opacity:0.3;fill:#5757AA;}
	.st42{opacity:0.7;fill:#5757AA;}
	.st43{opacity:0.9;fill:#5757AA;}
	.st44{opacity:0.5;fill:#5757AA;}
	.st45{opacity:0.6;}
	.st46{opacity:0.4;}
	.st47{opacity:0.8;}
	.st48{opacity:0.3;}
	.st49{opacity:0.7;}
	.st50{opacity:0.9;}
	.st51{opacity:0.5;}
	.st52{display:inline;}
</style>
<g>
	<rect y="0" class="st2" width="21" height="21"/>
</g>
<g>
	<rect x="1" y="1" class="st10" width="19" height="19"/>
</g>
<g id="background" class="st0">
</g>
<g id="Icons">
	<path class="st3" d="M13,13c-0.4,0-0.7,0.2-1,0.4V10l4.7-4.7l-0.7-0.7L12,8.6V3h-1v6.6L8.6,12c0-0.4-0.2-0.7-0.4-1
		c-0.3-0.3-0.7-0.4-1.1-0.4c-0.8,0-1.7,0.4-2.4,1.1c-1.2,1.2-1.5,2.8-0.7,3.5c0.3,0.3,0.7,0.4,1.1,0.4c0.8,0,1.7-0.4,2.4-1.1L11,11
		v5c0,1.7,0.9,3,2,3c1.1,0,2-1.3,2-3S14.1,13,13,13z M5.1,14.7c-0.1,0-0.3,0-0.4-0.1c-0.3-0.3-0.2-1.3,0.7-2.1
		C6,11.8,6.6,11.6,7,11.6c0.1,0,0.3,0,0.4,0.1C7.8,12,7.6,13,6.8,13.8C6.1,14.4,5.5,14.7,5.1,14.7z M13,18c-0.4,0-1-0.8-1-2
		s0.6-2,1-2s1,0.8,1,2S13.4,18,13,18z"/>
</g>
<g id="Linien" class="st0">
	<g class="st52">
		<g>
			<path class="st8" d="M136-4v32h-289V-4H136 M137-5h-291v34h291V-5L137-5z"/>
		</g>
	</g>
</g>
</svg>
