<?xml version="1.0" encoding="utf-8"?>
<!-- Generator: Adobe Illustrator 23.0.1, SVG Export Plug-In . SVG Version: 6.00 Build 0)  -->
<svg version="1.1" xmlns="http://www.w3.org/2000/svg" xmlns:xlink="http://www.w3.org/1999/xlink" x="0px" y="0px"
	 viewBox="0 0 24 24" style="enable-background:new 0 0 24 24;" xml:space="preserve">
<style type="text/css">
	.st0{display:none;}
	.st1{display:inline;opacity:0.2;fill:#FF0000;}
	.st2{display:inline;fill:#474763;}
	.st3{fill:#CECED9;}
	.st4{fill:#5757AA;}
	.st5{fill:#9B9BAA;}
	.st6{fill:#5EA343;}
	.st7{fill:#7F7FBB;}
	.st8{opacity:0.2;fill:none;}
	.st9{fill:#E63A3F;}
	.st10{fill:#FFFFFF;}
	.st11{fill:#FAFAFA;}
	.st12{fill:none;stroke:#5757AA;stroke-width:2;stroke-linecap:round;stroke-miterlimit:10;}
	.st13{fill:#CBEBC1;}
	.st14{fill:#38396D;}
	.st15{fill:#82828F;}
	.st16{fill:#EDEDF2;}
	.st17{fill:url(#SVGID_1_);}
	.st18{fill:url(#SVGID_2_);}
	.st19{fill:url(#SVGID_3_);}
	.st20{fill:url(#SVGID_4_);}
	.st21{fill:none;stroke:#5757AA;stroke-width:1.8947;stroke-miterlimit:10;}
	.st22{fill:#CCCCCC;stroke:#CECED9;stroke-miterlimit:10;}
	.st23{fill:none;stroke:#CECED9;stroke-width:1.6733;stroke-linecap:round;stroke-miterlimit:10;}
	.st24{fill:#E1E1E5;}
	.st25{fill:#39396D;}
	.st26{fill:url(#SVGID_5_);}
	.st27{fill:#2B2B5B;}
	.st28{fill:url(#SVGID_6_);}
	.st29{fill:url(#SVGID_7_);}
	.st30{fill:#201F43;}
	.st31{fill:none;stroke:#FFFFFF;stroke-width:3;stroke-miterlimit:10;}
	.st32{opacity:0.6;fill:#FFFFFF;}
	.st33{opacity:0.4;fill:#FFFFFF;}
	.st34{opacity:0.8;fill:#FFFFFF;}
	.st35{opacity:0.3;fill:#FFFFFF;}
	.st36{opacity:0.7;fill:#FFFFFF;}
	.st37{opacity:0.9;fill:#FFFFFF;}
	.st38{opacity:0.5;fill:#FFFFFF;}
	.st39{opacity:0.6;fill:#5757AA;}
	.st40{opacity:0.4;fill:#5757AA;}
	.st41{opacity:0.8;fill:#5757AA;}
	.st42{opacity:0.3;fill:#5757AA;}
	.st43{opacity:0.7;fill:#5757AA;}
	.st44{opacity:0.9;fill:#5757AA;}
	.st45{opacity:0.5;fill:#5757AA;}
	.st46{opacity:0.6;}
	.st47{opacity:0.4;}
	.st48{opacity:0.8;}
	.st49{opacity:0.3;}
	.st50{opacity:0.7;}
	.st51{opacity:0.9;}
	.st52{opacity:0.5;}
	.st53{display:inline;}
	.st54{fill:#FF00FF;}
</style>
<g id="background" class="st0">
	<rect y="0" class="st2" width="24" height="24"/>
</g>
<g id="Icons">
	<g>
		<g>
			<polygon class="st16" points="20,6 16,2 16,6 			"/>
			<polygon class="st16" points="15,7 15,2 5,2 5,22 20,22 20,7 			"/>
		</g>
	</g>
	<g>
		<rect x="14.8" y="11.2" transform="matrix(0.7071 0.7071 -0.7071 0.7071 13.2429 -7.6273)" class="st42" width="2" height="2"/>
		<rect x="9.2" y="16.8" transform="matrix(0.7071 0.7071 -0.7071 0.7071 15.5861 -1.9704)" class="st43" width="2" height="2"/>
		<rect x="14.8" y="16.8" transform="matrix(0.7071 0.7071 -0.7071 0.7071 17.2429 -5.9704)" class="st45" width="2" height="2"/>
		<rect x="9.2" y="11.2" transform="matrix(0.7071 0.7071 -0.7071 0.7071 11.5861 -3.6273)" class="st44" width="2" height="2"/>
		<rect x="12" y="10" class="st4" width="2" height="2"/>
		<rect x="12" y="18" class="st39" width="2" height="2"/>
		<rect x="16" y="14" class="st40" width="2" height="2"/>
		<rect x="8" y="14" class="st41" width="2" height="2"/>
	</g>
</g>
<g id="Linien" class="st0">
	<g class="st53">
		<path class="st54" d="M34.3-3.3v35.7h-78.7V-3.3H34.3 M35-4h-80v37h80V-4L35-4z"/>
	</g>
</g>
</svg>
