<?xml version="1.0" encoding="utf-8"?>
<!-- Generator: Adobe Illustrator 22.0.1, SVG Export Plug-In . SVG Version: 6.00 Build 0)  -->
<svg version="1.1" id="Ebene_1" xmlns="http://www.w3.org/2000/svg" xmlns:xlink="http://www.w3.org/1999/xlink" x="0px" y="0px"
	 viewBox="0 0 140 140" style="enable-background:new 0 0 140 140;" xml:space="preserve">
<style type="text/css">
	.st1{fill:#FFFFFF;}
	.st0{fill:#82828F;}
</style>
<g>
	<circle class="st0" cx="70" cy="70" r="70"/>
	<g>
		<path class="st1" d="M61.7,93c-0.4-1.2-0.8-2.8-1.1-4.7c-0.3-1.9-0.5-3.8-0.5-5.7c0-2.9,0.6-5.6,1.8-7.9c1.2-2.4,2.6-4.6,4.4-6.6
			c1.7-2.1,3.6-4,5.7-6c2-1.9,3.9-3.8,5.7-5.6c1.7-1.8,3.2-3.7,4.4-5.7c1.2-2,1.8-4.2,1.8-6.6c0-2.2-0.4-4-1.3-5.6
			c-0.9-1.6-2-2.9-3.6-4c-1.5-1.1-3.2-1.9-5.2-2.4s-4-0.8-6.2-0.8c-7.1,0-13.9,3.2-20.4,9.6V24.3c7.9-4.6,16-6.9,24.4-6.9
			c3.9,0,7.5,0.5,11,1.5c3.4,1,6.5,2.5,9,4.5c2.6,2,4.6,4.4,6.1,7.3c1.5,2.9,2.2,6.3,2.2,10.2c0,3.7-0.6,7-1.9,9.8
			c-1.2,2.9-2.8,5.5-4.7,7.9c-1.9,2.4-3.9,4.6-6.1,6.4c-2.2,1.9-4.2,3.7-6.1,5.6c-1.9,1.9-3.5,3.8-4.7,5.8c-1.2,2-1.9,4.2-1.9,6.7
			c0,2.1,0.3,3.9,0.8,5.6c0.5,1.7,1.1,3.1,1.6,4.2H61.7z M69.4,123c-2.7,0-5.1-0.9-7.3-2.8c-2-1.8-3-4.1-3-6.8c0-2.7,1-5,3-6.8
			c2.1-1.9,4.5-2.9,7.3-2.9c2.7,0,5.1,1,7.2,2.9c2,1.8,3,4,3,6.8c0,2.7-1,4.9-3,6.8C74.5,122.1,72.1,123,69.4,123z"/>
	</g>
</g>
</svg>
