<?xml version="1.0" encoding="UTF-8" standalone="no"?>
<!-- Generator: Adobe Illustrator 22.1.0, SVG Export Plug-In . SVG Version: 6.00 Build 0)  -->

<svg
   xmlns:dc="http://purl.org/dc/elements/1.1/"
   xmlns:cc="http://creativecommons.org/ns#"
   xmlns:rdf="http://www.w3.org/1999/02/22-rdf-syntax-ns#"
   xmlns:svg="http://www.w3.org/2000/svg"
   xmlns="http://www.w3.org/2000/svg"
   xmlns:sodipodi="http://sodipodi.sourceforge.net/DTD/sodipodi-0.dtd"
   xmlns:inkscape="http://www.inkscape.org/namespaces/inkscape"
   version="1.1"
   x="0px"
   y="0px"
   viewBox="0 0 42 20"
   style="enable-background:new 0 0 42 20;"
   xml:space="preserve"
   id="svg42"
   sodipodi:docname="ToggleOffMsgTransmission.svg"
   inkscape:version="0.92.2 (5c3e80d, 2017-08-06)"><metadata
     id="metadata48"><rdf:RDF><cc:Work
         rdf:about=""><dc:format>image/svg+xml</dc:format><dc:type
           rdf:resource="http://purl.org/dc/dcmitype/StillImage" /><dc:title></dc:title></cc:Work></rdf:RDF></metadata><defs
     id="defs46" /><sodipodi:namedview
     pagecolor="#ffffff"
     bordercolor="#666666"
     borderopacity="1"
     objecttolerance="10"
     gridtolerance="10"
     guidetolerance="10"
     inkscape:pageopacity="0"
     inkscape:pageshadow="2"
     inkscape:window-width="1920"
     inkscape:window-height="1027"
     id="namedview44"
     showgrid="false"
     inkscape:zoom="8.3333333"
     inkscape:cx="36.94019"
     inkscape:cy="16.777866"
     inkscape:window-x="-8"
     inkscape:window-y="-8"
     inkscape:window-maximized="1"
     inkscape:current-layer="g32" /><style
     type="text/css"
     id="style2">
	.st0{display:none;}
	.st1{display:inline;opacity:0.2;fill:#FF0000;}
	.st2{display:inline;fill:#474763;}
	.st3{fill:#CECED9;}
	.st4{fill:#5757AA;}
	.st5{fill:#9B9BAA;}
	.st6{fill:#5EA343;}
	.st7{fill:#7F7FBB;}
	.st8{opacity:0.2;fill:none;}
	.st9{fill:#E63A3F;}
	.st10{fill:#FFFFFF;}
	.st11{fill:#FAFAFA;}
	.st12{fill:none;stroke:#5757AA;stroke-width:2;stroke-linecap:round;stroke-miterlimit:10;}
	.st13{fill:#CBEBC1;}
	.st14{fill:#38396D;}
	.st15{fill:#82828F;}
	.st16{fill:#EDEDF2;}
	.st17{fill:url(#SVGID_1_);}
	.st18{fill:url(#SVGID_2_);}
	.st19{fill:url(#SVGID_3_);}
	.st20{fill:url(#SVGID_4_);}
	.st21{fill:none;stroke:#5757AA;stroke-width:1.8947;stroke-miterlimit:10;}
	.st22{fill:#CCCCCC;stroke:#CECED9;stroke-miterlimit:10;}
	.st23{fill:none;stroke:#CECED9;stroke-width:1.6733;stroke-linecap:round;stroke-miterlimit:10;}
	.st24{fill:#E1E1E5;}
	.st25{fill:#39396D;}
	.st26{fill:url(#SVGID_5_);}
	.st27{fill:#2B2B5B;}
	.st28{fill:url(#SVGID_6_);}
	.st29{fill:url(#SVGID_7_);}
	.st30{fill:#201F43;}
	.st31{fill:none;stroke:#FFFFFF;stroke-width:3;stroke-miterlimit:10;}
	.st32{opacity:0.6;fill:#FFFFFF;}
	.st33{opacity:0.4;fill:#FFFFFF;}
	.st34{opacity:0.8;fill:#FFFFFF;}
	.st35{opacity:0.3;fill:#FFFFFF;}
	.st36{opacity:0.7;fill:#FFFFFF;}
	.st37{opacity:0.9;fill:#FFFFFF;}
	.st38{opacity:0.5;fill:#FFFFFF;}
	.st39{opacity:0.6;fill:#5757AA;}
	.st40{opacity:0.4;fill:#5757AA;}
	.st41{opacity:0.8;fill:#5757AA;}
	.st42{opacity:0.3;fill:#5757AA;}
	.st43{opacity:0.7;fill:#5757AA;}
	.st44{opacity:0.9;fill:#5757AA;}
	.st45{opacity:0.5;fill:#5757AA;}
	.st46{opacity:0.6;}
	.st47{opacity:0.4;}
	.st48{opacity:0.8;}
	.st49{opacity:0.3;}
	.st50{opacity:0.7;}
	.st51{opacity:0.9;}
	.st52{opacity:0.5;}
	.st53{fill:#7EB569;}
	.st54{fill:url(#SVGID_8_);}
	.st55{fill:url(#SVGID_9_);}
	.st56{display:inline;}
	.st57{fill:#DB8D2E;}
	.st58{fill:#FF00FF;}
</style><g
     id="background"
     class="st0" /><g
     id="Icons"><g
       id="g32"><g
         id="g11"><path
           class="st5"
           d="M10,18.5c-4.7,0-8.5-3.8-8.5-8.5S5.3,1.5,10,1.5h22c4.7,0,8.5,3.8,8.5,8.5s-3.8,8.5-8.5,8.5H10z"
           id="path5" /><g
           id="g9"><path
             class="st15"
             d="M32,2c4.4,0,8,3.6,8,8s-3.6,8-8,8H10c-4.4,0-8-3.6-8-8s3.6-8,8-8H32 M32,1H10c-5,0-9,4-9,9s4,9,9,9h22      c5,0,9-4,9-9S37,1,32,1L32,1z"
             id="path7" /></g></g><g
         id="g26"><linearGradient
           id="SVGID_1_"
           gradientUnits="userSpaceOnUse"
           x1="10"
           y1="1.3262"
           x2="10"
           y2="18.6738"><stop
             offset="0"
             style="stop-color:#EDEDF2"
             id="stop13" /><stop
             offset="0.5227"
             style="stop-color:#DFDFE7"
             id="stop15" /><stop
             offset="1"
             style="stop-color:#CECED9"
             id="stop17" /></linearGradient><circle
           class="st17"
           cx="10"
           cy="10"
           r="8.7"
           id="circle20" /><g
           id="g24"><path
             class="st15"
             d="M10,1.7c4.6,0,8.3,3.7,8.3,8.3s-3.7,8.3-8.3,8.3S1.7,14.6,1.7,10S5.4,1.7,10,1.7 M10,1c-5,0-9,4-9,9      s4,9,9,9s9-4,9-9S15,1,10,1L10,1z"
             id="path22" /></g></g><text
         xml:space="preserve"
         style="font-style:normal;font-weight:normal;font-size:40px;line-height:1.25;font-family:sans-serif;letter-spacing:0px;word-spacing:0px;fill:#000000;fill-opacity:1;stroke:none"
         x="22.135782"
         y="12.74125"
         id="text910"><tspan
           sodipodi:role="line"
           id="tspan908"
           x="22.135782"
           y="12.74125"
           style="font-style:normal;font-variant:normal;font-weight:normal;font-stretch:normal;font-size:8px;font-family:'Segoe UI';-inkscape-font-specification:'Segoe UI';fill:#fafafa;fill-opacity:1">OFF</tspan></text>
</g></g><g
     id="Linien"
     class="st0"><g
       class="st56"
       id="g39"><g
         id="g37"><path
           class="st57"
           d="M49-8v33H-65V-8H49 M50-9H-66v35H50V-9L50-9z"
           id="path35" /></g></g></g></svg>