<?xml version="1.0" encoding="utf-8"?>
<!-- Generator: Adobe Illustrator 23.0.1, SVG Export Plug-In . SVG Version: 6.00 Build 0)  -->
<svg version="1.1" xmlns="http://www.w3.org/2000/svg" xmlns:xlink="http://www.w3.org/1999/xlink" x="0px" y="0px"
	 viewBox="0 0 42 20" style="enable-background:new 0 0 42 20;" xml:space="preserve">
<style type="text/css">
	.st0{display:none;}
	.st1{display:inline;opacity:0.2;fill:#FF0000;}
	.st2{fill:#CECED9;}
	.st3{fill:#5757AA;}
	.st4{fill:#9B9BAA;}
	.st5{fill:#5EA343;}
	.st6{fill:#7F7FBB;}
	.st7{opacity:0.2;fill:none;}
	.st8{fill:#E63A3F;}
	.st9{fill:#FFFFFF;}
	.st10{fill:#FAFAFA;}
	.st11{fill:none;stroke:#5757AA;stroke-width:2;stroke-linecap:round;stroke-miterlimit:10;}
	.st12{fill:#CBEBC1;}
	.st13{fill:#38396D;}
	.st14{fill:#82828F;}
	.st15{fill:#EDEDF2;}
	.st16{fill:url(#SVGID_1_);}
	.st17{fill:url(#SVGID_2_);}
	.st18{fill:url(#SVGID_3_);}
	.st19{fill:url(#SVGID_4_);}
	.st20{fill:none;stroke:#5757AA;stroke-width:1.8947;stroke-miterlimit:10;}
	.st21{fill:#CCCCCC;stroke:#CECED9;stroke-miterlimit:10;}
	.st22{fill:none;stroke:#CECED9;stroke-width:1.6733;stroke-linecap:round;stroke-miterlimit:10;}
	.st23{fill:#E1E1E5;}
	.st24{fill:#39396D;}
	.st25{fill:url(#SVGID_5_);}
	.st26{fill:#2B2B5B;}
	.st27{fill:url(#SVGID_6_);}
	.st28{fill:url(#SVGID_7_);}
	.st29{fill:#201F43;}
	.st30{fill:none;stroke:#FFFFFF;stroke-width:3;stroke-miterlimit:10;}
	.st31{opacity:0.6;fill:#FFFFFF;}
	.st32{opacity:0.4;fill:#FFFFFF;}
	.st33{opacity:0.8;fill:#FFFFFF;}
	.st34{opacity:0.3;fill:#FFFFFF;}
	.st35{opacity:0.7;fill:#FFFFFF;}
	.st36{opacity:0.9;fill:#FFFFFF;}
	.st37{opacity:0.5;fill:#FFFFFF;}
	.st38{opacity:0.6;fill:#5757AA;}
	.st39{opacity:0.4;fill:#5757AA;}
	.st40{opacity:0.8;fill:#5757AA;}
	.st41{opacity:0.3;fill:#5757AA;}
	.st42{opacity:0.7;fill:#5757AA;}
	.st43{opacity:0.9;fill:#5757AA;}
	.st44{opacity:0.5;fill:#5757AA;}
	.st45{opacity:0.6;}
	.st46{opacity:0.4;}
	.st47{opacity:0.8;}
	.st48{opacity:0.3;}
	.st49{opacity:0.7;}
	.st50{opacity:0.9;}
	.st51{opacity:0.5;}
	.st52{display:inline;}
</style>
<g id="background" class="st0">
</g>
<g id="Icons">
	<g>
		<g>
			<path class="st15" d="M10,18.5c-4.7,0-8.5-3.8-8.5-8.5S5.3,1.5,10,1.5h22.2c4.7,0,8.5,3.8,8.5,8.5s-3.8,8.5-8.5,8.5H10z"/>
			<g>
				<path class="st4" d="M32.2,2c4.4,0,8,3.6,8,8s-3.6,8-8,8H10c-4.4,0-8-3.6-8-8s3.6-8,8-8H32.2 M32.2,1H10c-5,0-9,4-9,9s4,9,9,9
					h22.2c5,0,9-4,9-9S37.1,1,32.2,1L32.2,1z"/>
			</g>
		</g>
		<g>
			<linearGradient id="SVGID_1_" gradientUnits="userSpaceOnUse" x1="10" y1="1.375" x2="10" y2="18.625">
				<stop  offset="0" style="stop-color:#8E4659"/>
				<stop  offset="1" style="stop-color:#AA3636"/>
			</linearGradient>
			<circle class="st16" cx="10" cy="10" r="8.6"/>
			<g>
				<path class="st4" d="M10,1.8c4.5,0,8.3,3.7,8.3,8.3s-3.7,8.3-8.3,8.3S1.8,14.5,1.8,10S5.5,1.8,10,1.8 M10,1c-5,0-9,4-9,9
					s4,9,9,9s9-4,9-9S15,1,10,1L10,1z"/>
			</g>
		</g>
		<g>
			<path class="st26" d="M25.1,12.7c-0.8,0-1.4-0.3-1.9-0.8s-0.7-1.2-0.7-2c0-0.9,0.2-1.6,0.7-2.2s1.1-0.8,2-0.8
				c0.8,0,1.4,0.3,1.9,0.8s0.7,1.2,0.7,2c0,0.9-0.2,1.6-0.7,2.2S26,12.7,25.1,12.7z M25.2,7.5c-0.6,0-1.1,0.2-1.4,0.6
				s-0.6,1-0.6,1.7s0.2,1.2,0.5,1.7s0.8,0.6,1.4,0.6c0.6,0,1.1-0.2,1.5-0.6s0.5-1,0.5-1.7c0-0.7-0.2-1.3-0.5-1.7S25.8,7.5,25.2,7.5z
				"/>
			<path class="st26" d="M31.8,7.6h-2.2v1.9h2v0.6h-2v2.5h-0.7V7h2.8V7.6z"/>
			<path class="st26" d="M35.7,7.6h-2.2v1.9h2v0.6h-2v2.5h-0.7V7h2.8V7.6z"/>
		</g>
	</g>
</g>
<g id="Linien" class="st0">
	<g class="st52">
		<path class="st8" d="M52-8v33H-62V-8H52 M53-9H-63v35H53V-9L53-9z"/>
	</g>
</g>
</svg>
