<?xml version="1.0" encoding="utf-8"?>
<!-- Generator: Adobe Illustrator 22.0.1, SVG Export Plug-In . SVG Version: 6.00 Build 0)  -->
<svg version="1.1" id="Ebene_1" xmlns="http://www.w3.org/2000/svg" xmlns:xlink="http://www.w3.org/1999/xlink" x="0px" y="0px"
	 viewBox="0 0 24 24" style="enable-background:new 0 0 24 24;" xml:space="preserve">
<style type="text/css">
	.st0{fill:none;}
	.st1{fill:#5757AA;}
</style>
<title>Element 192</title>
<g id="Ebene_2_1_">
	<g id="Platzhalter">
		<rect y="0" class="st0" width="24" height="24"/>
	</g>
	<g id="Ebene_1-2">
		<path class="st1" d="M24,13v-2h-4.1c-0.2-1.4-0.7-2.8-1.6-3.9l2.9-2.9l-1.4-1.4l-2.9,2.9c-1.1-0.9-2.5-1.4-3.9-1.6V0h-2v4.1
			C9.6,4.2,8.2,4.8,7.1,5.7L4.2,2.8L2.8,4.2l2.9,2.9C4.8,8.2,4.2,9.6,4.1,11H0v2h4.1c0.2,1.4,0.7,2.8,1.6,3.9l-2.9,2.9l1.4,1.4
			l2.9-2.9c1.1,0.9,2.5,1.4,3.9,1.6V24h2v-4.1c1.4-0.2,2.8-0.7,3.9-1.6l2.9,2.9l1.4-1.4l-2.9-2.9c0.9-1.1,1.4-2.5,1.6-3.9H24z"/>
	</g>
</g>
</svg>
