<?xml version="1.0" encoding="utf-8"?>
<!-- Generator: Adobe Illustrator 22.0.1, SVG Export Plug-In . SVG Version: 6.00 Build 0)  -->
<svg version="1.1" id="Ebene_1" xmlns="http://www.w3.org/2000/svg" xmlns:xlink="http://www.w3.org/1999/xlink" x="0px" y="0px"
	 viewBox="0 0 16 16" style="enable-background:new 0 0 16 16;" xml:space="preserve">
<style type="text/css">
	.st0{fill:#5757AA;}
	.st1{fill:#9B9BAA;}
	.st2{fill:#5EA343;}
	.st3{fill:#7F7FBB;}
	.st4{opacity:0.2;fill:none;}
	.st5{fill:#E63A3F;}
	.st6{fill:#FFFFFF;}
	.st7{fill:#FAFAFA;}
	.st8{fill:none;stroke:#5757AA;stroke-width:2;stroke-linecap:round;stroke-miterlimit:10;}
	.st9{fill:#CBEBC1;}
	.st10{fill:#CECED9;}
	.st11{fill:#414180;}
	.st12{fill:#EDEDF2;}
	.st13{fill:#38396D;}
	.st14{fill:url(#SVGID_1_);}
	.st15{fill:url(#SVGID_2_);}
	.st16{fill:url(#SVGID_3_);}
	.st17{fill:url(#SVGID_4_);}
</style>
<rect x="5" y="5" class="st0" width="6" height="6"/>
<g>
	<path class="st0" d="M13,3v10H3V3H13 M14,2H2v12h12V2L14,2z"/>
</g>
<g>
	<polygon class="st0" points="6,0 4,0 4,3 6,3 6,0 	"/>
</g>
<g>
	<polygon class="st0" points="9,0 7,0 7,3 9,3 9,0 	"/>
</g>
<g>
	<polygon class="st0" points="12,0 10,0 10,3 12,3 12,0 	"/>
</g>
<g>
	<polygon class="st0" points="6,13 4,13 4,16 6,16 6,13 	"/>
</g>
<g>
	<polygon class="st0" points="9,13 7,13 7,16 9,16 9,13 	"/>
</g>
<g>
	<polygon class="st0" points="12,13 10,13 10,16 12,16 12,13 	"/>
</g>
<g>
	<polygon class="st0" points="16,10 13,10 13,12 16,12 16,10 	"/>
</g>
<g>
	<polygon class="st0" points="16,7 13,7 13,9 16,9 16,7 	"/>
</g>
<g>
	<polygon class="st0" points="16,4 13,4 13,6 16,6 16,4 	"/>
</g>
<g>
	<polygon class="st0" points="3,10 0,10 0,12 3,12 3,10 	"/>
</g>
<g>
	<polygon class="st0" points="3,7 0,7 0,9 3,9 3,7 	"/>
</g>
<g>
	<polygon class="st0" points="3,4 0,4 0,6 3,6 3,4 	"/>
</g>
</svg>
