<?xml version="1.0" encoding="utf-8"?>
<!-- Generator: Adobe Illustrator 22.0.1, SVG Export Plug-In . SVG Version: 6.00 Build 0)  -->
<svg version="1.1" id="Ebene_1" xmlns="http://www.w3.org/2000/svg" xmlns:xlink="http://www.w3.org/1999/xlink" x="0px" y="0px"
	 viewBox="0 0 24 24" style="enable-background:new 0 0 24 24;" xml:space="preserve">
<style type="text/css">
	.st0{fill:none;}
	.st1{fill:#5757AA;}
</style>
<title>Element 178</title>
<g id="Ebene_2_1_">
	<g id="Platzhalter">
		<rect y="0" class="st0" width="24" height="24"/>
	</g>
	<g id="Ebene_1-2">
		<rect x="7" y="7" class="st1" width="10" height="10"/>
		<path class="st1" d="M18.6,5.4v13.2H5.4V5.4H18.6 M19,1h-2v3h-2V1h-2v3h-2V1H9v3H7V1H5v3H4v1H1v2h3v2H1v2h3v2H1v2h3v2H1v2h3v1h1v3
			h2v-3h2v3h2v-3h2v3h2v-3h2v3h2v-3h1v-1h3v-2h-3v-2h3v-2h-3v-2h3V9h-3V7h3V5h-3V4h-1V1z"/>
	</g>
</g>
</svg>
