<?xml version="1.0" encoding="utf-8"?>
<!-- Generator: Adobe Illustrator 22.0.1, SVG Export Plug-In . SVG Version: 6.00 Build 0)  -->
<svg version="1.1" id="Ebene_1" xmlns="http://www.w3.org/2000/svg" xmlns:xlink="http://www.w3.org/1999/xlink" x="0px" y="0px"
	 viewBox="0 0 30 30" style="enable-background:new 0 0 30 30;" xml:space="preserve">
<style type="text/css">
	.st0{fill:none;}
	.st1{fill:#5757AA;}
	.st2{fill:#FFFFFF;}
	.st3{opacity:0.6;fill:#5757AA;enable-background:new    ;}
	.st4{opacity:0.4;fill:#5757AA;enable-background:new    ;}
	.st5{opacity:0.8;fill:#5757AA;enable-background:new    ;}
	.st6{opacity:0.3;fill:#5757AA;enable-background:new    ;}
	.st7{opacity:0.7;fill:#5757AA;enable-background:new    ;}
	.st8{opacity:0.9;fill:#5757AA;enable-background:new    ;}
	.st9{opacity:0.5;fill:#5757AA;enable-background:new    ;}
</style>
<title>Element 162</title>
<g id="Ebene_2_1_">
	<g id="Platzhalter">
		<rect y="0" class="st0" width="30" height="30"/>
	</g>
	<g id="Ebene_1-2">
		<polygon class="st1" points="22,6 16,0 16,6 		"/>
		<polygon class="st1" points="15,7 15,0 0,0 0,30 22,30 22,7 16,7 		"/>
		<rect x="5" y="6" class="st2" width="2" height="2"/>
		<rect x="7" y="8" class="st2" width="2" height="2"/>
		<rect x="5" y="2" class="st2" width="2" height="2"/>
		<rect x="7" y="4" class="st2" width="2" height="2"/>
		<rect x="5" y="10" class="st2" width="2" height="2"/>
		<rect x="7" y="12" class="st2" width="2" height="2"/>
		<rect x="5" y="14" class="st2" width="2" height="2"/>
		<rect x="7" y="16" class="st2" width="2" height="2"/>
		<rect x="5" y="18" class="st2" width="2" height="2"/>
		<rect x="7" y="20" class="st2" width="2" height="2"/>
		<path class="st2" d="M7,23c1.1,0,2,0.9,2,2s-0.9,2-2,2s-2-0.9-2-2S5.9,23,7,23 M7,22c-1.7,0-3,1.3-3,3s1.3,3,3,3s3-1.3,3-3
			S8.7,22,7,22z"/>
		<circle class="st2" cx="20.5" cy="19.5" r="9"/>
		<path class="st1" d="M20.5,11c4.7,0,8.5,3.8,8.5,8.5S25.2,28,20.5,28S12,24.2,12,19.5C12,14.8,15.8,11,20.5,11 M20.5,10
			c-5.2,0-9.5,4.3-9.5,9.5s4.3,9.5,9.5,9.5s9.5-4.3,9.5-9.5C30,14.3,25.7,10,20.5,10z"/>
		<rect x="19" y="12" class="st1" width="3" height="3"/>
		<rect x="19" y="24" class="st3" width="3" height="3"/>
		<rect x="25" y="18" class="st4" width="3" height="3"/>
		<rect x="13" y="18" class="st5" width="3" height="3"/>
		<rect x="23.2" y="13.8" transform="matrix(0.7071 -0.7071 0.7071 0.7071 -3.5392 21.9641)" class="st6" width="3" height="3"/>
		<rect x="14.8" y="22.2" transform="matrix(0.7071 -0.7071 0.7071 0.7071 -12.0271 18.4527)" class="st7" width="3" height="3"/>
		<rect x="14.8" y="13.8" transform="matrix(0.7071 -0.7071 0.7071 0.7071 -6.0236 15.9636)" class="st8" width="3" height="3"/>
		<rect x="23.2" y="22.2" transform="matrix(0.7071 -0.7071 0.7071 0.7071 -9.5424 24.4483)" class="st9" width="3" height="3"/>
	</g>
</g>
</svg>
