<?xml version="1.0" encoding="utf-8"?>
<!-- Generator: Adobe Illustrator 22.0.1, SVG Export Plug-In . SVG Version: 6.00 Build 0)  -->
<svg version="1.1" id="Ebene_1" xmlns="http://www.w3.org/2000/svg" xmlns:xlink="http://www.w3.org/1999/xlink" x="0px" y="0px"
	 viewBox="0 0 24 24" style="enable-background:new 0 0 24 24;" xml:space="preserve">
<style type="text/css">
	.st0{fill:none;}
	.st1{fill:#CECED9;}
</style>
<title>Element 198</title>
<g id="Ebene_2_1_">
	<g id="Platzhalter">
		<rect y="0" class="st0" width="24" height="24"/>
	</g>
	<g id="Ebene_1-2">
		<path class="st1" d="M1,1h6c0.6,0,1,0.4,1,1v6c0,0.6-0.4,1-1,1H1C0.4,9,0,8.6,0,8V2C0,1.4,0.4,1,1,1z"/>
		<path class="st1" d="M17,16h6c0.6,0,1,0.4,1,1v6c0,0.6-0.4,1-1,1h-6c-0.6,0-1-0.4-1-1v-6C16,16.4,16.4,16,17,16z"/>
		<rect x="-2.2" y="11" transform="matrix(0.7071 -0.7071 0.7071 0.7071 -5.1426 11.7176)" class="st1" width="27.6" height="2.1"/>
	</g>
</g>
</svg>
