<?xml version="1.0" encoding="utf-8"?>
<!-- Generator: Adobe Illustrator 22.0.1, SVG Export Plug-In . SVG Version: 6.00 Build 0)  -->
<svg version="1.1" id="Ebene_1" xmlns="http://www.w3.org/2000/svg" xmlns:xlink="http://www.w3.org/1999/xlink" x="0px" y="0px"
	 viewBox="0 0 30 30" style="enable-background:new 0 0 30 30;" xml:space="preserve">
<style type="text/css">
	.st0{fill:none;}
	.st1{fill:#5757AA;}
	.st2{fill:#FFFFFF;}
</style>
<title>Element 161</title>
<g id="Ebene_2_1_">
	<g id="Platzhalter">
		<rect y="0" class="st0" width="30" height="30"/>
	</g>
	<g id="Ebene_1-2">
		<polygon class="st1" points="15,7 15,0 0,0 0,30 22,30 22,7 16,7 		"/>
		<polygon class="st1" points="22,6 16,0 16,6 		"/>
		<rect x="5" y="6" class="st2" width="2" height="2"/>
		<rect x="7" y="8" class="st2" width="2" height="2"/>
		<rect x="5" y="2" class="st2" width="2" height="2"/>
		<rect x="7" y="4" class="st2" width="2" height="2"/>
		<rect x="5" y="10" class="st2" width="2" height="2"/>
		<rect x="7" y="12" class="st2" width="2" height="2"/>
		<rect x="5" y="14" class="st2" width="2" height="2"/>
		<rect x="7" y="16" class="st2" width="2" height="2"/>
		<rect x="5" y="18" class="st2" width="2" height="2"/>
		<rect x="7" y="20" class="st2" width="2" height="2"/>
		<path class="st2" d="M7,23c1.1,0,2,0.9,2,2s-0.9,2-2,2s-2-0.9-2-2S5.9,23,7,23 M7,22c-1.7,0-3,1.3-3,3s1.3,3,3,3s3-1.3,3-3
			S8.7,22,7,22z"/>
		<circle class="st2" cx="20.5" cy="19.5" r="8"/>
		<path class="st1" d="M20.5,12c4.1,0,7.5,3.4,7.5,7.5S24.6,27,20.5,27S13,23.6,13,19.5S16.4,12,20.5,12 M20.5,11
			c-4.7,0-8.5,3.8-8.5,8.5s3.8,8.5,8.5,8.5s8.5-3.8,8.5-8.5C29,14.8,25.2,11,20.5,11z"/>
		<rect x="20" y="14" class="st2" width="1" height="7"/>
		<polygon class="st1" points="21,14 20,14 20,21 21,21 21,14 		"/>
		<rect x="21" y="20" class="st2" width="5" height="1"/>
		<polygon class="st1" points="26,20 21,20 21,21 26,21 26,20 		"/>
	</g>
</g>
</svg>
