<?xml version="1.0" encoding="utf-8"?>
<!-- Generator: Adobe Illustrator 23.0.2, SVG Export Plug-In . SVG Version: 6.00 Build 0)  -->
<svg version="1.1" id="Ebene_1" xmlns="http://www.w3.org/2000/svg" xmlns:xlink="http://www.w3.org/1999/xlink" x="0px" y="0px"
	 viewBox="0 0 20 20" style="enable-background:new 0 0 20 20;" xml:space="preserve">
<style type="text/css">
	.st0{fill:#2A2A5B;}
	.st1{fill:#39396D;}
	.st2{fill:#5EA343;}
	.st3{fill:#FFFFFF;}
	.st4{fill:#E63A3F;}
	.st5{fill:#B2B2BD;}
	.st6{fill:#DFEDD9;}
	.st7{fill:url(#SVGID_1_);}
</style>
<g>
	<path class="st6" d="M10,2.5c4.14,0,7.5,3.36,7.5,7.5H19c0-4.97-4.03-9-9-9l0,0c-4.97,0-9,4.03-9,9s4.03,9,9,9s9-4.03,9-9h-1.5
		c0,4.14-3.36,7.5-7.5,7.5S2.5,14.14,2.5,10S5.86,2.5,10,2.5"/>
	<linearGradient id="SVGID_1_" gradientUnits="userSpaceOnUse" x1="14.8602" y1="12.9527" x2="-1.2231" y2="3.1818">
		<stop  offset="0" style="stop-color:#FFFFFF;stop-opacity:0"/>
		<stop  offset="0.0376" style="stop-color:#E3EFDE;stop-opacity:0.0376"/>
		<stop  offset="0.0878" style="stop-color:#C4DDBA;stop-opacity:0.0878"/>
		<stop  offset="0.1442" style="stop-color:#A8CD9A;stop-opacity:0.1442"/>
		<stop  offset="0.2066" style="stop-color:#91C07E;stop-opacity:0.2066"/>
		<stop  offset="0.2771" style="stop-color:#7EB568;stop-opacity:0.2771"/>
		<stop  offset="0.3594" style="stop-color:#70AD57;stop-opacity:0.3594"/>
		<stop  offset="0.4611" style="stop-color:#65A74C;stop-opacity:0.4611"/>
		<stop  offset="0.6038" style="stop-color:#60A445;stop-opacity:0.6038"/>
		<stop  offset="1" style="stop-color:#5EA343"/>
	</linearGradient>
	<path class="st7" d="M10,2.5c4.14,0,7.5,3.36,7.5,7.5H19c0-4.97-4.03-9-9-9l0,0c-4.97,0-9,4.03-9,9s4.03,9,9,9s9-4.03,9-9h-1.5
		c0,4.14-3.36,7.5-7.5,7.5S2.5,14.14,2.5,10S5.86,2.5,10,2.5"/>
</g>
</svg>
