<?xml version="1.0" encoding="utf-8"?>
<!-- Generator: Adobe Illustrator 22.0.1, SVG Export Plug-In . SVG Version: 6.00 Build 0)  -->
<svg version="1.1" id="Ebene_1" xmlns="http://www.w3.org/2000/svg" xmlns:xlink="http://www.w3.org/1999/xlink" x="0px" y="0px"
	 viewBox="0 0 30 30" style="enable-background:new 0 0 30 30;" xml:space="preserve">
<style type="text/css">
	.st0{fill:none;}
	.st1{fill:#E63A3F;}
	.st2{fill:#FFFFFF;}
</style>
<title>Element 160</title>
<g id="Ebene_2_1_">
	<g id="Platzhalter">
		<rect y="0" class="st0" width="30" height="30"/>
	</g>
	<g id="Ebene_1-2">
		<polygon class="st1" points="19.9,24.6 15.4,29.3 11.1,25.1 15.7,20.3 11.1,15.4 15.4,11.3 19.9,15.9 22,13.7 22,7 16,7 15,7 
			15,0 0,0 0,30 22,30 22,26.9 		"/>
		<polygon class="st1" points="22,6 16,0 16,6 		"/>
		<rect x="5" y="6" class="st2" width="2" height="2"/>
		<rect x="7" y="8" class="st2" width="2" height="2"/>
		<rect x="5" y="2" class="st2" width="2" height="2"/>
		<rect x="7" y="4" class="st2" width="2" height="2"/>
		<rect x="5" y="10" class="st2" width="2" height="2"/>
		<rect x="7" y="12" class="st2" width="2" height="2"/>
		<rect x="5" y="14" class="st2" width="2" height="2"/>
		<rect x="7" y="16" class="st2" width="2" height="2"/>
		<rect x="5" y="18" class="st2" width="2" height="2"/>
		<rect x="7" y="20" class="st2" width="2" height="2"/>
		<path class="st2" d="M7,23c1.1,0,2,0.9,2,2s-0.9,2-2,2s-2-0.9-2-2S5.9,23,7,23 M7,22c-1.7,0-3,1.3-3,3s1.3,3,3,3s3-1.3,3-3
			S8.7,22,7,22z"/>
		<polygon class="st1" points="26.5,15.5 24.4,13.4 19.9,18.1 15.3,13.4 13.2,15.5 17.8,20.3 13.2,25.1 15.3,27.2 19.9,22.4 
			24.4,27.2 26.5,25.1 21.9,20.3 		"/>
	</g>
</g>
</svg>
