<?xml version="1.0" encoding="utf-8"?>
<!-- Generator: Adobe Illustrator 22.0.1, SVG Export Plug-In . SVG Version: 6.00 Build 0)  -->
<svg version="1.1" id="Ebene_1" xmlns="http://www.w3.org/2000/svg" xmlns:xlink="http://www.w3.org/1999/xlink" x="0px" y="0px"
	 viewBox="0 0 30 30" style="enable-background:new 0 0 30 30;" xml:space="preserve">
<style type="text/css">
	.st0{fill:none;}
	.st1{fill:#5757AA;}
	.st2{fill:#FFFFFF;}
</style>
<title>Element 156</title>
<g id="Ebene_2_1_">
	<g id="Platzhalter">
		<rect y="0" class="st0" width="30" height="30"/>
	</g>
	<g id="Ebene_1-2">
		<polygon class="st1" points="22,6 16,0 16,6 		"/>
		<polygon class="st1" points="15,7 15,0 0,0 0,30 22,30 22,7 16,7 		"/>
		<polygon class="st1" points="22,6 16,0 16,6 		"/>
		<polygon class="st1" points="15,7 15,0 0,0 0,30 22,30 22,7 16,7 		"/>
		<circle class="st2" cx="11" cy="20" r="7.5"/>
		<path class="st1" d="M11,13c3.9,0,7,3.1,7,7s-3.1,7-7,7s-7-3.1-7-7S7.1,13,11,13 M11,12c-4.4,0-8,3.6-8,8s3.6,8,8,8s8-3.6,8-8
			S15.4,12,11,12z"/>
		<rect x="10" y="14" class="st2" width="1" height="7"/>
		<polygon class="st1" points="11,14 10,14 10,21 11,21 11,14 		"/>
		<rect x="11" y="20" class="st2" width="5" height="1"/>
		<polygon class="st1" points="16,20 11,20 11,21 16,21 16,20 		"/>
	</g>
</g>
</svg>
