<?xml version="1.0" encoding="utf-8"?>
<!-- Generator: Adobe Illustrator 22.0.1, SVG Export Plug-In . SVG Version: 6.00 Build 0)  -->
<svg version="1.1" id="Ebene_1" xmlns="http://www.w3.org/2000/svg" xmlns:xlink="http://www.w3.org/1999/xlink" x="0px" y="0px"
	 viewBox="0 0 16 16" style="enable-background:new 0 0 16 16;" xml:space="preserve">
<style type="text/css">
	.st0{fill:#5757AA;}
	.st1{fill:#9B9BAA;}
	.st2{fill:#5EA343;}
	.st3{fill:#7F7FBB;}
	.st4{opacity:0.2;fill:none;}
	.st5{fill:#E63A3F;}
	.st6{fill:#FFFFFF;}
	.st7{fill:#FAFAFA;}
	.st8{fill:none;stroke:#5757AA;stroke-width:2;stroke-linecap:round;stroke-miterlimit:10;}
	.st9{fill:#CBEBC1;}
	.st10{fill:#CECED9;}
	.st11{fill:#414180;}
	.st12{fill:#EDEDF2;}
	.st13{fill:#38396D;}
	.st14{fill:url(#SVGID_1_);}
	.st15{fill:url(#SVGID_2_);}
	.st16{fill:url(#SVGID_3_);}
	.st17{fill:url(#SVGID_4_);}
</style>
<path class="st0" d="M14,14H2c-1.1,0-2-0.9-2-2V5c0-1.1,0.9-2,2-2h12c1.1,0,2,0.9,2,2v7C16,13.1,15.1,14,14,14z"/>
<g>
	<path class="st6" d="M11.5,7C12.3,7,13,7.7,13,8.5S12.3,10,11.5,10S10,9.3,10,8.5S10.7,7,11.5,7 M11.5,6C10.1,6,9,7.1,9,8.5
		s1.1,2.5,2.5,2.5S14,9.9,14,8.5S12.9,6,11.5,6L11.5,6z"/>
</g>
<g>
	<path class="st6" d="M4.5,7C5.3,7,6,7.7,6,8.5S5.3,10,4.5,10S3,9.3,3,8.5S3.7,7,4.5,7 M4.5,6C3.1,6,2,7.1,2,8.5S3.1,11,4.5,11
		S7,9.9,7,8.5S5.9,6,4.5,6L4.5,6z"/>
</g>
<g>
	<polygon class="st6" points="12,10 5,10 5,11 12,11 12,10 	"/>
</g>
</svg>
