<?xml version="1.0" encoding="utf-8"?>
<!-- Generator: Adobe Illustrator 22.0.1, SVG Export Plug-In . SVG Version: 6.00 Build 0)  -->
<svg version="1.1" id="Ebene_1" xmlns="http://www.w3.org/2000/svg" xmlns:xlink="http://www.w3.org/1999/xlink" x="0px" y="0px"
	 viewBox="0 0 24 24" style="enable-background:new 0 0 24 24;" xml:space="preserve">
<style type="text/css">
	.st0{fill:none;}
	.st1{fill:#5757AA;}
</style>
<title>Element 200</title>
<g id="Ebene_2_1_">
	<g id="Platzhalter">
		<rect y="0" class="st0" width="24" height="24"/>
	</g>
	<g id="Ebene_1-2">
		<polygon class="st1" points="24,4 22,4 22,4 19,4 19,6 22,6 22,22 2,22 2,6 5,6 5,4 2,4 2,4 0,4 0,4 0,4 0,6 0,6 0,22 0,22 0,24 
			24,24 24,24 24,24 		"/>
		<path class="st1" d="M13,1.5C13,0.7,12.3,0,11.5,0S10,0.7,10,1.5V7h3V1.5z"/>
		<path class="st1" d="M17,9c0-1.1-0.9-2-2-2H8C6.9,7,6,7.9,6,9v2h11V9z"/>
		<rect x="9" y="12" class="st1" width="2" height="6"/>
		<rect x="6" y="12" class="st1" width="2" height="6"/>
		<rect x="12" y="12" class="st1" width="2" height="6"/>
		<rect x="15" y="12" class="st1" width="2" height="6"/>
	</g>
</g>
</svg>
