<?xml version="1.0" encoding="utf-8"?>
<!-- Generator: Adobe Illustrator 23.0.3, SVG Export Plug-In . SVG Version: 6.00 Build 0)  -->
<svg version="1.1" xmlns="http://www.w3.org/2000/svg" xmlns:xlink="http://www.w3.org/1999/xlink" x="0px" y="0px"
	 viewBox="0 0 42 24" style="enable-background:new 0 0 42 24;" xml:space="preserve">
<style type="text/css">
	.st0{opacity:0.2;fill:#FF0000;}
	.st1{fill:#CECED9;}
	.st2{fill:#5757AA;}
	.st3{fill:#9B9BAA;}
	.st4{fill:#5EA343;}
	.st5{fill:#7F7FBB;}
	.st6{opacity:0.2;fill:none;}
	.st7{fill:#E63A3F;}
	.st8{fill:#FFFFFF;}
	.st9{fill:#FAFAFA;}
	.st10{fill:none;stroke:#5757AA;stroke-width:2;stroke-linecap:round;stroke-miterlimit:10;}
	.st11{fill:#CBEBC1;}
	.st12{fill:#38396D;}
	.st13{fill:#EDEDF2;}
	.st14{fill:url(#SVGID_1_);}
	.st15{fill:url(#SVGID_2_);}
	.st16{fill:url(#SVGID_3_);}
	.st17{fill:url(#SVGID_4_);}
	.st18{fill:none;stroke:#5757AA;stroke-width:1.8947;stroke-miterlimit:10;}
	.st19{fill:#CCCCCC;stroke:#CECED9;stroke-miterlimit:10;}
	.st20{fill:none;stroke:#CECED9;stroke-width:1.6733;stroke-linecap:round;stroke-miterlimit:10;}
	.st21{fill:#E1E1E5;}
	.st22{fill:#82828F;}
	.st23{fill:#39396D;}
	.st24{fill:url(#SVGID_5_);}
	.st25{fill:#2B2B5B;}
	.st26{fill:url(#SVGID_6_);}
	.st27{fill:url(#SVGID_7_);}
	.st28{fill:#201F43;}
	.st29{opacity:0.3;fill:#5757AA;}
	.st30{opacity:0.7;fill:#5757AA;}
	.st31{opacity:0.5;fill:#5757AA;}
	.st32{opacity:0.9;fill:#5757AA;}
	.st33{opacity:0.6;fill:#5757AA;}
	.st34{opacity:0.4;fill:#5757AA;}
	.st35{opacity:0.8;fill:#5757AA;}
	.st36{opacity:0.3;fill:#FFFFFF;}
	.st37{opacity:0.7;fill:#FFFFFF;}
	.st38{opacity:0.5;fill:#FFFFFF;}
	.st39{opacity:0.9;fill:#FFFFFF;}
	.st40{opacity:0.6;fill:#FFFFFF;}
	.st41{opacity:0.4;fill:#FFFFFF;}
	.st42{opacity:0.8;fill:#FFFFFF;}
	.st43{fill:#7EB569;}
	.st44{fill:url(#SVGID_8_);}
	.st45{fill:url(#SVGID_9_);}
	.st46{fill:url(#SVGID_10_);}
	.st47{fill:url(#SVGID_11_);}
	.st48{fill:none;stroke:#FFFFFF;stroke-miterlimit:10;}
	.st49{fill:none;stroke:#FF00FF;stroke-miterlimit:10;}
	.st50{fill:none;stroke:#5757AA;stroke-width:2;stroke-miterlimit:10;}
	.st51{fill:none;stroke:#FFFFFF;stroke-width:3;stroke-miterlimit:10;}
	.st52{fill:#FFB300;}
	.st53{fill:#4F4FBD;}
	.st54{fill:#16162C;}
	.st55{fill:none;stroke:#5EA343;stroke-width:6.0526;stroke-miterlimit:10;}
	.st56{fill:#5C5C5C;}
	.st57{fill:#575769;}
	.st58{fill:#029B88;}
	.st59{fill:#5D5D5D;}
	.st60{fill:#616196;}
	.st61{fill:#1E1E21;}
	.st62{fill:#5858BF;}
	.st63{fill:url(#SVGID_12_);}
	.st64{fill:#2F3036;}
	.st65{fill:#060708;}
	.st66{fill:#DECA45;}
	.st67{fill:#AA3636;}
	.st68{opacity:0.5;}
	.st69{fill:#616193;}
	.st70{opacity:0.1;fill:#E63A3F;}
	.st71{fill:#B2B2BD;}
	.st72{fill:#DFEDD9;}
	.st73{fill:url(#SVGID_13_);}
	.st74{fill:none;stroke:#5757AA;stroke-width:2;stroke-linecap:square;stroke-miterlimit:10;}
</style>
<g id="background">
</g>
<g id="Icons">
	<g>
		<path class="st13" d="M10,20.5c-4.7,0-8.5-3.8-8.5-8.5S5.3,3.5,10,3.5h22c4.7,0,8.5,3.8,8.5,8.5s-3.8,8.5-8.5,8.5H10z"/>
		<g>
			<path class="st1" d="M32,4c4.4,0,8,3.6,8,8c0,4.4-3.6,8-8,8H10c-4.4,0-8-3.6-8-8c0-4.4,3.6-8,8-8H32 M32,3H10c-5,0-9,4-9,9v0
				c0,5,4,9,9,9h22c5,0,9-4,9-9v0C41,7,37,3,32,3L32,3z"/>
		</g>
	</g>
	<g>
		<linearGradient id="SVGID_1_" gradientUnits="userSpaceOnUse" x1="10" y1="20.6733" x2="10" y2="3.3267">
			<stop  offset="0" style="stop-color:#D9D9E2"/>
			<stop  offset="0.1772" style="stop-color:#E2E2E9"/>
			<stop  offset="0.5033" style="stop-color:#EAEAF0"/>
			<stop  offset="1" style="stop-color:#EDEDF2"/>
		</linearGradient>
		<circle class="st14" cx="10" cy="12" r="8.7"/>
		<g>
			<path class="st1" d="M10,3.7c4.6,0,8.3,3.7,8.3,8.3s-3.7,8.3-8.3,8.3S1.7,16.6,1.7,12S5.4,3.7,10,3.7 M10,3c-5,0-9,4-9,9v0
				c0,5,4,9,9,9s9-4,9-9v0C19,7,15,3,10,3L10,3z"/>
		</g>
	</g>
	<rect x="-77.5" y="-4.5" class="st49" width="134" height="61"/>
</g>
<g id="Linien">
</g>
</svg>
