<?xml version="1.0" encoding="utf-8"?>
<!-- Generator: Adobe Illustrator 22.0.1, SVG Export Plug-In . SVG Version: 6.00 Build 0)  -->
<svg version="1.1" id="Ebene_1" xmlns="http://www.w3.org/2000/svg" xmlns:xlink="http://www.w3.org/1999/xlink" x="0px" y="0px"
	 viewBox="0 0 16 16" style="enable-background:new 0 0 16 16;" xml:space="preserve">
<style type="text/css">
	.st0{fill:#5757AA;}
	.st1{fill:#9B9BAA;}
	.st2{fill:#5EA343;}
	.st3{fill:#7F7FBB;}
	.st4{opacity:0.2;fill:none;}
	.st5{fill:#E63A3F;}
	.st6{fill:#FFFFFF;}
	.st7{fill:#FAFAFA;}
	.st8{fill:none;stroke:#5757AA;stroke-width:2;stroke-linecap:round;stroke-miterlimit:10;}
	.st9{fill:#CBEBC1;}
	.st10{fill:#CECED9;}
	.st11{fill:#414180;}
	.st12{fill:#EDEDF2;}
	.st13{fill:#38396D;}
	.st14{fill:url(#SVGID_1_);}
	.st15{fill:url(#SVGID_2_);}
	.st16{fill:url(#SVGID_3_);}
	.st17{fill:url(#SVGID_4_);}
</style>
<polygon class="st0" points="13,8 8,5 8,7 3,7 3,9 8,9 8,11 "/>
<g>
	<path class="st6" d="M5.5,12v-1.5v2V12z M0.5,0.5h5H0.5v12V0.5z"/>
	<polygon class="st0" points="6,0 0,0 0,13 6,13 6,10 5,10 5,12 1,12 1,1 5,1 5,5 6,5 6,0 	"/>
</g>
<g>
	<path class="st6" d="M15.5,2.5v12V2.5z M10.5,12.5v2V12.5z"/>
	<polygon class="st0" points="16,2 15,2 11,2 10,2 10,4 11,4 11,3 15,3 15,14 11,14 11,12 10,12 10,14 10,15 11,15 15,15 16,15 
		16,14 16,3 16,2 	"/>
</g>
</svg>
