<?xml version="1.0" encoding="utf-8"?>
<!-- Generator: Adobe Illustrator 22.0.1, SVG Export Plug-In . SVG Version: 6.00 Build 0)  -->
<svg version="1.1" id="Ebene_1" xmlns="http://www.w3.org/2000/svg" xmlns:xlink="http://www.w3.org/1999/xlink" x="0px" y="0px"
	 viewBox="0 0 24 24" style="enable-background:new 0 0 24 24;" xml:space="preserve">
<style type="text/css">
	.st0{fill:none;}
	.st1{fill:#7F7FBB;}
</style>
<title>Element 201</title>
<g id="Ebene_2_1_">
	<g id="Platzhalter">
		<rect y="0" class="st0" width="24" height="24"/>
	</g>
	<g id="Ebene_1-2">
		<polygon class="st1" points="10.5,18.6 12,20 12,20 12,20 18.7,13.2 17.3,11.8 13,16.1 13,1 11,1 11,16.2 6.6,11.8 5.2,13.2 
			10.6,18.5 		"/>
		<polygon class="st1" points="24,4 22,4 22,4 19,4 19,6 22,6 22,22 2,22 2,6 5,6 5,4 2,4 2,4 0,4 0,4 0,4 0,6 0,6 0,22 0,22 0,24 
			24,24 24,24 24,24 		"/>
	</g>
</g>
</svg>
