<?xml version="1.0" encoding="utf-8"?>
<!-- Generator: Adobe Illustrator 22.0.1, SVG Export Plug-In . SVG Version: 6.00 Build 0)  -->
<svg version="1.1" id="Ebene_1" xmlns="http://www.w3.org/2000/svg" xmlns:xlink="http://www.w3.org/1999/xlink" x="0px" y="0px"
	 viewBox="0 0 24 24" style="enable-background:new 0 0 24 24;" xml:space="preserve">
<style type="text/css">
	.st0{fill:none;}
	.st1{fill:#FFFFFF;}
</style>
<title>Element 219</title>
<g id="Ebene_2_1_">
	<g id="Platzhalter">
		<rect y="0" class="st0" width="24" height="24"/>
	</g>
	<g id="Ebene_1-2">
		<path class="st1" d="M12,0C5.4,0,0,5.4,0,12s5.4,12,12,12s12-5.4,12-12S18.6,0,12,0z M2,12C2,6.5,6.5,2,12,2c2.6,0,5,1,6.9,2.7
			L4.7,18.9C3,17,2,14.6,2,12z M12,22c-2.1,0-4.1-0.6-5.8-1.8L20.2,6.3c3.2,4.5,2.1,10.8-2.4,13.9C16.1,21.4,14.1,22,12,22z"/>
	</g>
</g>
</svg>
