<?xml version="1.0" encoding="utf-8"?>
<!-- Generator: Adobe Illustrator 22.0.1, SVG Export Plug-In . SVG Version: 6.00 Build 0)  -->
<svg version="1.1" id="Ebene_1" xmlns="http://www.w3.org/2000/svg" xmlns:xlink="http://www.w3.org/1999/xlink" x="0px" y="0px"
	 viewBox="0 0 24 24" style="enable-background:new 0 0 24 24;" xml:space="preserve">
<style type="text/css">
	.st0{fill:none;}
	.st1{fill:#7F7FBB;}
</style>
<title>Element 202</title>
<g id="Ebene_2_1_">
	<g id="Platzhalter">
		<rect y="0" class="st0" width="24" height="24"/>
	</g>
	<g id="Ebene_1-2">
		<polygon class="st1" points="24,22 24,4 24,4 24,4 19,4 19,6 22,6 22,22 2,22 2,6 5,6 5,4 0,4 0,6 0,6 0,24 0,24 0,24 24,24 
			24,22 		"/>
		<polygon class="st1" points="6.6,9.3 11,4.8 11,20 13,20 13,4.9 17.3,9.2 18.7,7.8 12,1 12,1 12,1 10.5,2.5 10.6,2.5 5.2,7.8 		
			"/>
	</g>
</g>
</svg>
