<?xml version="1.0" encoding="utf-8"?>
<!-- Generator: Adobe Illustrator 22.0.1, SVG Export Plug-In . SVG Version: 6.00 Build 0)  -->
<svg version="1.1" id="Ebene_1" xmlns="http://www.w3.org/2000/svg" xmlns:xlink="http://www.w3.org/1999/xlink" x="0px" y="0px"
	 viewBox="0 0 16 16" style="enable-background:new 0 0 16 16;" xml:space="preserve">
<style type="text/css">
	.st0{fill:none;}
	.st1{fill:#CECED9;}
</style>
<title>Element 237</title>
<g id="Ebene_2_1_">
	<g id="Platzhalter">
		<rect y="0" class="st0" width="16" height="16"/>
	</g>
	<g id="Ebene_1-2">
		<path class="st1" d="M8,1C4.1,1,1,4.1,1,8s3.1,7,7,7s7-3.1,7-7S11.9,1,8,1z M8,2c1.5,0,3,0.6,4.1,1.6l-8.5,8.5
			C1.4,9.7,1.5,5.9,3.9,3.6C5,2.6,6.5,2,8,2z M8,14c-1.3,0-2.6-0.4-3.6-1.2l8.4-8.4c2,2.6,1.5,6.4-1.2,8.4C10.6,13.6,9.3,14,8,14z"
			/>
	</g>
</g>
</svg>
