<?xml version="1.0" encoding="utf-8"?>
<!-- Generator: Adobe Illustrator 22.0.1, SVG Export Plug-In . SVG Version: 6.00 Build 0)  -->
<svg version="1.1" id="Ebene_1" xmlns="http://www.w3.org/2000/svg" xmlns:xlink="http://www.w3.org/1999/xlink" x="0px" y="0px"
	 viewBox="0 0 30 30" style="enable-background:new 0 0 30 30;" xml:space="preserve">
<style type="text/css">
	.st0{fill:none;}
	.st1{fill:#5757AA;}
	.st2{fill:#FFFFFF;}
	.st3{opacity:0.6;fill:#FFFFFF;enable-background:new    ;}
	.st4{opacity:0.4;fill:#FFFFFF;enable-background:new    ;}
	.st5{opacity:0.8;fill:#FFFFFF;enable-background:new    ;}
	.st6{opacity:0.3;fill:#FFFFFF;enable-background:new    ;}
	.st7{opacity:0.7;fill:#FFFFFF;enable-background:new    ;}
	.st8{opacity:0.9;fill:#FFFFFF;enable-background:new    ;}
	.st9{opacity:0.5;fill:#FFFFFF;enable-background:new    ;}
</style>
<title>Element 157</title>
<g id="Ebene_2_1_">
	<g id="Platzhalter">
		<rect y="0" class="st0" width="30" height="30"/>
	</g>
	<g id="Ebene_1-2">
		<polygon class="st1" points="22,6 16,0 16,6 		"/>
		<polygon class="st1" points="15,7 15,0 0,0 0,30 22,30 22,7 16,7 		"/>
		<rect x="10" y="12" class="st2" width="3" height="3"/>
		<rect x="10" y="24" class="st3" width="3" height="3"/>
		<rect x="16" y="18" class="st4" width="3" height="3"/>
		<rect x="4" y="18" class="st5" width="3" height="3"/>
		<rect x="14.2" y="13.8" transform="matrix(0.7071 -0.7071 0.7071 0.7071 -6.1807 15.5991)" class="st6" width="3" height="3"/>
		<rect x="5.8" y="22.2" transform="matrix(0.7071 -0.7071 0.7071 0.7071 -14.6615 12.0848)" class="st7" width="3" height="3"/>
		<rect x="5.8" y="13.8" transform="matrix(0.7071 -0.7071 0.7071 0.7071 -8.6606 9.6051)" class="st8" width="3" height="3"/>
		<rect x="14.2" y="22.2" transform="matrix(0.7071 -0.7071 0.7071 0.7071 -12.1824 18.0827)" class="st9" width="3" height="3"/>
	</g>
</g>
</svg>
