<?xml version="1.0" encoding="utf-8"?>
<!-- Generator: Adobe Illustrator 23.0.3, SVG Export Plug-In . SVG Version: 6.00 Build 0)  -->
<svg version="1.1" xmlns="http://www.w3.org/2000/svg" xmlns:xlink="http://www.w3.org/1999/xlink" x="0px" y="0px"
	 viewBox="2 2 20 20" style="enable-background:new 2 2 20 20;" xml:space="preserve">
<style type="text/css">
	.st0{opacity:0.2;fill:#FF0000;}
	.st1{fill:#CECED9;}
	.st2{fill:#5757AA;}
	.st3{fill:#9B9BAA;}
	.st4{fill:#5EA343;}
	.st5{fill:#7F7FBB;}
	.st6{opacity:0.2;fill:none;}
	.st7{fill:#E63A3F;}
	.st8{fill:#FFFFFF;}
	.st9{fill:#FAFAFA;}
	.st10{fill:none;stroke:#5757AA;stroke-width:2;stroke-linecap:round;stroke-miterlimit:10;}
	.st11{fill:#CBEBC1;}
	.st12{fill:#38396D;}
	.st13{fill:#EDEDF2;}
	.st14{fill:url(#SVGID_1_);}
	.st15{fill:url(#SVGID_2_);}
	.st16{fill:url(#SVGID_3_);}
	.st17{fill:url(#SVGID_4_);}
	.st18{fill:none;stroke:#5757AA;stroke-width:1.8947;stroke-miterlimit:10;}
	.st19{fill:#CCCCCC;stroke:#CECED9;stroke-miterlimit:10;}
	.st20{fill:none;stroke:#CECED9;stroke-width:1.6733;stroke-linecap:round;stroke-miterlimit:10;}
	.st21{fill:#E1E1E5;}
	.st22{fill:#82828F;}
	.st23{fill:#39396D;}
	.st24{fill:url(#SVGID_5_);}
	.st25{fill:#2B2B5B;}
	.st26{fill:url(#SVGID_6_);}
	.st27{fill:url(#SVGID_7_);}
	.st28{fill:#201F43;}
	.st29{opacity:0.3;fill:#5757AA;}
	.st30{opacity:0.7;fill:#5757AA;}
	.st31{opacity:0.5;fill:#5757AA;}
	.st32{opacity:0.9;fill:#5757AA;}
	.st33{opacity:0.6;fill:#5757AA;}
	.st34{opacity:0.4;fill:#5757AA;}
	.st35{opacity:0.8;fill:#5757AA;}
	.st36{opacity:0.3;fill:#FFFFFF;}
	.st37{opacity:0.7;fill:#FFFFFF;}
	.st38{opacity:0.5;fill:#FFFFFF;}
	.st39{opacity:0.9;fill:#FFFFFF;}
	.st40{opacity:0.6;fill:#FFFFFF;}
	.st41{opacity:0.4;fill:#FFFFFF;}
	.st42{opacity:0.8;fill:#FFFFFF;}
	.st43{fill:#7EB569;}
	.st44{fill:url(#SVGID_8_);}
	.st45{fill:url(#SVGID_9_);}
	.st46{fill:url(#SVGID_10_);}
	.st47{fill:url(#SVGID_11_);}
	.st48{fill:none;stroke:#FFFFFF;stroke-miterlimit:10;}
	.st49{fill:none;stroke:#FF00FF;stroke-miterlimit:10;}
	.st50{fill:none;stroke:#5757AA;stroke-width:2;stroke-miterlimit:10;}
	.st51{fill:none;stroke:#FFFFFF;stroke-width:3;stroke-miterlimit:10;}
	.st52{fill:#FFB300;}
	.st53{fill:#4F4FBD;}
	.st54{fill:#16162C;}
	.st55{fill:none;stroke:#5EA343;stroke-width:6.0526;stroke-miterlimit:10;}
	.st56{fill:#5C5C5C;}
	.st57{fill:#575769;}
	.st58{fill:#029B88;}
	.st59{fill:#5D5D5D;}
	.st60{fill:#616196;}
	.st61{fill:#1E1E21;}
	.st62{fill:#5858BF;}
	.st63{fill:url(#SVGID_12_);}
	.st64{fill:#2F3036;}
	.st65{fill:#060708;}
	.st66{fill:#DECA45;}
	.st67{fill:#AA3636;}
	.st68{opacity:0.5;}
	.st69{fill:#616193;}
	.st70{opacity:0.1;fill:#E63A3F;}
	.st71{fill:#B2B2BD;}
	.st72{fill:#DFEDD9;}
	.st73{fill:url(#SVGID_13_);}
</style>
<g id="background">
</g>
<g id="Linien">
	<g>
		<path class="st71" d="M12,18.5c-0.1,0-0.2,0-0.2,0c-4.1,0-7.5-3.4-7.5-7.5s3.4-7.5,7.5-7.5s7.5,3.4,7.5,7.5c0,0.4,0,0.8-0.1,1.1
			c0.5,0.1,1,0.3,1.4,0.5c0.1-0.5,0.2-1.1,0.2-1.6c0-5-4-9-9-9s-9,4-9,9c0,5,4,9,9,9c0.2,0,0.4,0,0.5,0C12.2,19.5,12.1,19,12,18.5z"
			/>
		<polygon class="st71" points="21,15.7 20.1,14.8 17.8,17.2 15.5,14.8 14.6,15.7 16.9,18.1 14.6,20.6 15.5,21.4 17.8,19 20.1,21.4 
			21,20.6 18.7,18.1 		"/>
		<g>
			<g>
				
					<rect x="10.1" y="11.6" transform="matrix(0.7071 -0.7071 0.7071 0.7071 -4.964 13.4094)" class="st71" width="7.1" height="2.1"/>
				<rect x="11" y="5" class="st71" width="2" height="9"/>
				<polygon class="st71" points="11.9,16 6.8,10.9 8.3,9.3 13.4,14.5 				"/>
			</g>
		</g>
	</g>
</g>
</svg>
