<?xml version="1.0" encoding="utf-8"?>
<!-- Generator: Adobe Illustrator 22.0.1, SVG Export Plug-In . SVG Version: 6.00 Build 0)  -->
<svg version="1.1" id="Ebene_1" xmlns="http://www.w3.org/2000/svg" xmlns:xlink="http://www.w3.org/1999/xlink" x="0px" y="0px"
	 viewBox="0 0 24 24" style="enable-background:new 0 0 24 24;" xml:space="preserve">
<style type="text/css">
	.st0{fill:#FFFFFF;}
</style>
<title>Element 213</title>
<g id="Ebene_2_1_">
	<g id="Ebene_1-2">
		<path class="st0" d="M1,0h6c0.6,0,1,0.4,1,1v6c0,0.6-0.4,1-1,1H1C0.4,8,0,7.6,0,7V1C0,0.4,0.4,0,1,0z"/>
		<path class="st0" d="M17,16h6c0.6,0,1,0.4,1,1v6c0,0.6-0.4,1-1,1h-6c-0.6,0-1-0.4-1-1v-6C16,16.4,16.4,16,17,16z"/>
		<rect x="13" y="3" class="st0" width="2" height="2"/>
		<rect x="19" y="3" class="st0" width="2" height="2"/>
		<rect x="19" y="9" class="st0" width="2" height="2"/>
		<rect x="9" y="18" class="st0" width="2" height="2"/>
		<rect x="3" y="18" class="st0" width="2" height="2"/>
		<rect x="3" y="12" class="st0" width="2" height="2"/>
	</g>
</g>
</svg>
