<?xml version="1.0" encoding="utf-8"?>
<!-- Generator: Adobe Illustrator 22.0.1, SVG Export Plug-In . SVG Version: 6.00 Build 0)  -->
<svg version="1.1" id="Ebene_1" xmlns="http://www.w3.org/2000/svg" xmlns:xlink="http://www.w3.org/1999/xlink" x="0px" y="0px"
	 viewBox="0 0 140 140" style="enable-background:new 0 0 140 140;" xml:space="preserve">
<style type="text/css">
	.st0{fill:#CECED9;}
	.st1{fill:#5757AA;}
	.st2{fill:#9B9BAA;}
	.st3{fill:#5EA343;}
	.st4{fill:#7F7FBB;}
	.st5{opacity:0.2;fill:none;}
	.st6{fill:#E63A3F;}
	.st7{fill:#FFFFFF;}
	.st8{fill:#FAFAFA;}
	.st9{fill:none;stroke:#5757AA;stroke-width:2;stroke-linecap:round;stroke-miterlimit:10;}
	.st10{fill:#CBEBC1;}
	.st11{fill:#EDEDF2;}
	.st12{fill:#38396D;}
	.st13{fill:url(#SVGID_1_);}
	.st14{fill:url(#SVGID_2_);}
	.st15{fill:url(#SVGID_3_);}
	.st16{fill:url(#SVGID_4_);}
	.st17{fill:none;stroke:#5757AA;stroke-width:1.8947;stroke-miterlimit:10;}
	.st18{fill:#CCCCCC;stroke:#CECED9;stroke-miterlimit:10;}
	.st19{fill:none;stroke:#CECED9;stroke-width:1.6733;stroke-linecap:round;stroke-miterlimit:10;}
	.st20{fill:#E1E1E5;}
	.st21{fill:#FF00FF;}
	.st22{fill:#82828F;}
</style>
<g>
	<path class="st2" d="M123,32c0-3.3-2.7-6-6-6H21c-3.3,0-6,2.7-6,6v58c0,3.3,2.7,6,6,6h96c3.3,0,6-2.7,6-6V32z"/>
	<path class="st2" d="M129.2,134H8.8c-1,0-1.8-1.2-1.8-2.3L17.2,102c0-1.1,0.8-2,1.8-2h100c1,0,1.8,0.7,1.8,1.8l10.2,30
		C131,132.9,130.2,134,129.2,134z"/>
	<path class="st0" d="M116,37c0-2.2-1.8-4-4-4H26c-2.2,0-4,1.8-4,4v49c0,2.2,1.8,4,4,4h86c2.2,0,4-1.8,4-4V37z"/>
</g>
<g>
	<path class="st2" d="M76.5,72.6v-0.7l-16.2,9.2c-0.6,0.3-1.2,0.5-1.8,0.5c-0.6,0-1.3-0.2-1.8-0.5l-16.9-9.6
		c-1.1-0.6-1.8-1.8-1.8-3.1V49.3c0-1.3,0.7-2.5,1.8-3.1l17-9.6c0.6-0.3,1.2-0.5,1.8-0.5c0.6,0,1.3,0.2,1.8,0.5l17,9.6
		c1.1,0.6,1.8,1.8,1.8,3.1v17l1.6-0.9c0.1-0.1,0.2-0.1,0.3-0.1v-16c0-2-1.1-3.8-2.8-4.8l-16.9-9.5c-0.9-0.5-1.8-0.7-2.8-0.7
		c-1,0-1.9,0.2-2.8,0.7l-16.9,9.5c-1.7,1-2.8,2.8-2.8,4.8v19.2c0,2,1.1,3.8,2.8,4.8l16.9,9.5c0.9,0.5,1.8,0.7,2.8,0.7
		c1,0,1.9-0.2,2.8-0.7L76.8,74C76.6,73.6,76.5,73.1,76.5,72.6z"/>
	<g>
		<path class="st2" d="M67,63.5v3.1c0,0.7,0.4,1.3,0.9,1.6l2.6,1.5c0.6,0.3,1.3,0.3,1.9,0l2.6-1.5c0.6-0.3,0.9-1,0.9-1.6v-3.1
			c0-0.7-0.4-1.3-0.9-1.6l-2.6-1.5c-0.6-0.3-1.3-0.3-1.9,0l-2.6,1.5C67.4,62.1,67,62.8,67,63.5z"/>
	</g>
	<path class="st2" d="M72.3,51c-0.2-0.3-0.6-0.4-0.9-0.2l-12.9,7.4l-12.9-7.4c-0.3-0.2-0.7-0.1-0.9,0.2c-0.2,0.3-0.1,0.7,0.2,0.9
		l12.9,7.4v18.4c0.1,0.4,0.4,0.7,0.7,0.7c0.4,0,0.7-0.3,0.8-0.7V59.2l12.8-7.4C72.4,51.7,72.5,51.3,72.3,51z"/>
	<g>
		<g>
			<path class="st2" d="M95.5,72c0.2,0,0.3,0,0.4,0.1l5.7,3.1c0.2,0.1,0.4,0.4,0.4,0.6v6.3c0,0.2-0.1,0.5-0.4,0.6l-5.7,3.1
				C95.8,86,95.7,86,95.5,86s-0.3,0-0.4-0.1l-5.7-3.1c-0.2-0.1-0.4-0.4-0.4-0.6v-6.3c0-0.2,0.1-0.5,0.4-0.6l5.7-3.1
				C95.2,72,95.3,72,95.5,72 M95.5,70c-0.5,0-1,0.1-1.4,0.4l-5.7,3.1C87.5,74,87,74.9,87,75.9v6.3c0,1,0.5,1.9,1.4,2.3l5.7,3.1
				c0.4,0.2,0.9,0.4,1.4,0.4c0.5,0,1-0.1,1.4-0.4l5.7-3.1c0.9-0.5,1.4-1.4,1.4-2.3v-6.3c0-1-0.5-1.9-1.4-2.3l-5.7-3.1
				C96.5,70.1,96,70,95.5,70L95.5,70z"/>
		</g>
	</g>
	<path class="st2" d="M101,75.7c-0.1-0.2-0.4-0.3-0.7-0.2l-4.6,2.6l-4.9-2.8c-0.2-0.1-0.5-0.1-0.7,0.2c-0.1,0.2-0.1,0.5,0.2,0.7
		l4.7,2.8v5.6c0.2,0.3,0.4,0.5,0.7,0.5c0.3,0,0.5-0.2,0.4-0.5v-5.6l4.7-2.6C101.1,76.3,101.2,76,101,75.7z"/>
	<path class="st2" d="M87,69.4c0-0.7-0.4-1.3-0.9-1.6l-2.6-1.5c-0.3-0.2-0.6-0.3-0.9-0.3s-0.6,0.1-0.9,0.3l-2.6,1.5
		c-0.6,0.3-0.9,1-0.9,1.6v3.1c0,0.7,0.4,1.3,0.9,1.6l2.6,1.5c0.3,0.2,0.6,0.3,0.9,0.3s0.6-0.1,0.9-0.3l2.6-1.5
		c0.6-0.3,0.9-1,0.9-1.6V69.4z"/>
</g>
</svg>
