<?xml version="1.0" encoding="utf-8"?>
<!-- Generator: Adobe Illustrator 22.0.1, SVG Export Plug-In . SVG Version: 6.00 Build 0)  -->
<svg version="1.1" id="Ebene_1" xmlns="http://www.w3.org/2000/svg" xmlns:xlink="http://www.w3.org/1999/xlink" x="0px" y="0px"
	 viewBox="0 0 140 140" style="enable-background:new 0 0 140 140;" xml:space="preserve">
<style type="text/css">
	.st0{fill:#CECED9;}
	.st1{fill:#5757AA;}
	.st2{fill:#9B9BAA;}
	.st3{fill:#5EA343;}
	.st4{fill:#7F7FBB;}
	.st5{opacity:0.2;fill:none;}
	.st6{fill:#E63A3F;}
	.st7{fill:#FFFFFF;}
	.st8{fill:#FAFAFA;}
	.st9{fill:none;stroke:#5757AA;stroke-width:2;stroke-linecap:round;stroke-miterlimit:10;}
	.st10{fill:#CBEBC1;}
	.st11{fill:#EDEDF2;}
	.st12{fill:#38396D;}
	.st13{fill:url(#SVGID_1_);}
	.st14{fill:url(#SVGID_2_);}
	.st15{fill:url(#SVGID_3_);}
	.st16{fill:url(#SVGID_4_);}
	.st17{fill:none;stroke:#5757AA;stroke-width:1.8947;stroke-miterlimit:10;}
	.st18{fill:#CCCCCC;stroke:#CECED9;stroke-miterlimit:10;}
	.st19{fill:none;stroke:#CECED9;stroke-width:1.6733;stroke-linecap:round;stroke-miterlimit:10;}
	.st20{fill:#E1E1E5;}
	.st21{fill:#FF00FF;}
	.st22{fill:#82828F;}
</style>
<g>
	<path class="st2" d="M39.2,6H12.8C7.4,6,3,10.4,3,15.8v108.3c0,5.4,4.4,9.8,9.8,9.8h26.3c5.4,0,9.8-4.4,9.8-9.8V15.8
		C49,10.4,44.6,6,39.2,6z M25.6,120.9c-5.4,0-9.8-4.4-9.8-9.8s4.4-9.8,9.8-9.8s9.8,4.4,9.8,9.8S31,120.9,25.6,120.9z"/>
	<rect x="62" y="114" class="st2" width="27" height="10"/>
	<rect x="56" y="121" class="st2" width="49" height="13"/>
	<path class="st2" d="M132,23H56v88h76c3.3,0,6-2.9,6-6.5V29.5C138,25.9,135.3,23,132,23z"/>
	<path class="st0" d="M126,31H56v72h70c2.2,0,4-1.9,4-4.3V35.3C130,32.9,128.2,31,126,31z"/>
</g>
<g>
	<g>
		<path class="st2" d="M82,70v3.8c0,0.8,0.4,1.5,1.1,1.9l3.3,1.9c0.7,0.4,1.5,0.4,2.2,0l3.3-1.9c0.7-0.4,1.1-1.1,1.1-1.9V70
			c0-0.8-0.4-1.5-1.1-1.9l-3.3-1.9c-0.7-0.4-1.5-0.4-2.2,0l-3.3,1.9C82.4,68.5,82,69.2,82,70z"/>
	</g>
	<path class="st2" d="M87,55.1c-0.2-0.4-0.7-0.5-1-0.3L72,63l-16-9v2.1l15,8.7V87h2V64.6l13.7-8.5C87.1,55.9,87.2,55.5,87,55.1z"/>
	<g>
		<g>
			<path class="st2" d="M117,80.4c0.2,0,0.5,0.1,0.7,0.2l6.7,3.8c0.4,0.2,0.7,0.7,0.7,1.2v7.7c0,0.5-0.3,0.9-0.7,1.2l-6.7,3.8
				c-0.2,0.1-0.4,0.2-0.7,0.2s-0.5-0.1-0.7-0.2l-6.7-3.8c-0.4-0.2-0.7-0.7-0.7-1.2v-7.7c0-0.5,0.3-0.9,0.7-1.2l6.7-3.8
				C116.5,80.4,116.8,80.4,117,80.4 M117,78.4c-0.6,0-1.2,0.1-1.7,0.4l-6.7,3.8c-1,0.6-1.7,1.7-1.7,2.9v7.7c0,1.2,0.6,2.3,1.7,2.9
				l6.7,3.8c0.5,0.3,1.1,0.4,1.7,0.4s1.2-0.1,1.7-0.4l6.7-3.8c1-0.6,1.7-1.7,1.7-2.9v-7.7c0-1.2-0.6-2.3-1.7-2.9l-6.7-3.8
				C118.2,78.5,117.6,78.4,117,78.4L117,78.4z"/>
		</g>
	</g>
	<path class="st2" d="M123.3,86.5c0.2-0.1,0.4-0.4,0.3-0.7c-0.1-0.4-0.5-0.5-0.9-0.4l-5.6,3.2l-5.9-3.4c-0.3-0.2-0.8,0-0.9,0.4
		c-0.1,0.3,0.1,0.5,0.3,0.7l6.3,3.4v6.8c-0.4,0.3-0.3,0.5,0,0.6c0.4,0.1,0.8-0.2,1-0.6v-6.8L123.3,86.5z"/>
	<path class="st2" d="M106,78.3c0-0.8-0.4-1.5-1.1-1.9l-3.2-1.9c-0.4-0.2-0.8-0.3-1.1-0.3s-0.8,0.1-1.1,0.3l-3.2,1.9
		c-0.7,0.4-1.1,1.1-1.1,1.9V82c0,0.8,0.4,1.5,1.1,1.9l3.2,1.9c0.4,0.2,0.8,0.3,1.1,0.3s0.8-0.1,1.1-0.3l3.2-1.9
		c0.7-0.4,1.1-1.1,1.1-1.9V78.3z"/>
	<g>
		<path class="st2" d="M93,80.2l-19,11c-0.7,0.4-1.4,0.6-2.1,0.6s-1.5-0.2-2.1-0.6L56,83.2V86l12.5,7.2c1,0.6,2.2,0.9,3.3,0.9
			s2.3-0.3,3.3-0.9l18.2-10.5C93.1,82.1,93,81.6,93,81V80.2z"/>
		<path class="st2" d="M94.7,47L75,35.7c-1-0.6-2.2-0.9-3.3-0.9s-2.3,0.3-3.3,0.9L56,42.8v2.7l13.7-7.9c0.7-0.4,1.4-0.6,2.1-0.6
			s1.5,0.2,2.1,0.6l19.9,11.5c1.3,0.8,2.2,2.2,2.2,3.7v20.6l2.2-1.2c0.1-0.1-0.2-0.2-0.2-0.2V52.8C98,50.4,96.7,48.2,94.7,47z"/>
	</g>
</g>
</svg>
