<?xml version="1.0" encoding="utf-8"?>
<!-- Generator: Adobe Illustrator 22.0.1, SVG Export Plug-In . SVG Version: 6.00 Build 0)  -->
<svg version="1.1" id="Ebene_1" xmlns="http://www.w3.org/2000/svg" xmlns:xlink="http://www.w3.org/1999/xlink" x="0px" y="0px"
	 viewBox="0 0 30 30" style="enable-background:new 0 0 30 30;" xml:space="preserve">
<style type="text/css">
	.st0{fill:none;}
	.st1{fill:#82828F;}
</style>
<title>Element 170</title>
<g id="Ebene_2_1_">
	<g id="Platzhalter">
		<rect y="0" class="st0" width="30" height="30"/>
	</g>
	<g id="Ebene_1-2">
		<path class="st1" d="M1,23v2h11.1c-0.3-0.6-0.6-1.3-0.8-2H1z"/>
		<path class="st1" d="M21,13c-4.4,0-8,3.6-8,8s3.6,8,8,8s8-3.6,8-8S25.4,13,21,13z M21,28c-3.9,0-7-3.1-7-7s3.1-7,7-7s7,3.1,7,7
			S24.9,28,21,28z"/>
		<polygon class="st1" points="6.5,18.9 7.9,20.3 7.9,20.3 7.9,20.4 14.7,13.6 13.3,12.1 9,16.4 9,1 7,1 7,16.6 2.5,12.1 1.1,13.5 
			6.5,18.9 		"/>
		<polygon class="st1" points="21,22 21,16 20,16 20,23 21,23 26,23 26,22 		"/>
	</g>
</g>
</svg>
