<?xml version="1.0" encoding="utf-8"?>
<!-- Generator: Adobe Illustrator 22.0.1, SVG Export Plug-In . SVG Version: 6.00 Build 0)  -->
<svg version="1.1" id="Ebene_1" xmlns="http://www.w3.org/2000/svg" xmlns:xlink="http://www.w3.org/1999/xlink" x="0px" y="0px"
	 viewBox="0 0 24 24" style="enable-background:new 0 0 24 24;" xml:space="preserve">
<style type="text/css">
	.st0{fill:#82828F;}
	.st1{fill:#FFFFFF;}
</style>
<title>Element 211</title>
<g id="Ebene_2_1_">
	<g id="Ebene_1-2">
		<circle class="st0" cx="12" cy="12" r="12"/>
		<path class="st1" d="M12.7,16h-2.7c0-0.4,0-0.6,0-0.7c0-0.7,0.1-1.4,0.4-2.1c0.4-0.7,1-1.4,1.7-1.8c0.5-0.4,1.1-0.9,1.5-1.4
			c0.3-0.3,0.4-0.7,0.4-1.1c0-0.6-0.2-1.1-0.7-1.4c-0.5-0.4-1.2-0.6-1.9-0.6c-0.7,0-1.3,0.2-1.9,0.6C9.2,8,8.8,8.7,8.7,9.4L6,9.1
			C6.1,7.9,6.7,6.8,7.6,6c1.1-0.9,2.5-1.3,3.9-1.3c1.4-0.1,2.9,0.4,4,1.3C16.4,6.7,17,7.8,17,9c0,0.6-0.2,1.3-0.5,1.8
			c-0.7,0.9-1.5,1.7-2.4,2.3c-0.4,0.3-0.8,0.8-1.1,1.2C12.8,14.9,12.7,15.4,12.7,16z M9.9,20v-3h3.1v3H9.9z"/>
	</g>
</g>
</svg>
