<?xml version="1.0" encoding="utf-8"?>
<!-- Generator: Adobe Illustrator 22.0.1, SVG Export Plug-In . SVG Version: 6.00 Build 0)  -->
<svg version="1.1" id="Ebene_1" xmlns="http://www.w3.org/2000/svg" xmlns:xlink="http://www.w3.org/1999/xlink" x="0px" y="0px"
	 viewBox="0 0 30 30" style="enable-background:new 0 0 30 30;" xml:space="preserve">
<style type="text/css">
	.st0{fill:none;}
	.st1{fill:#82828F;}
</style>
<title>Element 171</title>
<g id="Ebene_2_1_">
	<g id="Platzhalter">
		<rect y="0" class="st0" width="30" height="30"/>
	</g>
	<g id="Ebene_1-2">
		<polygon class="st1" points="6.5,18.9 7.9,20.3 7.9,20.3 7.9,20.4 14.7,13.6 13.3,12.1 9,16.4 9,1 7,1 7,16.6 2.5,12.1 1.1,13.5 
			6.5,18.9 		"/>
		<polygon class="st1" points="1,23 1,25 11,25 13.1,23 		"/>
		<rect x="20" y="14" class="st1" width="3" height="3"/>
		<rect x="20" y="26" class="st1" width="3" height="3"/>
		<rect x="26" y="20" class="st1" width="3" height="3"/>
		<rect x="14" y="20" class="st1" width="3" height="3"/>
		<rect x="24.2" y="15.8" transform="matrix(0.7071 -0.7071 0.7071 0.7071 -4.6666 23.2613)" class="st1" width="3" height="3"/>
		<rect x="15.8" y="24.2" transform="matrix(0.7071 -0.7071 0.7071 0.7071 -13.1443 19.7395)" class="st1" width="3" height="3"/>
		<rect x="15.8" y="15.8" transform="matrix(0.7071 -0.7071 0.7071 0.7071 -7.1495 17.2595)" class="st1" width="3" height="3"/>
		<rect x="24.2" y="24.2" transform="matrix(0.7071 -0.7071 0.7071 0.7071 -10.6613 25.7413)" class="st1" width="3" height="3"/>
	</g>
</g>
</svg>
