<?xml version="1.0" encoding="utf-8"?>
<!-- Generator: Adobe Illustrator 22.0.1, SVG Export Plug-In . SVG Version: 6.00 Build 0)  -->
<svg version="1.1" id="Ebene_1" xmlns="http://www.w3.org/2000/svg" xmlns:xlink="http://www.w3.org/1999/xlink" x="0px" y="0px"
	 viewBox="0 0 30 30" style="enable-background:new 0 0 30 30;" xml:space="preserve">
<style type="text/css">
	.st0{fill:none;}
	.st1{fill:#82828F;}
</style>
<title>Element 169</title>
<g id="Ebene_2_1_">
	<g id="Platzhalter">
		<rect y="0" class="st0" width="30" height="30"/>
	</g>
	<g id="Ebene_1-2">
		<polygon class="st1" points="9,16.1 9,1 7,1 7,16.2 2.6,11.8 1.2,13.2 6.6,18.5 6.5,18.5 8,20 8,20 8,20 14.7,13.2 13.3,11.8 		
			"/>
		<polygon class="st1" points="1,25 11.5,25 13.4,23 1,23 		"/>
		<polygon class="st1" points="28.2,16.1 26.4,14.4 21.9,19.1 17.4,14.4 15.6,16.1 20.2,20.9 15.6,25.7 17.4,27.4 21.9,22.7 
			26.4,27.4 28.2,25.7 23.6,20.9 		"/>
	</g>
</g>
</svg>
