<?xml version="1.0" encoding="utf-8"?>
<!-- Generator: Adobe Illustrator 24.3.0, SVG Export Plug-In . SVG Version: 6.00 Build 0)  -->
<svg version="1.1" xmlns="http://www.w3.org/2000/svg" xmlns:xlink="http://www.w3.org/1999/xlink" x="0px" y="0px"
	 viewBox="0 0 24 24" style="enable-background:new 0 0 24 24;" xml:space="preserve">
<style type="text/css">
	.st0{display:none;}
	.st1{display:inline;opacity:0.2;fill:#FF0000;}
	.st2{fill:#5757AA;}
	.st3{fill:#CECED9;}
	.st4{fill:#9B9BAA;}
	.st5{fill:#5EA343;}
	.st6{fill:#7F7FBB;}
	.st7{opacity:0.2;fill:none;}
	.st8{fill:#E63A3F;}
	.st9{fill:#FFFFFF;}
	.st10{fill:#FAFAFA;}
	.st11{fill:none;stroke:#7F7FBB;stroke-width:2;stroke-linecap:round;stroke-miterlimit:10;}
	.st12{fill:none;stroke:#5757AA;stroke-width:2;stroke-linecap:round;stroke-miterlimit:10;}
	.st13{fill:#CBEBC1;}
	.st14{fill:#38396D;}
	.st15{fill:#EDEDF2;}
	.st16{fill:url(#SVGID_1_);}
	.st17{fill:url(#SVGID_2_);}
	.st18{fill:url(#SVGID_3_);}
	.st19{fill:url(#SVGID_4_);}
	.st20{fill:none;stroke:#5757AA;stroke-width:1.8947;stroke-miterlimit:10;}
	.st21{fill:#CCCCCC;stroke:#CECED9;stroke-miterlimit:10;}
	.st22{fill:none;stroke:#CECED9;stroke-width:1.6733;stroke-linecap:round;stroke-miterlimit:10;}
	.st23{fill:#E1E1E5;}
	.st24{fill:#82828F;}
	.st25{fill:#39396D;}
	.st26{fill:url(#SVGID_5_);}
	.st27{fill:#2B2B5B;}
	.st28{fill:url(#SVGID_6_);}
	.st29{fill:url(#SVGID_7_);}
	.st30{fill:#201F43;}
	.st31{opacity:0.3;fill:#5757AA;}
	.st32{opacity:0.7;fill:#5757AA;}
	.st33{opacity:0.5;fill:#5757AA;}
	.st34{opacity:0.9;fill:#5757AA;}
	.st35{opacity:0.6;fill:#5757AA;}
	.st36{opacity:0.4;fill:#5757AA;}
	.st37{opacity:0.8;fill:#5757AA;}
	.st38{opacity:0.3;fill:#FFFFFF;}
	.st39{opacity:0.7;fill:#FFFFFF;}
	.st40{opacity:0.5;fill:#FFFFFF;}
	.st41{opacity:0.9;fill:#FFFFFF;}
	.st42{opacity:0.6;fill:#FFFFFF;}
	.st43{opacity:0.4;fill:#FFFFFF;}
	.st44{opacity:0.8;fill:#FFFFFF;}
	.st45{fill:#7EB569;}
	.st46{fill:url(#SVGID_8_);}
	.st47{fill:url(#SVGID_9_);}
	.st48{fill:url(#SVGID_10_);}
	.st49{fill:url(#SVGID_11_);}
	.st50{fill:none;stroke:#FFFFFF;stroke-miterlimit:10;}
	.st51{fill:none;stroke:#5757AA;stroke-width:2;stroke-miterlimit:10;}
	.st52{fill:none;stroke:#FFFFFF;stroke-width:3;stroke-miterlimit:10;}
	.st53{fill:none;stroke:#5757AA;stroke-miterlimit:10;}
	.st54{fill:#FFB300;}
	.st55{fill:#4F4FBD;}
	.st56{fill:#16162C;}
	.st57{fill:#5C5C5C;}
	.st58{fill:#575769;}
	.st59{fill:#029B88;}
	.st60{fill:#5D5D5D;}
	.st61{fill:#616196;}
	.st62{fill:#1E1E21;}
	.st63{fill:#5858BF;}
	.st64{fill:url(#SVGID_12_);}
	.st65{fill:#2F3036;}
	.st66{fill:#060708;}
	.st67{fill:#DECA45;}
	.st68{fill:#AA3636;}
	.st69{opacity:0.5;}
	.st70{fill:#616193;}
	.st71{fill:none;stroke:#5EA343;stroke-width:6.0526;stroke-miterlimit:10;}
	.st72{opacity:0.1;fill:#E63A3F;}
	.st73{fill:#B2B2BD;}
	.st74{fill:#DFEDD9;}
	.st75{fill:url(#SVGID_13_);}
	.st76{fill:none;stroke:#5757AA;stroke-width:2;stroke-linecap:square;stroke-miterlimit:10;}
	.st77{fill:url(#SVGID_14_);}
	.st78{fill:url(#SVGID_15_);}
	.st79{fill:url(#SVGID_16_);}
	.st80{fill:url(#SVGID_17_);}
	.st81{fill:#ABABD4;}
	.st82{fill:#474763;}
	.st83{fill:none;stroke:#39396D;stroke-width:2;stroke-miterlimit:10;}
	.st84{fill:#BFBFDE;}
	.st85{fill:none;stroke:#39396D;stroke-width:1.5;stroke-miterlimit:10;}
	.st86{fill:#939393;}
	.st87{fill:#7F7FBB;stroke:#39396D;stroke-width:2;stroke-miterlimit:10;}
	.st88{display:inline;fill:none;stroke:#FF00FF;stroke-miterlimit:10;}
</style>
<g id="background" class="st0">
</g>
<g id="Icons">
	<g>
		<path class="st84" d="M14.2,9l-1.6,2.4l1.6,2.6h-1.8l-0.7-1.3c-0.1-0.1-0.1-0.3-0.2-0.5h0c0,0.1-0.1,0.3-0.2,0.4L10.5,14H8.8
			l1.7-2.5L8.9,9h1.8l0.7,1.4c0.1,0.2,0.2,0.3,0.2,0.5h0c0.1-0.2,0.1-0.3,0.2-0.5L12.5,9H14.2z"/>
	</g>
	<g>
		<path class="st6" d="M22,20.7l-3.2-3.2c3-3.7,2.8-9.2-0.6-12.7C16.4,2.9,13.9,2,11.5,2S6.6,2.9,4.8,4.8c-3.7,3.7-3.7,9.7,0,13.4
			c1.9,1.9,4.3,2.8,6.7,2.8c2.1,0,4.2-0.7,6-2.1l3.2,3.2c0.4,0.4,1,0.4,1.4,0l0,0C22.4,21.7,22.4,21.1,22,20.7z M5.8,17.2
			C2.7,14,2.7,9,5.8,5.8c1.5-1.5,3.5-2.3,5.7-2.3s4.1,0.8,5.7,2.3c3.1,3.1,3.1,8.2,0,11.3c-1.5,1.5-3.5,2.3-5.7,2.3
			S7.4,18.7,5.8,17.2z"/>
	</g>
</g>
<g id="Markierung_für_Neue_Icons" class="st0">
	<rect x="-244.5" y="-10.5" class="st88" width="427" height="148"/>
</g>
</svg>
