<?xml version="1.0" encoding="utf-8"?>
<!-- Generator: Adobe Illustrator 22.0.1, SVG Export Plug-In . SVG Version: 6.00 Build 0)  -->
<svg version="1.1" id="Ebene_1" xmlns="http://www.w3.org/2000/svg" xmlns:xlink="http://www.w3.org/1999/xlink" x="0px" y="0px"
	 viewBox="0 0 24 24" style="enable-background:new 0 0 24 24;" xml:space="preserve">
<style type="text/css">
	.st0{fill:#CECED9;}
	.st1{fill:#5757AA;}
	.st2{fill:#9B9BAA;}
	.st3{fill:#5EA343;}
	.st4{fill:#7F7FBB;}
	.st5{opacity:0.2;fill:none;}
	.st6{fill:#E63A3F;}
	.st7{fill:#FFFFFF;}
	.st8{fill:#FAFAFA;}
	.st9{fill:none;stroke:#5757AA;stroke-width:2;stroke-linecap:round;stroke-miterlimit:10;}
	.st10{fill:#CBEBC1;}
	.st11{fill:#EDEDF2;}
	.st12{fill:#38396D;}
	.st13{fill:url(#SVGID_1_);}
	.st14{fill:url(#SVGID_2_);}
	.st15{fill:url(#SVGID_3_);}
	.st16{fill:url(#SVGID_4_);}
	.st17{fill:none;stroke:#5757AA;stroke-width:1.8947;stroke-miterlimit:10;}
	.st18{fill:#CCCCCC;stroke:#CECED9;stroke-miterlimit:10;}
	.st19{fill:none;stroke:#CECED9;stroke-width:1.6733;stroke-linecap:round;stroke-miterlimit:10;}
	.st20{fill:#E1E1E5;}
	.st21{fill:#FF00FF;}
	.st22{fill:#82828F;}
</style>
<rect y="0" class="st3" width="24" height="24"/>
<path class="st7" d="M22,14V9h-6v5h0.6l-2.5,2.9c-0.3-0.3-0.7-0.5-1.1-0.7V7h3V2H9v5h3v9c-0.8,0-1.6,0.3-2.1,0.9L7.4,14H8V9H2v5
	h4.1l3.2,3.7C9.1,18.1,9,18.5,9,19c0,1.7,1.3,3,3,3s3-1.3,3-3c0-0.5-0.1-0.9-0.3-1.3L18,14H22z"/>
<g>
	<path class="st21" d="M254-4v33H-5V-4H254 M255-5H-6v35h261V-5L255-5z"/>
</g>
</svg>
