<?xml version="1.0" encoding="utf-8"?>
<!-- Generator: Adobe Illustrator 24.0.2, SVG Export Plug-In . SVG Version: 6.00 Build 0)  -->
<svg version="1.1" xmlns="http://www.w3.org/2000/svg" xmlns:xlink="http://www.w3.org/1999/xlink" x="0px" y="0px"
	 viewBox="0 0 24 24" style="enable-background:new 0 0 24 24;" xml:space="preserve">
<style type="text/css">
	.st0{display:none;}
	.st1{display:inline;opacity:0.2;fill:#FF0000;}
	.st2{fill:#CECED9;}
	.st3{fill:#5757AA;}
	.st4{fill:#9B9BAA;}
	.st5{fill:#5EA343;}
	.st6{fill:#7F7FBB;}
	.st7{opacity:0.2;fill:none;}
	.st8{fill:#E63A3F;}
	.st9{fill:#FFFFFF;}
	.st10{fill:#FAFAFA;}
	.st11{fill:none;stroke:#5757AA;stroke-width:2;stroke-linecap:round;stroke-miterlimit:10;}
	.st12{fill:#CBEBC1;}
	.st13{fill:#38396D;}
	.st14{fill:#EDEDF2;}
	.st15{fill:url(#SVGID_1_);}
	.st16{fill:url(#SVGID_2_);}
	.st17{fill:url(#SVGID_3_);}
	.st18{fill:url(#SVGID_4_);}
	.st19{fill:none;stroke:#5757AA;stroke-width:1.8947;stroke-miterlimit:10;}
	.st20{fill:#CCCCCC;stroke:#CECED9;stroke-miterlimit:10;}
	.st21{fill:none;stroke:#CECED9;stroke-width:1.6733;stroke-linecap:round;stroke-miterlimit:10;}
	.st22{fill:#E1E1E5;}
	.st23{fill:#82828F;}
	.st24{fill:#39396D;}
	.st25{fill:url(#SVGID_5_);}
	.st26{fill:#2B2B5B;}
	.st27{fill:url(#SVGID_6_);}
	.st28{fill:url(#SVGID_7_);}
	.st29{fill:#201F43;}
	.st30{opacity:0.3;fill:#5757AA;}
	.st31{opacity:0.7;fill:#5757AA;}
	.st32{opacity:0.5;fill:#5757AA;}
	.st33{opacity:0.9;fill:#5757AA;}
	.st34{opacity:0.6;fill:#5757AA;}
	.st35{opacity:0.4;fill:#5757AA;}
	.st36{opacity:0.8;fill:#5757AA;}
	.st37{opacity:0.3;fill:#FFFFFF;}
	.st38{opacity:0.7;fill:#FFFFFF;}
	.st39{opacity:0.5;fill:#FFFFFF;}
	.st40{opacity:0.9;fill:#FFFFFF;}
	.st41{opacity:0.6;fill:#FFFFFF;}
	.st42{opacity:0.4;fill:#FFFFFF;}
	.st43{opacity:0.8;fill:#FFFFFF;}
	.st44{fill:#7EB569;}
	.st45{fill:url(#SVGID_8_);}
	.st46{fill:url(#SVGID_9_);}
	.st47{fill:url(#SVGID_10_);}
	.st48{fill:url(#SVGID_11_);}
	.st49{fill:none;stroke:#FFFFFF;stroke-miterlimit:10;}
	.st50{fill:none;stroke:#5757AA;stroke-width:2;stroke-miterlimit:10;}
	.st51{fill:none;stroke:#FFFFFF;stroke-width:3;stroke-miterlimit:10;}
	.st52{fill:none;stroke:#5757AA;stroke-miterlimit:10;}
	.st53{fill:#FFB300;}
	.st54{fill:#4F4FBD;}
	.st55{fill:#16162C;}
	.st56{fill:none;stroke:#5EA343;stroke-width:6.0526;stroke-miterlimit:10;}
	.st57{fill:#5C5C5C;}
	.st58{fill:#575769;}
	.st59{fill:#029B88;}
	.st60{fill:#5D5D5D;}
	.st61{fill:#616196;}
	.st62{fill:#1E1E21;}
	.st63{fill:#5858BF;}
	.st64{fill:url(#SVGID_12_);}
	.st65{fill:#2F3036;}
	.st66{fill:#060708;}
	.st67{fill:#DECA45;}
	.st68{fill:#AA3636;}
	.st69{opacity:0.5;}
	.st70{fill:#616193;}
	.st71{opacity:0.1;fill:#E63A3F;}
	.st72{fill:#B2B2BD;}
	.st73{fill:#DFEDD9;}
	.st74{fill:url(#SVGID_13_);}
	.st75{fill:none;stroke:#5757AA;stroke-width:2;stroke-linecap:square;stroke-miterlimit:10;}
	.st76{fill:url(#SVGID_14_);}
	.st77{fill:url(#SVGID_15_);}
	.st78{fill:url(#SVGID_16_);}
	.st79{fill:url(#SVGID_17_);}
</style>
<g id="background" class="st0">
	<rect y="0" class="st1" width="24" height="24"/>
</g>
<g id="Icons">
	<g>
		<g>
			<path class="st3" d="M2,23.2c-0.4,0-0.7-0.1-0.8-0.3C0.6,22.4,0.9,21.3,1,21l0-0.1L3,19c-0.1-0.6-0.2-1.8,0.5-2.5l9-9l4,4l-9,9
				c-0.4,0.4-1,0.6-1.8,0.6c-0.3,0-0.6,0-0.7-0.1L3.1,23L3,23C2.9,23,2.4,23.2,2,23.2z"/>
			<path class="st10" d="M12.5,8.1l3.3,3.3c0,0-8,8-8.7,8.7c-0.3,0.3-0.9,0.4-1.4,0.4c-0.5,0-0.9-0.1-0.9-0.1l-2,2
				c0,0-0.4,0.1-0.8,0.1c-0.2,0-0.4,0-0.5-0.1c-0.3-0.3,0-1.3,0-1.3l2-2c0,0-0.3-1.7,0.3-2.3C4.5,16.2,12.5,8.1,12.5,8.1 M12.5,6.7
				l-0.7,0.7l-8.7,8.7c-0.7,0.7-0.8,2-0.7,2.7l-1.7,1.7l-0.2,0.2l-0.1,0.2c-0.2,0.5-0.5,1.7,0.2,2.4c0.3,0.3,0.7,0.4,1.2,0.4
				c0.5,0,1.1-0.2,1.2-0.2l0.2-0.1l0.2-0.2l1.7-1.7c0.2,0,0.4,0,0.6,0c0.9,0,1.7-0.2,2.1-0.7l8.7-8.7l0.7-0.7l-0.7-0.7l-3.3-3.3
				L12.5,6.7L12.5,6.7z"/>
		</g>
		<g>
			<path class="st3" d="M17.9,12.3c-0.4,0-0.8-0.2-1-0.4l-4.7-4.7c-0.3-0.3-0.4-0.6-0.4-1c0-0.4,0.1-0.7,0.4-1l0.7-0.7
				c0.3-0.3,0.6-0.4,1-0.4c0.4,0,0.8,0.2,1,0.4L15.4,5c0.4-0.6,1.2-1.6,2.8-3.2c0.4-0.4,1-0.6,1.6-0.6c0.8,0,1.5,0.3,2.1,0.9
				C23.1,3.4,23,5,22.2,5.8c-1.6,1.6-2.6,2.4-3.2,2.8l0.5,0.5c0.6,0.6,0.6,1.5,0,2l-0.7,0.7C18.6,12.1,18.2,12.3,17.9,12.3z"/>
			<path class="st10" d="M19.7,1.7c0.6,0,1.2,0.2,1.8,0.8c1,1,1,2.3,0.3,3c-2.7,2.7-3.7,3-3.7,3l1,1c0.4,0.4,0.4,1,0,1.3l-0.7,0.7
				c-0.2,0.2-0.4,0.3-0.7,0.3c-0.2,0-0.5-0.1-0.7-0.3l-4.7-4.7c-0.4-0.4-0.4-1,0-1.3l0.7-0.7c0.2-0.2,0.4-0.3,0.7-0.3
				c0.2,0,0.5,0.1,0.7,0.3l1,1c0,0,0.3-1,3-3.7C18.8,1.8,19.3,1.7,19.7,1.7 M19.7,0.7c-0.8,0-1.4,0.3-1.9,0.8
				c-1.2,1.2-2,2.1-2.5,2.8l-0.1-0.1c-0.4-0.4-0.9-0.6-1.4-0.6c-0.5,0-1,0.2-1.4,0.6l-0.7,0.7c-0.4,0.4-0.6,0.9-0.6,1.4
				c0,0.5,0.2,1,0.6,1.4l4.7,4.7c0.4,0.4,0.9,0.6,1.4,0.6s1-0.2,1.4-0.6l0.7-0.7c0.4-0.4,0.6-0.9,0.6-1.4c0-0.5-0.2-1-0.6-1.4
				l-0.1-0.1c0.6-0.5,1.6-1.2,2.8-2.5c1.1-1.1,1-3.1-0.3-4.4C21.5,1.1,20.6,0.7,19.7,0.7L19.7,0.7z"/>
		</g>
	</g>
</g>
<g id="Linien" class="st0">
</g>
</svg>
