<?xml version="1.0" encoding="utf-8"?>
<!-- Generator: Adobe Illustrator 22.0.1, SVG Export Plug-In . SVG Version: 6.00 Build 0)  -->
<svg version="1.1" id="Ebene_1" xmlns="http://www.w3.org/2000/svg" xmlns:xlink="http://www.w3.org/1999/xlink" x="0px" y="0px"
	 viewBox="0 0 210 210" style="enable-background:new 0 0 210 210;" xml:space="preserve">
<style type="text/css">
	.st0{fill:#CECED9;}
	.st1{fill:#5757AA;}
	.st2{fill:#9B9BAA;}
	.st3{fill:#5EA343;}
	.st4{fill:#7F7FBB;}
	.st5{opacity:0.2;fill:none;}
	.st6{fill:#E63A3F;}
	.st7{fill:#FFFFFF;}
	.st8{fill:#FAFAFA;}
	.st9{fill:none;stroke:#5757AA;stroke-width:2;stroke-linecap:round;stroke-miterlimit:10;}
	.st10{fill:#CBEBC1;}
	.st11{fill:#EDEDF2;}
	.st12{fill:#38396D;}
	.st13{fill:url(#SVGID_1_);}
	.st14{fill:url(#SVGID_2_);}
	.st15{fill:url(#SVGID_3_);}
	.st16{fill:url(#SVGID_4_);}
	.st17{fill:none;stroke:#5757AA;stroke-width:1.8947;stroke-miterlimit:10;}
	.st18{fill:#CCCCCC;stroke:#CECED9;stroke-miterlimit:10;}
	.st19{fill:none;stroke:#CECED9;stroke-width:1.6733;stroke-linecap:round;stroke-miterlimit:10;}
	.st20{fill:#E1E1E5;}
	.st21{fill:#FF00FF;}
	.st22{fill:#82828F;}
</style>
<g>
	<g>
		<path class="st20" d="M93.8,4.5H15.2C7.9,4.5,2,10.1,2,17.1v58c0,6.8,5.8,12.4,13,12.4h7.9l8.4-16h41.8l8.4,16h12.4
			c7.3,0,13.2-5.6,13.2-12.6V17.1C107,10.1,101.1,4.5,93.8,4.5z"/>
	</g>
	<polygon class="st1" points="165,100.5 165,112.5 61,112.5 61,100.5 44,100.5 44,112.5 2,112.5 2,124.5 105,124.5 105,137.5 
		118,137.5 118,124.5 178,124.5 178,111.2 178,100.5 	"/>
	<polygon class="st20" points="69,80.5 35.5,80.5 31.3,88.5 35.5,96.5 69,96.5 73.2,88.5 	"/>
	<polygon class="st20" points="121.5,142.5 100.6,142.5 92.2,150.5 100.6,158.5 121.5,158.5 129.8,150.5 	"/>
	<path class="st20" d="M139.3,151.1L139.3,151.1l-13.1,16.4H95.8l-13.1-16.4l0,0c-4.8,0-8.7,3.7-8.7,8.2v37c0,4.6,3.9,8.3,8.7,8.3
		h56.6c4.8,0,8.7-3.7,8.7-8.3v-37C148,154.7,144.1,151.1,139.3,151.1z"/>
	<polygon class="st20" points="182.4,96.5 161.5,96.5 153.2,88.5 161.5,80.5 182.4,80.5 190.8,88.5 	"/>
	<g>
		<path class="st20" d="M200.3,87.9L200.3,87.9l-13.1-16.4h-30.5l-13.1,16.4l0,0c-4.8,0-8.7-3.7-8.7-8.2v-37c0-4.6,3.9-8.3,8.7-8.3
			h56.6c4.8,0,8.7,3.7,8.7,8.3v37C209,84.3,205.1,87.9,200.3,87.9z"/>
	</g>
</g>
<g>
	<path class="st21" d="M449-10.5v232H-5v-232H449 M450-11.5H-6v234h456V-11.5L450-11.5z"/>
</g>
</svg>
