<?xml version="1.0" encoding="utf-8"?>
<!-- Generator: Adobe Illustrator 24.1.3, SVG Export Plug-In . SVG Version: 6.00 Build 0)  -->
<svg version="1.1" xmlns="http://www.w3.org/2000/svg" xmlns:xlink="http://www.w3.org/1999/xlink" x="0px" y="0px"
	 viewBox="0 0 16 16" style="enable-background:new 0 0 16 16;" xml:space="preserve">
<style type="text/css">
	.st0{display:none;}
	.st1{display:inline;opacity:0.2;fill:#FF0000;}
	.st2{fill:#CECED9;}
	.st3{fill:#5757AA;}
	.st4{fill:#9B9BAA;}
	.st5{fill:#5EA343;}
	.st6{fill:#7F7FBB;}
	.st7{opacity:0.2;fill:none;}
	.st8{fill:#E63A3F;}
	.st9{fill:#FFFFFF;}
	.st10{fill:#FAFAFA;}
	.st11{fill:none;stroke:#5757AA;stroke-width:2;stroke-linecap:round;stroke-miterlimit:10;}
	.st12{fill:#CBEBC1;}
	.st13{fill:#38396D;}
	.st14{fill:#EDEDF2;}
	.st15{fill:url(#SVGID_1_);}
	.st16{fill:url(#SVGID_2_);}
	.st17{fill:url(#SVGID_3_);}
	.st18{fill:url(#SVGID_4_);}
	.st19{fill:none;stroke:#5757AA;stroke-width:1.8947;stroke-miterlimit:10;}
	.st20{fill:#CCCCCC;stroke:#CECED9;stroke-miterlimit:10;}
	.st21{fill:none;stroke:#CECED9;stroke-width:1.6733;stroke-linecap:round;stroke-miterlimit:10;}
	.st22{fill:#E1E1E5;}
	.st23{fill:#82828F;}
	.st24{fill:#39396D;}
	.st25{fill:url(#SVGID_5_);}
	.st26{fill:#2B2B5B;}
	.st27{fill:url(#SVGID_6_);}
	.st28{fill:url(#SVGID_7_);}
	.st29{fill:#201F43;}
	.st30{opacity:0.3;fill:#5757AA;}
	.st31{opacity:0.7;fill:#5757AA;}
	.st32{opacity:0.5;fill:#5757AA;}
	.st33{opacity:0.9;fill:#5757AA;}
	.st34{opacity:0.6;fill:#5757AA;}
	.st35{opacity:0.4;fill:#5757AA;}
	.st36{opacity:0.8;fill:#5757AA;}
	.st37{opacity:0.3;fill:#FFFFFF;}
	.st38{opacity:0.7;fill:#FFFFFF;}
	.st39{opacity:0.5;fill:#FFFFFF;}
	.st40{opacity:0.9;fill:#FFFFFF;}
	.st41{opacity:0.6;fill:#FFFFFF;}
	.st42{opacity:0.4;fill:#FFFFFF;}
	.st43{opacity:0.8;fill:#FFFFFF;}
	.st44{fill:#7EB569;}
	.st45{fill:url(#SVGID_8_);}
	.st46{fill:url(#SVGID_9_);}
	.st47{fill:url(#SVGID_10_);}
	.st48{fill:url(#SVGID_11_);}
	.st49{fill:none;stroke:#FFFFFF;stroke-miterlimit:10;}
	.st50{fill:none;stroke:#5757AA;stroke-width:2;stroke-miterlimit:10;}
	.st51{fill:none;stroke:#FFFFFF;stroke-width:3;stroke-miterlimit:10;}
	.st52{fill:none;stroke:#5757AA;stroke-miterlimit:10;}
	.st53{fill:#FFB300;}
	.st54{fill:#4F4FBD;}
	.st55{fill:#16162C;}
	.st56{fill:#5C5C5C;}
	.st57{fill:#575769;}
	.st58{fill:#029B88;}
	.st59{fill:#5D5D5D;}
	.st60{fill:#616196;}
	.st61{fill:#1E1E21;}
	.st62{fill:#5858BF;}
	.st63{fill:url(#SVGID_12_);}
	.st64{fill:#2F3036;}
	.st65{fill:#060708;}
	.st66{fill:#DECA45;}
	.st67{fill:#AA3636;}
	.st68{opacity:0.5;}
	.st69{fill:#616193;}
	.st70{fill:none;stroke:#5EA343;stroke-width:6.0526;stroke-miterlimit:10;}
	.st71{opacity:0.1;fill:#E63A3F;}
	.st72{fill:#B2B2BD;}
	.st73{fill:#DFEDD9;}
	.st74{fill:url(#SVGID_13_);}
	.st75{fill:none;stroke:#5757AA;stroke-width:2;stroke-linecap:square;stroke-miterlimit:10;}
	.st76{fill:url(#SVGID_14_);}
	.st77{fill:url(#SVGID_15_);}
	.st78{fill:url(#SVGID_16_);}
	.st79{fill:url(#SVGID_17_);}
	.st80{fill:#ABABD4;}
	.st81{display:inline;fill:none;stroke:#FF00FF;stroke-miterlimit:10;}
</style>
<g id="background" class="st0">
</g>
<g id="Icons">
	<g>
		<path class="st3" d="M9,10.2C9,10.6,8.6,11,8.2,11H2.8C2.4,11,2,10.6,2,10.2V6.8C2,6.4,2.4,6,2.8,6H4V4H2.8C1.3,4,0,5.3,0,6.8v3.4
			C0,11.7,1.3,13,2.8,13h5.4c1.5,0,2.8-1.3,2.8-2.8V7H9V10.2z"/>
		<path class="st3" d="M13.2,4H7.8C6.3,4,5,5.3,5,6.8V10h2V6.8C7,6.4,7.4,6,7.8,6h5.4C13.6,6,14,6.4,14,6.8v3.4
			c0,0.4-0.4,0.8-0.8,0.8H12v2h1.2c1.5,0,2.8-1.3,2.8-2.8V6.8C16,5.3,14.7,4,13.2,4z"/>
	</g>
</g>
</svg>
