<?xml version="1.0" encoding="utf-8"?>
<!-- Generator: Adobe Illustrator 24.1.3, SVG Export Plug-In . SVG Version: 6.00 Build 0)  -->
<svg version="1.1" xmlns="http://www.w3.org/2000/svg" xmlns:xlink="http://www.w3.org/1999/xlink" x="0px" y="0px"
	 viewBox="0 0 21 21" style="enable-background:new 0 0 21 21;" xml:space="preserve">
<style type="text/css">
	.st0{opacity:0.2;fill:#FF0000;}
	.st1{fill:#5757AA;}
	.st2{fill:#CECED9;}
	.st3{fill:#9B9BAA;}
	.st4{fill:#5EA343;}
	.st5{fill:#7F7FBB;}
	.st6{opacity:0.2;fill:none;}
	.st7{fill:#E63A3F;}
	.st8{fill:#FFFFFF;}
	.st9{fill:#FAFAFA;}
	.st10{fill:none;stroke:#5757AA;stroke-width:2;stroke-linecap:round;stroke-miterlimit:10;}
	.st11{fill:#CBEBC1;}
	.st12{fill:#38396D;}
	.st13{fill:#EDEDF2;}
	.st14{fill:url(#SVGID_1_);}
	.st15{fill:url(#SVGID_2_);}
	.st16{fill:url(#SVGID_3_);}
	.st17{fill:url(#SVGID_4_);}
	.st18{fill:none;stroke:#5757AA;stroke-width:1.8947;stroke-miterlimit:10;}
	.st19{fill:#CCCCCC;stroke:#CECED9;stroke-miterlimit:10;}
	.st20{fill:none;stroke:#CECED9;stroke-width:1.6733;stroke-linecap:round;stroke-miterlimit:10;}
	.st21{fill:#E1E1E5;}
	.st22{fill:#82828F;}
	.st23{fill:#39396D;}
	.st24{fill:url(#SVGID_5_);}
	.st25{fill:#2B2B5B;}
	.st26{fill:url(#SVGID_6_);}
	.st27{fill:url(#SVGID_7_);}
	.st28{fill:#201F43;}
	.st29{opacity:0.3;fill:#5757AA;}
	.st30{opacity:0.7;fill:#5757AA;}
	.st31{opacity:0.5;fill:#5757AA;}
	.st32{opacity:0.9;fill:#5757AA;}
	.st33{opacity:0.6;fill:#5757AA;}
	.st34{opacity:0.4;fill:#5757AA;}
	.st35{opacity:0.8;fill:#5757AA;}
	.st36{opacity:0.3;fill:#FFFFFF;}
	.st37{opacity:0.7;fill:#FFFFFF;}
	.st38{opacity:0.5;fill:#FFFFFF;}
	.st39{opacity:0.9;fill:#FFFFFF;}
	.st40{opacity:0.6;fill:#FFFFFF;}
	.st41{opacity:0.4;fill:#FFFFFF;}
	.st42{opacity:0.8;fill:#FFFFFF;}
	.st43{fill:#7EB569;}
	.st44{fill:url(#SVGID_8_);}
	.st45{fill:url(#SVGID_9_);}
	.st46{fill:url(#SVGID_10_);}
	.st47{fill:url(#SVGID_11_);}
	.st48{fill:none;stroke:#FFFFFF;stroke-miterlimit:10;}
	.st49{fill:none;stroke:#5757AA;stroke-width:2;stroke-miterlimit:10;}
	.st50{fill:none;stroke:#FFFFFF;stroke-width:3;stroke-miterlimit:10;}
	.st51{fill:none;stroke:#5757AA;stroke-miterlimit:10;}
	.st52{fill:#FFB300;}
	.st53{fill:#4F4FBD;}
	.st54{fill:#16162C;}
	.st55{fill:#5C5C5C;}
	.st56{fill:#575769;}
	.st57{fill:#029B88;}
	.st58{fill:#5D5D5D;}
	.st59{fill:#616196;}
	.st60{fill:#1E1E21;}
	.st61{fill:#5858BF;}
	.st62{fill:url(#SVGID_12_);}
	.st63{fill:#2F3036;}
	.st64{fill:#060708;}
	.st65{fill:#DECA45;}
	.st66{fill:#AA3636;}
	.st67{opacity:0.5;}
	.st68{fill:#616193;}
	.st69{fill:none;stroke:#5EA343;stroke-width:6.0526;stroke-miterlimit:10;}
	.st70{opacity:0.1;fill:#E63A3F;}
	.st71{fill:#B2B2BD;}
	.st72{fill:#DFEDD9;}
	.st73{fill:url(#SVGID_13_);}
	.st74{fill:none;stroke:#5757AA;stroke-width:2;stroke-linecap:square;stroke-miterlimit:10;}
	.st75{fill:url(#SVGID_14_);}
	.st76{fill:url(#SVGID_15_);}
	.st77{fill:url(#SVGID_16_);}
	.st78{fill:url(#SVGID_17_);}
	.st79{fill:#ABABD4;}
	.st80{fill:none;stroke:#FF00FF;stroke-miterlimit:10;}
</style>
<g id="background">
</g>
<g id="Icons">
	<g>
		<path class="st1" d="M4,10.5C4,8.6,5.6,7,7.5,7H15V2.5C15,1.1,13.9,0,12.5,0h-10C1.1,0,0,1.1,0,2.5v10C0,13.9,1.1,15,2.5,15H4
			V10.5z"/>
	</g>
	<path class="st8" d="M4.4,9C4.1,8.5,4,8,4,7.5C4,5.6,5.6,4,7.5,4c1.8,0,3.2,1.3,3.4,3h1c-0.3-2.2-2.1-4-4.4-4C5,3,3,5,3,7.5
		c0,1.1,0.4,2,1,2.8C4,9.8,4.2,9.4,4.4,9z"/>
	<g>
		<g>
			<path class="st1" d="M14,15c0,0.6-0.4,1-1,1H8c-0.6,0-1-0.4-1-1v-4c0-0.6,0.4-1,1-1h1V8H8c-1.7,0-3,1.3-3,3v4c0,1.7,1.3,3,3,3h5
				c1.7,0,3-1.3,3-3v-4h-2V15z"/>
		</g>
		<g>
			<path class="st1" d="M18,8h-5c-1.7,0-3,1.3-3,3v4h2v-4c0-0.6,0.4-1,1-1h5c0.6,0,1,0.4,1,1v4c0,0.6-0.4,1-1,1h-1v2h1
				c1.7,0,3-1.3,3-3v-4C21,9.3,19.7,8,18,8z"/>
		</g>
	</g>
</g>
</svg>
