<?xml version="1.0" encoding="utf-8"?>
<!-- Generator: Adobe Illustrator 22.0.1, SVG Export Plug-In . SVG Version: 6.00 Build 0)  -->
<svg version="1.1" id="Ebene_1" xmlns="http://www.w3.org/2000/svg" xmlns:xlink="http://www.w3.org/1999/xlink" x="0px" y="0px"
	 viewBox="0 0 16 16" style="enable-background:new 0 0 16 16;" xml:space="preserve">
<style type="text/css">
	.st0{fill:none;}
	.st1{fill:#CECED9;}
</style>
<title>Element 236</title>
<g id="Ebene_2_1_">
	<g id="Platzhalter">
		<rect y="0" class="st0" width="16" height="16"/>
	</g>
	<g id="Ebene_1-2">
		<path class="st1" d="M10,11c-0.4,0-0.7,0.1-1,0.4V7.6l5-5l-1-1l-4,4V0H8v6.6L5.8,8.8C5.7,8.7,5.6,8.6,5.5,8.5C4.7,7.7,3.2,7.9,2,9
			s-1.3,2.7-0.5,3.5C1.8,12.8,2.3,13,2.7,13c0.9,0,1.7-0.4,2.3-1c0.3-0.3,0.6-0.7,0.8-1.1L8,8.6V13l0,0c0,0.2,0,0.3,0,0.5
			c-0.1,1.2,0.8,2.3,2,2.5c1.2-0.2,2.1-1.3,2-2.5C12.1,12.3,11.2,11.2,10,11z M2.2,11.8C1.8,11.5,2,10.5,2.7,9.7
			C3.1,9.3,3.7,9,4.3,9c0.2,0,0.4,0.1,0.5,0.2c0.4,0.4,0.2,1.3-0.6,2.1S2.5,12.2,2.2,11.8z M10,15c-0.5,0-1-0.7-1-1.5S9.5,12,10,12
			s1,0.7,1,1.5S10.5,15,10,15z"/>
	</g>
</g>
</svg>
