<?xml version="1.0" encoding="utf-8"?>
<!-- Generator: Adobe Illustrator 24.3.0, SVG Export Plug-In . SVG Version: 6.00 Build 0)  -->
<svg version="1.1" xmlns="http://www.w3.org/2000/svg" xmlns:xlink="http://www.w3.org/1999/xlink" x="0px" y="0px"
	 viewBox="0 0 16 16" style="enable-background:new 0 0 16 16;" xml:space="preserve">
<style type="text/css">
	.st0{opacity:0.2;fill:#FF0000;}
	.st1{fill:#5757AA;}
	.st2{fill:#CECED9;}
	.st3{fill:#9B9BAA;}
	.st4{fill:#5EA343;}
	.st5{fill:#7F7FBB;}
	.st6{opacity:0.2;fill:none;}
	.st7{fill:#E63A3F;}
	.st8{fill:#FFFFFF;}
	.st9{fill:#FAFAFA;}
	.st10{fill:none;stroke:#5757AA;stroke-width:2;stroke-linecap:round;stroke-miterlimit:10;}
	.st11{fill:#CBEBC1;}
	.st12{fill:#38396D;}
	.st13{fill:#EDEDF2;}
	.st14{fill:url(#SVGID_1_);}
	.st15{fill:url(#SVGID_2_);}
	.st16{fill:url(#SVGID_3_);}
	.st17{fill:url(#SVGID_4_);}
	.st18{fill:none;stroke:#5757AA;stroke-width:1.8947;stroke-miterlimit:10;}
	.st19{fill:#CCCCCC;stroke:#CECED9;stroke-miterlimit:10;}
	.st20{fill:none;stroke:#CECED9;stroke-width:1.6733;stroke-linecap:round;stroke-miterlimit:10;}
	.st21{fill:#E1E1E5;}
	.st22{fill:#82828F;}
	.st23{fill:#39396D;}
	.st24{fill:url(#SVGID_5_);}
	.st25{fill:#2B2B5B;}
	.st26{fill:url(#SVGID_6_);}
	.st27{fill:url(#SVGID_7_);}
	.st28{fill:#201F43;}
	.st29{opacity:0.3;fill:#5757AA;}
	.st30{opacity:0.7;fill:#5757AA;}
	.st31{opacity:0.5;fill:#5757AA;}
	.st32{opacity:0.9;fill:#5757AA;}
	.st33{opacity:0.6;fill:#5757AA;}
	.st34{opacity:0.4;fill:#5757AA;}
	.st35{opacity:0.8;fill:#5757AA;}
	.st36{opacity:0.3;fill:#FFFFFF;}
	.st37{opacity:0.7;fill:#FFFFFF;}
	.st38{opacity:0.5;fill:#FFFFFF;}
	.st39{opacity:0.9;fill:#FFFFFF;}
	.st40{opacity:0.6;fill:#FFFFFF;}
	.st41{opacity:0.4;fill:#FFFFFF;}
	.st42{opacity:0.8;fill:#FFFFFF;}
	.st43{fill:#7EB569;}
	.st44{fill:url(#SVGID_8_);}
	.st45{fill:url(#SVGID_9_);}
	.st46{fill:url(#SVGID_10_);}
	.st47{fill:url(#SVGID_11_);}
	.st48{fill:none;stroke:#FFFFFF;stroke-miterlimit:10;}
	.st49{fill:none;stroke:#5757AA;stroke-width:2;stroke-miterlimit:10;}
	.st50{fill:none;stroke:#FFFFFF;stroke-width:3;stroke-miterlimit:10;}
	.st51{fill:none;stroke:#5757AA;stroke-miterlimit:10;}
	.st52{fill:#FFB300;}
	.st53{fill:#4F4FBD;}
	.st54{fill:#16162C;}
	.st55{fill:#5C5C5C;}
	.st56{fill:#575769;}
	.st57{fill:#029B88;}
	.st58{fill:#5D5D5D;}
	.st59{fill:#616196;}
	.st60{fill:#1E1E21;}
	.st61{fill:#5858BF;}
	.st62{fill:url(#SVGID_12_);}
	.st63{fill:#2F3036;}
	.st64{fill:#060708;}
	.st65{fill:#DECA45;}
	.st66{fill:#AA3636;}
	.st67{opacity:0.5;}
	.st68{fill:#616193;}
	.st69{fill:none;stroke:#5EA343;stroke-width:6.0526;stroke-miterlimit:10;}
	.st70{opacity:0.1;fill:#E63A3F;}
	.st71{fill:#B2B2BD;}
	.st72{fill:#DFEDD9;}
	.st73{fill:url(#SVGID_13_);}
	.st74{fill:none;stroke:#5757AA;stroke-width:2;stroke-linecap:square;stroke-miterlimit:10;}
	.st75{fill:url(#SVGID_14_);}
	.st76{fill:url(#SVGID_15_);}
	.st77{fill:url(#SVGID_16_);}
	.st78{fill:url(#SVGID_17_);}
	.st79{fill:#ABABD4;}
	.st80{fill:#474763;}
	.st81{display:none;}
	.st82{display:inline;fill:none;stroke:#FF00FF;stroke-miterlimit:10;}
</style>
<g id="background">
</g>
<g id="Icons">
	<polygon class="st2" points="16,1.5 14.5,0 11,3.6 11,1 9,1 9,5 9,7 11,7 15,7 15,5 12.4,5 	"/>
	<polygon class="st2" points="5,1 5,3.6 1.5,0 0,1.5 3.6,5 1,5 1,7 5,7 7,7 7,5 7,1 	"/>
	<polygon class="st2" points="5,9 1,9 1,11 3.6,11 0,14.5 1.5,16 5,12.4 5,15 7,15 7,11 7,9 	"/>
	<polygon class="st2" points="16,14.5 12.4,11 15,11 15,9 11,9 9,9 9,11 9,15 11,15 11,12.4 14.5,16 	"/>
</g>
</svg>
