<?xml version="1.0" encoding="utf-8"?>
<!-- Generator: Adobe Illustrator 22.0.1, SVG Export Plug-In . SVG Version: 6.00 Build 0)  -->
<svg version="1.1" id="Ebene_1" xmlns="http://www.w3.org/2000/svg" xmlns:xlink="http://www.w3.org/1999/xlink" x="0px" y="0px"
	 viewBox="0 0 24 24" style="enable-background:new 0 0 24 24;" xml:space="preserve">
<style type="text/css">
	.st0{fill:#5757AA;}
	.st1{fill:#9B9BAA;}
	.st2{fill:#5EA343;}
	.st3{fill:#7F7FBB;}
	.st4{opacity:0.2;fill:none;}
	.st5{fill:#E63A3F;}
	.st6{fill:#FFFFFF;}
	.st7{fill:#FAFAFA;}
	.st8{fill:none;stroke:#5757AA;stroke-width:2;stroke-linecap:round;stroke-miterlimit:10;}
	.st9{fill:#CBEBC1;}
	.st10{fill:#CECED9;}
	.st11{fill:#414180;}
	.st12{fill:#EDEDF2;}
	.st13{fill:#38396D;}
	.st14{fill:url(#SVGID_1_);}
	.st15{fill:url(#SVGID_2_);}
	.st16{fill:url(#SVGID_3_);}
	.st17{fill:url(#SVGID_4_);}
</style>
<g>
	<polygon class="st0" points="22,10 22,8 17.1,8 23,2.1 21.6,0.6 16,6.2 16,2 14,2 14,8 14,10 16,10 	"/>
	<polygon class="st0" points="2,14 2,16 6.6,16 1,21.6 2.4,23 8,17.4 8,22 10,22 10,16 10,14 8,14 	"/>
	<polygon class="st0" points="8,6.2 2.4,0.6 1,2.1 6.9,8 2,8 2,10 8,10 10,10 10,8 10,2 8,2 	"/>
	<polygon class="st0" points="23,21.6 17.4,16 22,16 22,14 16,14 14,14 14,16 14,22 16,22 16,17.4 21.6,23 	"/>
</g>
</svg>
