<?xml version="1.0" encoding="utf-8"?>
<!-- Generator: Adobe Illustrator 22.0.1, SVG Export Plug-In . SVG Version: 6.00 Build 0)  -->
<svg version="1.1" id="Ebene_1" xmlns="http://www.w3.org/2000/svg" xmlns:xlink="http://www.w3.org/1999/xlink" x="0px" y="0px"
	 viewBox="0 0 24 24" style="enable-background:new 0 0 24 24;" xml:space="preserve">
<style type="text/css">
	.st0{fill:#5757AA;}
	.st1{fill:#9B9BAA;}
	.st2{fill:#5EA343;}
	.st3{fill:#7F7FBB;}
	.st4{opacity:0.2;fill:none;}
	.st5{fill:#E63A3F;}
	.st6{fill:#FFFFFF;}
	.st7{fill:#FAFAFA;}
	.st8{fill:none;stroke:#5757AA;stroke-width:2;stroke-linecap:round;stroke-miterlimit:10;}
	.st9{fill:#CBEBC1;}
	.st10{fill:#CECED9;}
	.st11{fill:#414180;}
	.st12{fill:#EDEDF2;}
	.st13{fill:#38396D;}
	.st14{fill:url(#SVGID_1_);}
	.st15{fill:url(#SVGID_2_);}
	.st16{fill:url(#SVGID_3_);}
	.st17{fill:url(#SVGID_4_);}
</style>
<g>
	<polygon class="st0" points="8.9,14 3,19.9 3,15 1,15 1,21 1,23 3,23 9,23 9,21 4.8,21 10.4,15.4 	"/>
	<polygon class="st0" points="15,1 15,3 19.9,3 14,8.9 15.4,10.4 21,4.8 21,9 23,9 23,1 	"/>
	<polygon class="st0" points="21,19.9 16.1,15 14.6,16.4 19.2,21 15,21 15,23 21,23 23,23 23,21 23,15 21,15 	"/>
	<polygon class="st0" points="3,4.8 8.6,10.4 10,8.9 4.1,3 9,3 9,1 3,1 1,1 1,3 1,9 3,9 	"/>
</g>
</svg>
