<?xml version="1.0" encoding="UTF-8" standalone="no"?>
<svg
   xmlns:dc="http://purl.org/dc/elements/1.1/"
   xmlns:cc="http://creativecommons.org/ns#"
   xmlns:rdf="http://www.w3.org/1999/02/22-rdf-syntax-ns#"
   xmlns:svg="http://www.w3.org/2000/svg"
   xmlns="http://www.w3.org/2000/svg"
   id="svg2046"
   version="1.1"
   viewBox="0 0 2.1232774 3.8534687"
   height="3.8534687mm"
   width="2.1232774mm">
  <defs
     id="defs2040" />
  <metadata
     id="metadata2043">
    <rdf:RDF>
      <cc:Work
         rdf:about="">
        <dc:format>image/svg+xml</dc:format>
        <dc:type
           rdf:resource="http://purl.org/dc/dcmitype/StillImage" />
        <dc:title></dc:title>
      </cc:Work>
    </rdf:RDF>
  </metadata>
  <g
     transform="translate(-72.939011,-258.27964)"
     id="layer1">
    <g
       id="g616"
       transform="matrix(0.26458333,0,0,0.26458333,23.077317,37.227464)">
      <polygon
         style="fill:#ceced9"
         class="st6"
         points="158,198 161,198 161,196 158,196 158,196 156,196 156,196 156,196 156,198 156,198 156,214 156,214 156,216 180,216 180,216 180,216 180,196 178,196 175,196 175,198 178,198 178,214 158,214 "
         id="polygon602" />
      <path
         style="fill:#ceced9"
         class="st6"
         d="m 169,193.5 c 0,-0.8 -0.7,-1.5 -1.5,-1.5 -0.8,0 -1.5,0.7 -1.5,1.5 v 5.5 h 3 z"
         id="path604" />
      <path
         style="fill:#ceced9"
         class="st6"
         d="m 173,201 c 0,-1.1 -0.9,-2 -2,-2 h -7 c -1.1,0 -2,0.9 -2,2 v 2 h 11 z"
         id="path606" />
      <rect
         style="fill:#ceced9"
         x="165"
         y="204"
         class="st6"
         width="2"
         height="6"
         id="rect608" />
      <rect
         style="fill:#ceced9"
         x="162"
         y="204"
         class="st6"
         width="2"
         height="6"
         id="rect610" />
      <rect
         style="fill:#ceced9"
         x="168"
         y="204"
         class="st6"
         width="2"
         height="6"
         id="rect612" />
      <rect
         style="fill:#ceced9"
         x="171"
         y="204"
         class="st6"
         width="2"
         height="6"
         id="rect614" />
    </g>
    <path
       style="fill:#5757aa;stroke-width:0.26458332"
       class="st2"
       d="m 74.744789,262.08492 -1.74625,-1.74625 c -0.07937,-0.0794 -0.07937,-0.18521 0,-0.26458 l 1.74625,-1.74625 c 0.105834,-0.10583 0.3175,-0.0265 0.3175,0.13229 v 3.4925 c 0,0.15875 -0.185208,0.23813 -0.3175,0.13229 z"
       id="path69" />
  </g>
</svg>
