<?xml version="1.0" encoding="UTF-8" standalone="no"?>
<!-- Generator: Adobe Illustrator 22.0.1, SVG Export Plug-In . SVG Version: 6.00 Build 0)  -->

<svg
   xmlns:dc="http://purl.org/dc/elements/1.1/"
   xmlns:cc="http://creativecommons.org/ns#"
   xmlns:rdf="http://www.w3.org/1999/02/22-rdf-syntax-ns#"
   xmlns:svg="http://www.w3.org/2000/svg"
   xmlns="http://www.w3.org/2000/svg"
   xmlns:sodipodi="http://sodipodi.sourceforge.net/DTD/sodipodi-0.dtd"
   xmlns:inkscape="http://www.inkscape.org/namespaces/inkscape"
   version="1.1"
   id="Ebene_1"
   x="0px"
   y="0px"
   viewBox="0 0 24 24"
   style="enable-background:new 0 0 24 24;"
   xml:space="preserve"
   sodipodi:docname="IconDark.svg"
   inkscape:version="0.92.2 (5c3e80d, 2017-08-06)"><metadata
     id="metadata19"><rdf:RDF><cc:Work
         rdf:about=""><dc:format>image/svg+xml</dc:format><dc:type
           rdf:resource="http://purl.org/dc/dcmitype/StillImage" /></cc:Work></rdf:RDF></metadata><defs
     id="defs17" /><sodipodi:namedview
     pagecolor="#ffffff"
     bordercolor="#666666"
     borderopacity="1"
     objecttolerance="10"
     gridtolerance="10"
     guidetolerance="10"
     inkscape:pageopacity="0"
     inkscape:pageshadow="2"
     inkscape:window-width="1920"
     inkscape:window-height="1018"
     id="namedview15"
     showgrid="false"
     inkscape:zoom="9.8333333"
     inkscape:cx="6.2033898"
     inkscape:cy="12"
     inkscape:window-x="1912"
     inkscape:window-y="-8"
     inkscape:window-maximized="1"
     inkscape:current-layer="Ebene_1" /><style
     type="text/css"
     id="style2">
	.st0{fill:#5757AA;}
	.st1{fill:#9B9BAA;}
	.st2{fill:#5EA343;}
	.st3{fill:#7F7FBB;}
	.st4{opacity:0.2;fill:none;}
	.st5{fill:#E63A3F;}
	.st6{fill:#FFFFFF;}
	.st7{fill:#FAFAFA;}
	.st8{fill:none;stroke:#5757AA;stroke-width:2;stroke-linecap:round;stroke-miterlimit:10;}
	.st9{fill:#CBEBC1;}
	.st10{fill:#CECED9;}
	.st11{fill:#414180;}
	.st12{fill:#EDEDF2;}
	.st13{fill:#38396D;}
	.st14{fill:url(#SVGID_1_);}
	.st15{fill:url(#SVGID_2_);}
	.st16{fill:url(#SVGID_3_);}
	.st17{fill:url(#SVGID_4_);}
</style><g
     id="g6"><path
       class="st13"
       d="M12,2c5.5,0,10,4.5,10,10s-4.5,10-10,10S2,17.5,2,12S6.5,2,12,2 M12,0C5.4,0,0,5.4,0,12s5.4,12,12,12   s12-5.4,12-12S18.6,0,12,0L12,0z"
       id="path4"
       style="fill:#201F43;fill-opacity:1" /></g><g
     id="g12"><g
       id="g10"><path
         class="st13"
         d="M10.9,15c-0.1-0.2-0.1-0.4-0.2-0.6c0-0.3-0.1-0.5-0.1-0.7c0-0.4,0.1-0.7,0.2-1c0.2-0.3,0.3-0.6,0.6-0.9    c0.2-0.3,0.5-0.5,0.8-0.8c0.3-0.3,0.5-0.5,0.7-0.7c0.2-0.2,0.4-0.5,0.6-0.8c0.2-0.3,0.2-0.6,0.2-0.9c0-0.3-0.1-0.5-0.2-0.7    c-0.1-0.2-0.3-0.4-0.5-0.5C13,7.1,12.8,7,12.5,7c-0.3-0.1-0.5-0.1-0.8-0.1c-0.9,0-1.8,0.4-2.7,1.3V5.9C10,5.3,11.1,5,12.2,5    c0.5,0,1,0.1,1.5,0.2c0.5,0.1,0.9,0.3,1.2,0.6c0.3,0.3,0.6,0.6,0.8,1C15.9,7.2,16,7.6,16,8.1c0,0.5-0.1,0.9-0.2,1.3    c-0.2,0.4-0.4,0.7-0.6,1c-0.3,0.3-0.5,0.6-0.8,0.8c-0.3,0.2-0.6,0.5-0.8,0.7c-0.3,0.2-0.5,0.5-0.6,0.8s-0.2,0.6-0.2,0.9    c0,0.3,0,0.5,0.1,0.7c0.1,0.2,0.1,0.4,0.2,0.6H10.9z M12,19c-0.4,0-0.7-0.1-1-0.4c-0.3-0.2-0.4-0.5-0.4-0.9c0-0.4,0.1-0.7,0.4-0.9    c0.3-0.3,0.6-0.4,1-0.4c0.4,0,0.7,0.1,0.9,0.4c0.3,0.2,0.4,0.5,0.4,0.9c0,0.4-0.1,0.7-0.4,0.9C12.7,18.9,12.4,19,12,19z"
         id="path8"
         style="fill:#201F43;fill-opacity:1" /></g></g></svg>