<?xml version="1.0" encoding="utf-8"?>
<!-- Generator: Adobe Illustrator 23.0.1, SVG Export Plug-In . SVG Version: 6.00 Build 0)  -->
<svg version="1.1" xmlns="http://www.w3.org/2000/svg" xmlns:xlink="http://www.w3.org/1999/xlink" x="0px" y="0px"
	 viewBox="0 0 16 16" style="enable-background:new 0 0 16 16;" xml:space="preserve">
<style type="text/css">
	.st0{display:none;}
	.st1{display:inline;opacity:0.2;fill:#FF0000;}
	.st2{fill:#CECED9;}
	.st3{fill:#5757AA;}
	.st4{fill:#9B9BAA;}
	.st5{fill:#5EA343;}
	.st6{fill:#7F7FBB;}
	.st7{opacity:0.2;fill:none;}
	.st8{fill:#E63A3F;}
	.st9{fill:#FFFFFF;}
	.st10{fill:#FAFAFA;}
	.st11{fill:none;stroke:#5757AA;stroke-width:2;stroke-linecap:round;stroke-miterlimit:10;}
	.st12{fill:#CBEBC1;}
	.st13{fill:#38396D;}
	.st14{fill:#82828F;}
	.st15{fill:#EDEDF2;}
	.st16{fill:url(#SVGID_1_);}
	.st17{fill:url(#SVGID_2_);}
	.st18{fill:url(#SVGID_3_);}
	.st19{fill:url(#SVGID_4_);}
	.st20{fill:none;stroke:#5757AA;stroke-width:1.8947;stroke-miterlimit:10;}
	.st21{fill:#CCCCCC;stroke:#CECED9;stroke-miterlimit:10;}
	.st22{fill:none;stroke:#CECED9;stroke-width:1.6733;stroke-linecap:round;stroke-miterlimit:10;}
	.st23{fill:#E1E1E5;}
	.st24{fill:#39396D;}
	.st25{fill:url(#SVGID_5_);}
	.st26{fill:#2B2B5B;}
	.st27{fill:url(#SVGID_6_);}
	.st28{fill:url(#SVGID_7_);}
	.st29{fill:#201F43;}
	.st30{fill:none;stroke:#FFFFFF;stroke-width:3;stroke-miterlimit:10;}
	.st31{opacity:0.6;fill:#FFFFFF;}
	.st32{opacity:0.4;fill:#FFFFFF;}
	.st33{opacity:0.8;fill:#FFFFFF;}
	.st34{opacity:0.3;fill:#FFFFFF;}
	.st35{opacity:0.7;fill:#FFFFFF;}
	.st36{opacity:0.9;fill:#FFFFFF;}
	.st37{opacity:0.5;fill:#FFFFFF;}
	.st38{opacity:0.6;fill:#5757AA;}
	.st39{opacity:0.4;fill:#5757AA;}
	.st40{opacity:0.8;fill:#5757AA;}
	.st41{opacity:0.3;fill:#5757AA;}
	.st42{opacity:0.7;fill:#5757AA;}
	.st43{opacity:0.9;fill:#5757AA;}
	.st44{opacity:0.5;fill:#5757AA;}
	.st45{opacity:0.6;}
	.st46{opacity:0.4;}
	.st47{opacity:0.8;}
	.st48{opacity:0.3;}
	.st49{opacity:0.7;}
	.st50{opacity:0.9;}
	.st51{opacity:0.5;}
	.st52{display:inline;}
</style>
<g id="background" class="st0">
	<rect y="0" class="st1" width="16" height="16"/>
</g>
<g id="Icons">
	<g>
		<path class="st9" d="M14.5,3.3c-0.1,0.1-0.1,0.2-0.1,0.3C14,4.1,13.7,4.5,13.4,5c-0.1,0.1-0.1,0.2,0,0.4c0.1,0.2,0.2,0.5,0.3,0.8
			c0,0.1,0.1,0.2,0.2,0.2c0.6,0.1,1.1,0.2,1.7,0.3C15.9,6.7,16,6.8,16,7.1c0,0.6,0,1.2,0,1.8c0,0.3-0.1,0.4-0.4,0.5
			c-0.6,0.1-1.1,0.2-1.7,0.3c-0.1,0-0.2,0.1-0.2,0.2c-0.1,0.3-0.2,0.6-0.3,0.9c0,0.1,0,0.2,0,0.3c0.3,0.5,0.6,0.9,0.9,1.4
			c0.2,0.3,0.2,0.4-0.1,0.7c-0.4,0.4-0.8,0.8-1.2,1.2c-0.2,0.2-0.4,0.3-0.7,0.1c-0.5-0.3-0.9-0.6-1.4-0.9c-0.1-0.1-0.2-0.1-0.3,0
			c-0.3,0.1-0.6,0.2-0.8,0.3c-0.1,0-0.2,0.1-0.2,0.2c-0.1,0.5-0.2,1.1-0.3,1.6C9.3,15.9,9.2,16,8.8,16c-0.6,0-1.1,0-1.7,0
			c-0.3,0-0.4-0.1-0.5-0.4c-0.1-0.6-0.2-1.1-0.3-1.7c0-0.1-0.1-0.2-0.2-0.2c-0.3-0.1-0.5-0.2-0.8-0.3c-0.1-0.1-0.2-0.1-0.3,0
			c-0.5,0.3-0.9,0.6-1.4,0.9c-0.3,0.2-0.4,0.2-0.7-0.1c-0.4-0.4-0.8-0.8-1.2-1.2c-0.2-0.2-0.2-0.4-0.1-0.6c0.3-0.5,0.6-0.9,1-1.4
			c0.1-0.1,0.1-0.2,0-0.3c-0.1-0.3-0.2-0.5-0.3-0.8c0-0.1-0.1-0.2-0.2-0.2C1.5,9.6,0.9,9.5,0.4,9.4C0.1,9.3,0,9.2,0,8.9
			c0-0.6,0-1.2,0-1.9c0-0.3,0.1-0.4,0.4-0.4c0.6-0.1,1.1-0.2,1.7-0.3c0.1,0,0.2-0.1,0.2-0.2c0.1-0.3,0.2-0.5,0.3-0.8
			c0.1-0.1,0-0.2,0-0.3C2.3,4.6,2,4.1,1.6,3.6C1.5,3.4,1.5,3.2,1.7,3C2.1,2.6,2.5,2.1,3,1.7c0.2-0.2,0.4-0.2,0.6-0.1
			C4.1,2,4.5,2.3,5,2.6c0.1,0.1,0.2,0.1,0.3,0c0.3-0.1,0.5-0.2,0.8-0.4c0.1,0,0.1-0.1,0.2-0.2C6.4,1.5,6.5,1,6.6,0.4
			C6.6,0.1,6.8,0,7.1,0c0.6,0,1.2,0,1.8,0c0.3,0,0.4,0.1,0.5,0.4C9.5,1,9.6,1.5,9.7,2c0,0.2,0.1,0.2,0.2,0.3
			c0.3,0.1,0.5,0.2,0.8,0.3c0.1,0.1,0.2,0,0.3,0c0.5-0.3,0.9-0.6,1.4-1c0.3-0.2,0.4-0.2,0.7,0.1c0.4,0.4,0.8,0.8,1.3,1.3
			C14.4,3.1,14.4,3.2,14.5,3.3z M8,4.7C6.2,4.7,4.7,6.2,4.7,8c0,1.8,1.5,3.3,3.3,3.3c1.8,0,3.3-1.5,3.3-3.3C11.3,6.2,9.8,4.7,8,4.7z
			"/>
	</g>
</g>
<g id="Linien" class="st0">
	<g class="st52">
		<path class="st8" d="M124-4v25H-6V-4H124 M125-5H-7v27h132V-5L125-5z"/>
	</g>
</g>
</svg>
