<?xml version="1.0" encoding="utf-8"?>
<!-- Generator: Adobe Illustrator 23.0.3, SVG Export Plug-In . SVG Version: 6.00 Build 0)  -->
<svg version="1.1" xmlns="http://www.w3.org/2000/svg" xmlns:xlink="http://www.w3.org/1999/xlink" x="0px" y="0px"
	 viewBox="2 2 20 20" style="enable-background:new 2 2 20 20;" xml:space="preserve">
<style type="text/css">
	.st71{fill:#B2B2BD;}
</style>
<g id="Linien">
	<g>
		<path class="st71" d="M12,18.5c-0.1,0-0.2,0-0.2,0c-4.1,0-7.5-3.4-7.5-7.5s3.4-7.5,7.5-7.5s7.5,3.4,7.5,7.5c0,0.4,0,0.8-0.1,1.1
			c0.5,0.1,1,0.3,1.4,0.5c0.1-0.5,0.2-1.1,0.2-1.6c0-5-4-9-9-9s-9,4-9,9c0,5,4,9,9,9c0.2,0,0.4,0,0.5,0C12.2,19.5,12.1,19,12,18.5z"/>
		<polygon class="st71" points="21,15.7 20.1,14.8 17.8,17.2 15.5,14.8 14.6,15.7 16.9,18.1 14.6,20.6 15.5,21.4 17.8,19 20.1,21.4 21,
		20.6 18.7,18.1"/>
		<g>
			<g>
				<rect x="10.1" y="11.6" transform="matrix(0.7071 -0.7071 0.7071 0.7071 -4.964 13.4094)" class="st71" width="7.1" height="2.1"/>
				<rect x="11" y="5" class="st71" width="2" height="9"/>
				<polygon class="st71" points="11.9,16 6.8,10.9 8.3,9.3 13.4,14.4"/>
			</g>
		</g>
	</g>
</g>
</svg>