<?xml version="1.0" encoding="UTF-8" standalone="no"?>
<svg
   xmlns:dc="http://purl.org/dc/elements/1.1/"
   xmlns:cc="http://creativecommons.org/ns#"
   xmlns:rdf="http://www.w3.org/1999/02/22-rdf-syntax-ns#"
   xmlns:svg="http://www.w3.org/2000/svg"
   xmlns="http://www.w3.org/2000/svg"
   xmlns:sodipodi="http://sodipodi.sourceforge.net/DTD/sodipodi-0.dtd"
   xmlns:inkscape="http://www.inkscape.org/namespaces/inkscape"
   inkscape:version="1.0 (4035a4fb49, 2020-05-01)"
   sodipodi:docname="IconProperties.svg"
   version="1.1"
   x="0px"
   y="0px"
   viewBox="0 0 30 30"
   style="enable-background:new 0 0 30 30;"
   xml:space="preserve"
   id="svg27"><sodipodi:namedview
     inkscape:current-layer="svg27"
     inkscape:window-maximized="1"
     inkscape:window-y="-8"
     inkscape:window-x="-8"
     inkscape:cy="9.3993129"
     inkscape:cx="6.561731"
     inkscape:zoom="14.333333"
     showgrid="false"
     id="namedview21"
     inkscape:window-height="1027"
     inkscape:window-width="1920"
     inkscape:pageshadow="2"
     inkscape:pageopacity="0"
     guidetolerance="10"
     gridtolerance="10"
     objecttolerance="10"
     borderopacity="1"
     bordercolor="#666666"
     pagecolor="#ffffff" /><metadata
     id="metadata33"><rdf:RDF><cc:Work
         rdf:about=""><dc:format>image/svg+xml</dc:format><dc:type
           rdf:resource="http://purl.org/dc/dcmitype/StillImage" /><dc:title /></cc:Work></rdf:RDF></metadata><defs
     id="defs31" /><style
     type="text/css"
     id="style2">
	.st0{display:none;}
	.st1{display:inline;opacity:0.2;fill:#FF0000;}
	.st2{fill:#CECED9;}
	.st3{fill:#5757AA;}
	.st4{fill:#9B9BAA;}
	.st5{fill:#5EA343;}
	.st6{fill:#7F7FBB;}
	.st7{opacity:0.2;fill:none;}
	.st8{fill:#E63A3F;}
	.st9{fill:#FFFFFF;}
	.st10{fill:#FAFAFA;}
	.st11{fill:none;stroke:#5757AA;stroke-width:2;stroke-linecap:round;stroke-miterlimit:10;}
	.st12{fill:#CBEBC1;}
	.st13{fill:#38396D;}
	.st14{fill:#82828F;}
	.st15{fill:#EDEDF2;}
	.st16{fill:url(#SVGID_1_);}
	.st17{fill:url(#SVGID_2_);}
	.st18{fill:url(#SVGID_3_);}
	.st19{fill:url(#SVGID_4_);}
	.st20{fill:none;stroke:#5757AA;stroke-width:1.8947;stroke-miterlimit:10;}
	.st21{fill:#CCCCCC;stroke:#CECED9;stroke-miterlimit:10;}
	.st22{fill:none;stroke:#CECED9;stroke-width:1.6733;stroke-linecap:round;stroke-miterlimit:10;}
	.st23{fill:#E1E1E5;}
	.st24{fill:#39396D;}
	.st25{fill:url(#SVGID_5_);}
	.st26{fill:#2B2B5B;}
	.st27{fill:url(#SVGID_6_);}
	.st28{fill:url(#SVGID_7_);}
	.st29{fill:#201F43;}
	.st30{fill:none;stroke:#FFFFFF;stroke-width:3;stroke-miterlimit:10;}
	.st31{opacity:0.6;fill:#FFFFFF;}
	.st32{opacity:0.4;fill:#FFFFFF;}
	.st33{opacity:0.8;fill:#FFFFFF;}
	.st34{opacity:0.3;fill:#FFFFFF;}
	.st35{opacity:0.7;fill:#FFFFFF;}
	.st36{opacity:0.9;fill:#FFFFFF;}
	.st37{opacity:0.5;fill:#FFFFFF;}
	.st38{opacity:0.6;fill:#5757AA;}
	.st39{opacity:0.4;fill:#5757AA;}
	.st40{opacity:0.8;fill:#5757AA;}
	.st41{opacity:0.3;fill:#5757AA;}
	.st42{opacity:0.7;fill:#5757AA;}
	.st43{opacity:0.9;fill:#5757AA;}
	.st44{opacity:0.5;fill:#5757AA;}
	.st45{opacity:0.6;}
	.st46{opacity:0.4;}
	.st47{opacity:0.8;}
	.st48{opacity:0.3;}
	.st49{opacity:0.7;}
	.st50{opacity:0.9;}
	.st51{opacity:0.5;}
	.st52{display:inline;}
</style><g
     id="background"
     class="st0" /><g
     id="Linien"
     class="st0"><g
       class="st52"
       id="g24"><path
         class="st8"
         d="M33-4v77h-259V-4H33 M34-5h-261v79H34V-5L34-5z"
         id="path22" /></g></g><style
     id="style843"
     type="text/css">
	.st0{fill:none;}
	.st1{fill:#5757AA;}
</style><g
     transform="scale(1.25)"
     id="Ebene_2_1_"><g
       id="Platzhalter"><rect
         id="rect847"
         height="24"
         width="24"
         class="st0"
         y="0"
         x="0"
         style="fill:none" /></g><g
       id="Ebene_1-2"><path
         id="path850"
         d="m 13,14 c 0,0.6 0.4,1 1,1 h 4 c 0.6,0 1,-0.4 1,-1 V 10 C 19,9.4 18.6,9 18,9 h -4 c -0.6,0 -1,0.4 -1,1 v 2 H 0 v 1 h 13 z"
         class="st3"
         style="fill:#FFFFFF" /><path
         id="path852"
         d="M 4,5 C 4,5.6 4.4,6 5,6 H 9 C 9.6,6 10,5.6 10,5 V 1 C 10,0.4 9.6,0 9,0 H 5 C 4.4,0 4,0.4 4,1 V 2 H 0 v 1 h 4 z"
         class="st3"
         style="fill:#FFFFFF" /><path
         id="path854"
         d="M 9,18 H 5 c -0.6,0 -1,0.4 -1,1 v 1 H 0 v 1 h 4 v 2 c 0,0.6 0.4,1 1,1 h 4 c 0.6,0 1,-0.4 1,-1 V 19 C 10,18.4 9.6,18 9,18 Z"
         class="st3"
         style="fill:#FFFFFF" /><rect
         id="rect856"
         height="1"
         width="13"
         class="st3"
         y="2"
         x="11"
         style="fill:#FFFFFF" /><rect
         id="rect858"
         height="1"
         width="4"
         class="st3"
         y="12"
         x="20"
         style="fill:#FFFFFF" /><rect
         id="rect860"
         height="1"
         width="13"
         class="st3"
         y="20"
         x="11"
         style="fill:#FFFFFF" /></g></g></svg>
