<?xml version="1.0" encoding="utf-8"?>
<!-- Generator: Adobe Illustrator 23.0.1, SVG Export Plug-In . SVG Version: 6.00 Build 0)  -->
<svg version="1.1" xmlns="http://www.w3.org/2000/svg" xmlns:xlink="http://www.w3.org/1999/xlink" x="0px" y="0px"
	 viewBox="0 0 42 20" style="enable-background:new 0 0 42 20;" xml:space="preserve">
<style type="text/css">
	.st0{display:none;}
	.st1{display:inline;opacity:0.2;fill:#FF0000;}
	.st2{fill:#CECED9;}
	.st3{fill:#5757AA;}
	.st4{fill:#9B9BAA;}
	.st5{fill:#5EA343;}
	.st6{fill:#7F7FBB;}
	.st7{opacity:0.2;fill:none;}
	.st8{fill:#E63A3F;}
	.st9{fill:#FFFFFF;}
	.st10{fill:#FAFAFA;}
	.st11{fill:none;stroke:#5757AA;stroke-width:2;stroke-linecap:round;stroke-miterlimit:10;}
	.st12{fill:#CBEBC1;}
	.st13{fill:#38396D;}
	.st14{fill:#82828F;}
	.st15{fill:#EDEDF2;}
	.st16{fill:url(#SVGID_1_);}
	.st17{fill:url(#SVGID_2_);}
	.st18{fill:url(#SVGID_3_);}
	.st19{fill:url(#SVGID_4_);}
	.st20{fill:none;stroke:#5757AA;stroke-width:1.8947;stroke-miterlimit:10;}
	.st21{fill:#CCCCCC;stroke:#CECED9;stroke-miterlimit:10;}
	.st22{fill:none;stroke:#CECED9;stroke-width:1.6733;stroke-linecap:round;stroke-miterlimit:10;}
	.st23{fill:#E1E1E5;}
	.st24{fill:#39396D;}
	.st25{fill:url(#SVGID_5_);}
	.st26{fill:#2B2B5B;}
	.st27{fill:url(#SVGID_6_);}
	.st28{font-family:'SegoeUI';}
	.st29{font-size:8px;}
	.st30{fill:url(#SVGID_7_);}
	.st31{fill:#201F43;}
	.st32{fill:none;stroke:#FFFFFF;stroke-width:3;stroke-miterlimit:10;}
	.st33{opacity:0.6;fill:#FFFFFF;}
	.st34{opacity:0.4;fill:#FFFFFF;}
	.st35{opacity:0.8;fill:#FFFFFF;}
	.st36{opacity:0.3;fill:#FFFFFF;}
	.st37{opacity:0.7;fill:#FFFFFF;}
	.st38{opacity:0.9;fill:#FFFFFF;}
	.st39{opacity:0.5;fill:#FFFFFF;}
	.st40{opacity:0.6;fill:#5757AA;}
	.st41{opacity:0.4;fill:#5757AA;}
	.st42{opacity:0.8;fill:#5757AA;}
	.st43{opacity:0.3;fill:#5757AA;}
	.st44{opacity:0.7;fill:#5757AA;}
	.st45{opacity:0.9;fill:#5757AA;}
	.st46{opacity:0.5;fill:#5757AA;}
	.st47{opacity:0.6;}
	.st48{opacity:0.4;}
	.st49{opacity:0.8;}
	.st50{opacity:0.3;}
	.st51{opacity:0.7;}
	.st52{opacity:0.9;}
	.st53{opacity:0.5;}
	.st54{display:inline;}
</style>
<g id="background" class="st0">
</g>
<g id="Icons">
	<g>
		<g>
			<path class="st15" d="M10,18.5c-4.7,0-8.5-3.8-8.5-8.5S5.3,1.5,10,1.5h22.2c4.7,0,8.5,3.8,8.5,8.5s-3.8,8.5-8.5,8.5H10z"/>
			<g>
				<path class="st4" d="M32.2,2c4.4,0,8,3.6,8,8s-3.6,8-8,8H10c-4.4,0-8-3.6-8-8s3.6-8,8-8H32.2 M32.2,1H10c-5,0-9,4-9,9s4,9,9,9
					h22.2c5,0,9-4,9-9S37.1,1,32.2,1L32.2,1z"/>
			</g>
		</g>
		<g>
			<linearGradient id="SVGID_1_" gradientUnits="userSpaceOnUse" x1="32" y1="1.375" x2="32" y2="18.625">
				<stop  offset="0" style="stop-color:#5757AA"/>
				<stop  offset="0.2439" style="stop-color:#4F4F9C"/>
				<stop  offset="0.7049" style="stop-color:#3A3A77"/>
				<stop  offset="1" style="stop-color:#2B2B5B"/>
			</linearGradient>
			<circle class="st16" cx="32" cy="10" r="8.6"/>
			<g>
				<path class="st4" d="M32,1.8c4.5,0,8.3,3.7,8.3,8.3s-3.7,8.3-8.3,8.3s-8.3-3.7-8.3-8.3S27.5,1.8,32,1.8 M32,1c-5,0-9,4-9,9
					s4,9,9,9s9-4,9-9S37,1,32,1L32,1z"/>
			</g>
		</g>
		<g>
			<text transform="matrix(1 0 0 1 7.0684 12.6504)" class="st26 st28 st29">ON</text>
		</g>
	</g>
	<g>
		<g>
			<path class="st15" d="M10,18.5c-4.7,0-8.5-3.8-8.5-8.5S5.3,1.5,10,1.5h22.2c4.7,0,8.5,3.8,8.5,8.5s-3.8,8.5-8.5,8.5H10z"/>
			<g>
				<path class="st4" d="M32.2,2c4.4,0,8,3.6,8,8c0,4.4-3.6,8-8,8H10c-4.4,0-8-3.6-8-8s3.6-8,8-8H32.2 M32.2,1H10c-5,0-9,4-9,9v0
					c0,5,4,9,9,9h22.2c5,0,9-4,9-9v0C41.2,5,37.1,1,32.2,1L32.2,1z"/>
			</g>
		</g>
		<g>
			<linearGradient id="SVGID_2_" gradientUnits="userSpaceOnUse" x1="32.0002" y1="1.3262" x2="32.0002" y2="18.6738">
				<stop  offset="0" style="stop-color:#5757AA"/>
				<stop  offset="0.2439" style="stop-color:#4F4F9C"/>
				<stop  offset="0.7049" style="stop-color:#3A3A77"/>
				<stop  offset="1" style="stop-color:#2B2B5B"/>
			</linearGradient>
			<path class="st17" d="M32,18.7c-4.8,0-8.7-3.9-8.7-8.7s3.9-8.7,8.7-8.7s8.7,3.9,8.7,8.7S36.8,18.7,32,18.7z"/>
			<g>
				<path class="st4" d="M32,1.7c4.6,0,8.3,3.7,8.3,8.3c0,2.2-0.9,4.3-2.4,5.9c-1.6,1.6-3.7,2.4-5.9,2.4c-4.6,0-8.3-3.7-8.3-8.3
					S27.4,1.7,32,1.7 M32,1c-5,0-9,4-9,9v0c0,5,4,9,9,9c5,0,9-4,9-9v0C41,5,37,1,32,1L32,1z"/>
			</g>
		</g>
		<g>
			<path class="st31" d="M10.1,12.7c-0.8,0-1.4-0.3-1.9-0.8s-0.7-1.2-0.7-2c0-0.9,0.2-1.6,0.7-2.2C8.7,7.2,9.3,7,10.2,7
				c0.8,0,1.4,0.3,1.9,0.8c0.5,0.5,0.7,1.2,0.7,2c0,0.9-0.2,1.6-0.7,2.2S10.9,12.7,10.1,12.7z M10.1,7.5C9.5,7.5,9,7.8,8.7,8.2
				c-0.4,0.4-0.6,1-0.6,1.7c0,0.7,0.2,1.2,0.5,1.7c0.4,0.4,0.8,0.6,1.4,0.6c0.6,0,1.1-0.2,1.5-0.6c0.4-0.4,0.5-1,0.5-1.7
				c0-0.7-0.2-1.3-0.5-1.7C11.2,7.8,10.7,7.5,10.1,7.5z"/>
			<path class="st31" d="M18.3,12.7h-0.8l-2.9-4.5c-0.1-0.1-0.1-0.2-0.2-0.4h0c0,0.1,0,0.4,0,0.8v4h-0.7V7h0.9l2.8,4.4
				c0.1,0.2,0.2,0.3,0.2,0.4h0c0-0.2,0-0.4,0-0.8V7h0.7V12.7z"/>
		</g>
	</g>
</g>
<g id="Linien" class="st0">
	<g class="st54">
		<path class="st8" d="M102-8v33H-12V-8H102 M103-9H-13v35h116V-9L103-9z"/>
	</g>
</g>
</svg>
