<?xml version="1.0" encoding="utf-8"?>
<!-- Generator: Adobe Illustrator 22.0.1, SVG Export Plug-In . SVG Version: 6.00 Build 0)  -->
<svg version="1.1" xmlns="http://www.w3.org/2000/svg" xmlns:xlink="http://www.w3.org/1999/xlink" x="0px" y="0px"
	 viewBox="0 0 488 220" style="enable-background:new 0 0 488 220;" xml:space="preserve">
<style type="text/css">
	.st0{fill:#EDEDF2;}
	.st1{fill:url(#SVGID_1_);}
	.st2{fill:url(#SVGID_2_);}
	.st3{fill:url(#SVGID_3_);}
	.st4{fill:url(#SVGID_4_);}
	.st5{fill:url(#SVGID_5_);}
	.st6{fill:url(#SVGID_6_);}
	.st7{fill:#B1B1B1;}
	.st8{fill:url(#SVGID_7_);}
	.st9{fill:url(#SVGID_8_);}
	.st10{fill:url(#SVGID_9_);}
	.st11{fill:url(#SVGID_10_);}
	.st12{fill:url(#SVGID_11_);}
	.st13{fill:url(#SVGID_12_);}
	.st14{fill:url(#SVGID_13_);}
	.st15{fill:url(#SVGID_14_);}
	.st16{fill:url(#SVGID_15_);}
	.st17{fill:url(#SVGID_16_);}
	.st18{fill:url(#SVGID_17_);}
	.st19{fill:url(#SVGID_18_);}
	.st20{fill:#1E1E21;}
	.st21{fill:#D9D9E2;}
	.st22{fill:#575769;}
	.st23{font-family:'SegoeUI';}
	.st24{font-size:92.4423px;}
	.st25{fill:url(#SVGID_19_);}
	.st26{fill:#561720;}
	.st27{fill:url(#SVGID_20_);}
	.st28{fill:url(#SVGID_21_);}
	.st29{fill:url(#SVGID_22_);}
	.st30{fill:url(#SVGID_23_);}
	.st31{fill:url(#SVGID_24_);}
	.st32{fill:#AA3636;}
	.st33{fill:#E73A3F;}
	.st34{fill:#AB3636;}
	.st35{fill:#E87D50;}
	.st36{fill:url(#SVGID_25_);}
	.st37{fill:#9C9B9B;}
	.st38{fill:url(#SVGID_26_);}
	.st39{fill:url(#SVGID_27_);}
	.st40{fill:url(#SVGID_28_);}
	.st41{fill:url(#SVGID_29_);}
	.st42{fill:url(#SVGID_30_);}
	.st43{fill:url(#SVGID_31_);}
	.st44{fill:#5C5C5C;}
	.st45{fill:url(#SVGID_32_);}
	.st46{fill:#38396D;}
	.st47{fill:url(#SVGID_33_);}
	.st48{fill:url(#SVGID_34_);}
	.st49{fill:url(#SVGID_35_);}
	.st50{fill:url(#SVGID_36_);}
	.st51{fill:#1D1D1B;}
	.st52{fill:url(#SVGID_37_);}
	.st53{fill:url(#SVGID_38_);}
	.st54{fill:url(#SVGID_39_);}
	.st55{fill:url(#SVGID_40_);}
	.st56{fill:url(#SVGID_41_);}
	.st57{fill:url(#SVGID_42_);}
	.st58{fill:url(#SVGID_43_);}
	.st59{fill:url(#SVGID_44_);}
	.st60{fill:#201F43;}
	.st61{fill:#585784;}
	.st62{fill:#484763;}
	.st63{fill:#029B88;}
	.st64{fill:url(#SVGID_45_);}
	.st65{fill:url(#SVGID_46_);}
	.st66{fill:url(#SVGID_47_);}
	.st67{fill:url(#SVGID_48_);}
	.st68{fill:url(#SVGID_49_);}
	.st69{fill:url(#SVGID_50_);}
	.st110{fill:#CECED9;}
</style>
<g id="Hintergrund">
	<g>
		<path class="st0" d="M487,110L487,110c0,60.2-48.8,109-109,109H110C49.8,219,1,170.2,1,110V110C1,49.8,49.8,1,110,1H378
			C438.2,1,487,49.8,487,110z"/>
	</g>
</g>
<g id="Text">
	<g>
		<g>
			<text transform="matrix(0.9979 0 0 1 301.1997 138.6895)" class="st110 st23 st24">OFF</text>
		</g>
	</g>
</g>
<g id="Ebene_3">
	<g>
		<circle class="st110" cx="110" cy="110" r="105"/>
		<g>
			<path class="st110" d="M110,9c55.7,0,101,45.3,101,101c0,55.7-45.3,101-101,101C54.3,211,9,165.7,9,110C9,54.3,54.3,9,110,9
				 M110,1L110,1C49.8,1,1,49.8,1,110v0c0,60.2,48.8,109,109,109h0c60.2,0,109-48.8,109-109v0C219,49.8,170.2,1,110,1L110,1z"/>
		</g>
	</g>
</g>
<g id="Ebene_4">
</g>
</svg>
