<?xml version="1.0" encoding="utf-8"?>
<!-- Generator: Adobe Illustrator 22.0.1, SVG Export Plug-In . SVG Version: 6.00 Build 0)  -->
<svg version="1.1" id="Ebene_1" xmlns="http://www.w3.org/2000/svg" xmlns:xlink="http://www.w3.org/1999/xlink" x="0px" y="0px"
	 viewBox="0 0 24 24" style="enable-background:new 0 0 24 24;" xml:space="preserve">
<style type="text/css">
	.st0{fill:none;}
	.st1{fill:#FAFAFA;}
</style>
<title>Element 190</title>
<g id="Ebene_2_1_">
	<g id="Platzhalter">
		<rect y="0" class="st0" width="24" height="24"/>
	</g>
	<g id="Ebene_1-2">
		<path class="st1" d="M13,14c0,0.6,0.4,1,1,1h4c0.6,0,1-0.4,1-1v-4c0-0.6-0.4-1-1-1h-4c-0.6,0-1,0.4-1,1v2H0v1h13V14z"/>
		<path class="st1" d="M4,5c0,0.6,0.4,1,1,1h4c0.6,0,1-0.4,1-1V1c0-0.6-0.4-1-1-1H5C4.4,0,4,0.4,4,1v1H0v1h4V5z"/>
		<path class="st1" d="M9,18H5c-0.6,0-1,0.4-1,1v1H0v1h4v2c0,0.6,0.4,1,1,1h4c0.6,0,1-0.4,1-1v-4C10,18.4,9.6,18,9,18z"/>
		<rect x="11" y="2" class="st1" width="13" height="1"/>
		<rect x="20" y="12" class="st1" width="4" height="1"/>
		<rect x="11" y="20" class="st1" width="13" height="1"/>
	</g>
</g>
</svg>
