<?xml version="1.0" encoding="utf-8"?>
<!-- Generator: Adobe Illustrator 22.0.1, SVG Export Plug-In . SVG Version: 6.00 Build 0)  -->
<svg version="1.1" id="Ebene_1" xmlns="http://www.w3.org/2000/svg" xmlns:xlink="http://www.w3.org/1999/xlink" x="0px" y="0px"
	 viewBox="0 0 16 16" style="enable-background:new 0 0 16 16;" xml:space="preserve">
<style type="text/css">
	.st0{fill:#CECED9;}
	.st1{fill:#5757AA;}
	.st2{fill:#9B9BAA;}
	.st3{fill:#5EA343;}
	.st4{fill:#7F7FBB;}
	.st5{opacity:0.2;fill:none;}
	.st6{fill:#E63A3F;}
	.st7{fill:#FFFFFF;}
	.st8{fill:#FAFAFA;}
	.st9{fill:none;stroke:#5757AA;stroke-width:2;stroke-linecap:round;stroke-miterlimit:10;}
	.st10{fill:#CBEBC1;}
	.st11{fill:#EDEDF2;}
	.st12{fill:#38396D;}
	.st13{fill:url(#SVGID_1_);}
	.st14{fill:url(#SVGID_2_);}
	.st15{fill:url(#SVGID_3_);}
	.st16{fill:url(#SVGID_4_);}
	.st17{fill:none;stroke:#5757AA;stroke-width:1.8947;stroke-miterlimit:10;}
	.st18{fill:#CCCCCC;stroke:#CECED9;stroke-miterlimit:10;}
	.st19{fill:none;stroke:#CECED9;stroke-width:1.6733;stroke-linecap:round;stroke-miterlimit:10;}
	.st20{fill:#E1E1E5;}
	.st21{fill:#FF00FF;}
	.st22{fill:#82828F;}
	.st23{fill:none;}
</style>
<path class="st0" d="M3,5v8c0,1.7,1.3,3,3,3h5c1.7,0,3-1.3,3-3V5H3z M6,14H5V6h1V14z M9,14H8V6h1V14z M12,14h-1V6h1V14z"/>
<polygon class="st0" points="11,2 11,0 6,0 6,2 3,2 3,4 14,4 14,2 "/>
<g>
	<path class="st23" d="M20.4-13.4v33.8H-2.4v-33.8H20.4 M21-14H-3v35h24V-14L21-14z"/>
</g>
</svg>
