<?xml version="1.0" encoding="UTF-8" standalone="no"?>
<svg
   xmlns:dc="http://purl.org/dc/elements/1.1/"
   xmlns:cc="http://creativecommons.org/ns#"
   xmlns:rdf="http://www.w3.org/1999/02/22-rdf-syntax-ns#"
   xmlns:svg="http://www.w3.org/2000/svg"
   xmlns="http://www.w3.org/2000/svg"
   xmlns:sodipodi="http://sodipodi.sourceforge.net/DTD/sodipodi-0.dtd"
   xmlns:inkscape="http://www.inkscape.org/namespaces/inkscape"
   version="1.1"
   id="Ebene_1"
   x="0px"
   y="0px"
   viewBox="0 0 140 140"
   style="enable-background:new 0 0 140 140;"
   xml:space="preserve"
   sodipodi:docname="Icon_password_key.svg"
   inkscape:version="1.0 (4035a4fb49, 2020-05-01)"><metadata
   id="metadata17"><rdf:RDF><cc:Work
       rdf:about=""><dc:format>image/svg+xml</dc:format><dc:type
         rdf:resource="http://purl.org/dc/dcmitype/StillImage" /></cc:Work></rdf:RDF></metadata><defs
   id="defs15">
	
	

		
	</defs><sodipodi:namedview
   inkscape:document-rotation="0"
   pagecolor="#ffffff"
   bordercolor="#666666"
   borderopacity="1"
   objecttolerance="10"
   gridtolerance="10"
   guidetolerance="10"
   inkscape:pageopacity="0"
   inkscape:pageshadow="2"
   inkscape:window-width="1920"
   inkscape:window-height="1017"
   id="namedview13"
   showgrid="false"
   inkscape:zoom="2.8284271"
   inkscape:cx="0.56559481"
   inkscape:cy="47.454218"
   inkscape:window-x="1912"
   inkscape:window-y="-8"
   inkscape:window-maximized="1"
   inkscape:current-layer="Ebene_1" />
<style
   type="text/css"
   id="style2">
	.st1{fill:#FFFFFF;}
	.st0{fill:#82828F;}
</style>

<g
   id="g840"><circle
     r="70"
     class="st0"
     cx="70"
     cy="70"
     id="circle4" /><path
     id="path866"
     d="M 90.125628,103.6 H 105 V 88.854684 88.565559 l -1.18994,-1.156496 -24.691468,-23.99731 c 4.46231,-8.962852 2.677385,-20.238697 -5.057289,-27.75593 -9.817083,-9.541097 -25.881404,-9.541097 -35.69849,0 -9.817084,9.541102 -9.817084,25.153811 0,34.69491 8.032159,7.806354 19.931658,9.251975 29.451255,4.336865 h -1.487436 l 5.94975,5.782482 v 5.782488 h 8.924621 v 8.673733 h 8.924625 z M 51.154773,55.316274 c -2.082411,0 -3.867337,-0.867374 -5.354773,-2.312995 -1.784926,-1.445621 -2.3799,-3.469491 -2.3799,-5.204236 0,-2.02387 0.594974,-4.047741 2.082412,-5.493361 1.487435,-1.445621 3.27236,-2.312994 5.354774,-2.312994 2.082411,0 3.867338,0.867373 5.354774,2.312994 1.487437,1.44562 2.379899,3.180368 2.379899,5.204237 0,2.023869 -0.892462,3.758616 -2.379899,5.204238 -1.18995,1.734744 -2.974876,2.602117 -5.057287,2.602117 z"
     class="st9"
     style="fill:#ffffff;fill-opacity:1;stroke-width:2.93274" /></g></svg>
