<?xml version="1.0" encoding="utf-8"?>
<!-- Generator: Adobe Illustrator 22.0.1, SVG Export Plug-In . SVG Version: 6.00 Build 0)  -->
<svg version="1.1" id="Ebene_1" xmlns="http://www.w3.org/2000/svg" xmlns:xlink="http://www.w3.org/1999/xlink" x="0px" y="0px"
	 viewBox="0 0 24 24" style="enable-background:new 0 0 24 24;" xml:space="preserve">
<style type="text/css">
	.st0{fill:#5757AA;}
	.st1{fill:#9B9BAA;}
	.st2{fill:#5EA343;}
	.st3{fill:#7F7FBB;}
	.st4{opacity:0.2;fill:none;}
	.st5{fill:#E63A3F;}
	.st6{fill:#FFFFFF;}
	.st7{fill:#FAFAFA;}
	.st8{fill:none;stroke:#5757AA;stroke-width:2;stroke-linecap:round;stroke-miterlimit:10;}
	.st9{fill:#CBEBC1;}
	.st10{fill:#CECED9;}
	.st11{fill:#414180;}
	.st12{fill:#EDEDF2;}
	.st13{fill:#38396D;}
	.st14{fill:url(#SVGID_1_);}
	.st15{fill:url(#SVGID_2_);}
	.st16{fill:url(#SVGID_3_);}
	.st17{fill:url(#SVGID_4_);}
</style>
<g>
	<path class="st13" d="M12,2c5.5,0,10,4.5,10,10s-4.5,10-10,10S2,17.5,2,12S6.5,2,12,2 M12,0C5.4,0,0,5.4,0,12s5.4,12,12,12
		s12-5.4,12-12S18.6,0,12,0L12,0z"/>
</g>
<g>
	<g>
		<path class="st13" d="M10.9,15c-0.1-0.2-0.1-0.4-0.2-0.6c0-0.3-0.1-0.5-0.1-0.7c0-0.4,0.1-0.7,0.2-1c0.2-0.3,0.3-0.6,0.6-0.9
			c0.2-0.3,0.5-0.5,0.8-0.8c0.3-0.3,0.5-0.5,0.7-0.7c0.2-0.2,0.4-0.5,0.6-0.8c0.2-0.3,0.2-0.6,0.2-0.9c0-0.3-0.1-0.5-0.2-0.7
			c-0.1-0.2-0.3-0.4-0.5-0.5C13,7.1,12.8,7,12.5,7c-0.3-0.1-0.5-0.1-0.8-0.1c-0.9,0-1.8,0.4-2.7,1.3V5.9C10,5.3,11.1,5,12.2,5
			c0.5,0,1,0.1,1.5,0.2c0.5,0.1,0.9,0.3,1.2,0.6c0.3,0.3,0.6,0.6,0.8,1C15.9,7.2,16,7.6,16,8.1c0,0.5-0.1,0.9-0.2,1.3
			c-0.2,0.4-0.4,0.7-0.6,1c-0.3,0.3-0.5,0.6-0.8,0.8c-0.3,0.2-0.6,0.5-0.8,0.7c-0.3,0.2-0.5,0.5-0.6,0.8s-0.2,0.6-0.2,0.9
			c0,0.3,0,0.5,0.1,0.7c0.1,0.2,0.1,0.4,0.2,0.6H10.9z M12,19c-0.4,0-0.7-0.1-1-0.4c-0.3-0.2-0.4-0.5-0.4-0.9c0-0.4,0.1-0.7,0.4-0.9
			c0.3-0.3,0.6-0.4,1-0.4c0.4,0,0.7,0.1,0.9,0.4c0.3,0.2,0.4,0.5,0.4,0.9c0,0.4-0.1,0.7-0.4,0.9C12.7,18.9,12.4,19,12,19z"/>
	</g>
</g>
</svg>
